<?xml version="1.0" encoding="utf-8"?>
<!-- Generator: Adobe Illustrator 23.0.1, SVG Export Plug-In . SVG Version: 6.00 Build 0)  -->
<svg version="1.1" id="Layer_1" xmlns="http://www.w3.org/2000/svg" xmlns:xlink="http://www.w3.org/1999/xlink" x="0px" y="0px"
	 viewBox="0 0 190.8 75.7" style="enable-background:new 0 0 190.8 75.7;" xml:space="preserve">
<style type="text/css">
	.st0{fill:#FFFFFF;}
</style>
<title>logo_bdl-white</title>
<g>
	<g id="XMLID_1719_">
		<path class="st0" d="M37.5,61.8c-13,0-22.1-9.4-22.2-23.7c0.1-14.3,9.2-23.7,22.2-23.7c4.4,0,8.3,0.7,11.8,2.1L55.9,5
			c-5-2.8-11.3-4.5-18.4-4.5c-0.3,0-0.5,0-0.7,0c-0.3,0-0.5,0-0.8,0C13.9,0.5,0,15.9,0,38c0,0,0,0.1,0,0.1c0,0,0,0.1,0,0.1
			c0,1.2,0.1,2.3,0.2,3.5c1.6,20.2,16.3,33.6,36.5,33.9c0.3,0,0.6,0,0.8,0c7.1,0,13.5-1.7,18.4-4.5l-6.6-11.4
			C45.7,61.1,41.9,61.8,37.5,61.8z"/>
	</g>
	<path id="XMLID_1718_" class="st0" d="M168.7,31.7l-7.2,12.5H177v14c-3.2,2.6-7.5,3.8-12.3,3.8c-13,0-21.1-9.9-21.1-24.1
		c0-14.4,9.2-24,22.3-24c4.4,0,8.3,0.7,11.9,2.1l6.6-11.5C179.4,1.7,173,0,165.9,0c-22,0-37.7,15.3-37.7,38
		c0,22.2,14,37.7,36.2,37.7c9.6,0,19.3-3.1,26.4-10.3c0-4.3,0-33.6,0-33.6H168.7z"/>
	<g id="XMLID_1717_">
		<path class="st0" d="M86.5,44.5h21.2c0,0,0-5.7,0-12.8H86.5V14.5h33.7L122,0.8H71.2v74.8h15.3V44.5z"/>
	</g>
</g>
</svg>
