<?xml version="1.0" encoding="utf-8"?>
<!-- Generator: Adobe Illustrator 23.0.1, SVG Export Plug-In . SVG Version: 6.00 Build 0)  -->
<svg version="1.1" id="Layer_1" xmlns="http://www.w3.org/2000/svg" xmlns:xlink="http://www.w3.org/1999/xlink" x="0px" y="0px"
	 viewBox="0 0 392.6 75.9" style="enable-background:new 0 0 392.6 75.9;" xml:space="preserve">
<style type="text/css">
	.st0{fill:#FFFFFF;}
</style>
<g>
	<g id="XMLID_1719_">
		<path class="st0" d="M37.5,61.8c-13,0-22.1-9.4-22.2-23.7c0.1-14.3,9.2-23.7,22.2-23.7c4.4,0,8.3,0.7,11.8,2.1L55.9,5
			c-5-2.8-11.3-4.5-18.4-4.5c-0.3,0-0.5,0-0.7,0c-0.3,0-0.5,0-0.8,0C13.9,0.5,0,15.9,0,38c0,0,0,0.1,0,0.1c0,0,0,0.1,0,0.1
			c0,1.2,0.1,2.3,0.2,3.5c1.6,20.2,16.3,33.6,36.5,33.9c0.3,0,0.6,0,0.8,0c7.1,0,13.5-1.7,18.4-4.5l-6.6-11.4
			C45.7,61.1,41.9,61.8,37.5,61.8z"/>
	</g>
	<path id="XMLID_1718_" class="st0" d="M168.7,31.7l-7.2,12.5H177v14c-3.2,2.6-7.5,3.8-12.3,3.8c-13,0-21.1-9.9-21.1-24.1
		c0-14.4,9.2-24,22.3-24c4.4,0,8.3,0.7,11.9,2.1l6.6-11.5C179.4,1.7,173,0,165.9,0c-22,0-37.7,15.3-37.7,38
		c0,22.2,14,37.7,36.2,37.7c9.6,0,19.3-3.1,26.4-10.3c0-4.3,0-33.6,0-33.6H168.7z"/>
	<g id="XMLID_1717_">
		<path class="st0" d="M86.5,44.5h21.2c0,0,0-5.7,0-12.8H86.5V14.5h33.7L122,0.8H71.2v74.8h15.3V44.5z"/>
	</g>
	<path id="XMLID_1715_" class="st0" d="M221.6,0.4c2.1,0,3.7,0.6,5,1.6v3.3c-1.5-1.4-3-2.1-4.9-2.1c-3.6,0-5.9,2.8-5.9,6.9
		c0,4,2.3,6.8,5.9,6.8c1.9,0,3.4-0.6,4.9-2.1v3.3c-1.2,1-2.9,1.6-5,1.6c-5.2,0-9-3.9-9-9.7C212.5,4.3,216.4,0.4,221.6,0.4z"/>
	<path id="XMLID_1712_" class="st0" d="M241.4,19.8c-5.1,0-8.6-4.1-8.6-9.7c0-5.6,3.6-9.7,8.6-9.7c5.1,0,8.6,4.1,8.6,9.7
		C250,15.7,246.4,19.8,241.4,19.8z M241.4,3.3c-3.3,0-5.4,2.9-5.4,6.9c0,4,2.1,6.9,5.4,6.9c3.3,0,5.5-2.9,5.5-6.9
		C246.8,6.1,244.6,3.3,241.4,3.3z"/>
	<polygon id="XMLID_1710_" class="st0" points="265.8,15.5 260,6.4 260,19.5 256.9,19.5 256.9,0.7 259.8,0.7 265.9,10.5 271.9,0.7 
		274.8,0.7 274.8,19.5 271.7,19.5 271.7,6.4 265.9,15.5 	"/>
	<path id="XMLID_1707_" class="st0" d="M285.8,12.5v7h-3.2V0.7h7.2c3.9,0,6.4,2,6.4,5.9c0,3.8-2.5,5.9-6.4,5.9H285.8z M289.8,3.5h-4
		v6.3h4c2.2,0,3.3-1.3,3.3-3.1C293.1,4.8,292,3.5,289.8,3.5z"/>
	<path id="XMLID_1704_" class="st0" d="M310.4,0.7l7.2,18.8h-3.2l-1.9-5.2h-7.2l-1.9,5.2h-3.2l7.2-18.8H310.4z M306.3,11.6h5.1
		l-2.6-7L306.3,11.6z"/>
	<path id="XMLID_1702_" class="st0" d="M335,15.8v-3.6h-3.5V9.5h6.5V17c-1.8,2-4.3,2.8-6.7,2.8c-5.5,0-9-4-9-9.7
		c0-5.8,4-9.7,9.3-9.7c2.2,0,4,0.6,5.3,1.6v3.3c-1.6-1.4-3.3-2.1-5.3-2.1c-3.7,0-6.1,2.8-6.1,6.9c0,4,2.2,6.9,5.8,6.9
		C332.7,17,334,16.6,335,15.8z"/>
	<polygon id="XMLID_1700_" class="st0" points="360.3,19.5 357.9,19.5 348.3,5.8 348.3,19.5 345.3,19.5 345.3,0.7 348.2,0.7 
		357.3,13.8 357.3,0.7 360.3,0.7 	"/>
	<rect id="XMLID_1698_" x="368.2" y="0.7" class="st0" width="3.2" height="18.8"/>
	<polygon id="XMLID_1696_" class="st0" points="391.5,0.7 391.5,3.5 382.4,3.5 382.4,8.5 390.6,8.5 390.6,11.3 382.4,11.3 
		382.4,16.7 391.5,16.7 391.5,19.5 379.3,19.5 379.3,0.7 	"/>
	<polygon id="XMLID_1694_" class="st0" points="213.5,47.6 213.5,28.8 225.5,28.8 225.5,31.6 216.7,31.6 216.7,37.1 224.9,37.1 
		224.9,39.9 216.7,39.9 216.7,47.6 	"/>
	<rect id="XMLID_1692_" x="232.1" y="28.8" class="st0" width="3.2" height="18.8"/>
	<polygon id="XMLID_1690_" class="st0" points="257.9,47.6 255.4,47.6 245.9,33.9 245.9,47.6 242.8,47.6 242.8,28.8 245.8,28.8 
		254.8,41.8 254.8,28.8 257.9,28.8 	"/>
	<path id="XMLID_1687_" class="st0" d="M274.2,28.8l7.2,18.8h-3.2l-1.9-5.2h-7.2l-1.9,5.2H264l7.2-18.8H274.2z M270.1,39.6h5.1
		l-2.6-7L270.1,39.6z"/>
	<polygon id="XMLID_1685_" class="st0" points="302.6,47.6 300.1,47.6 290.6,33.9 290.6,47.6 287.5,47.6 287.5,28.8 290.5,28.8 
		299.5,41.8 299.5,28.8 302.6,28.8 	"/>
	<path id="XMLID_1683_" class="st0" d="M318.2,28.4c2.1,0,3.7,0.6,5,1.6v3.3c-1.5-1.4-3-2.1-4.9-2.1c-3.6,0-5.9,2.8-5.9,6.9
		c0,4,2.3,6.8,5.9,6.8c1.9,0,3.4-0.6,4.9-2.1v3.3c-1.2,1-2.9,1.6-5,1.6c-5.2,0-9-3.9-9-9.7S313,28.4,318.2,28.4z"/>
	<rect id="XMLID_1681_" x="330.2" y="28.8" class="st0" width="3.2" height="18.8"/>
	<path id="XMLID_1678_" class="st0" d="M353.2,28.8v2.8h-9.1v5h8.2v2.8h-8.2v5.4h9.1v2.8H341V28.8H353.2z M345.8,27l-2.9-3.6h3.5
		l2.3,3.6H345.8z"/>
	<path id="XMLID_1675_" class="st0" d="M363.2,39.9v7.6h-3.2V28.8h7.2c3.9,0,6.4,2,6.4,5.6c0,3.2-1.8,5-4.8,5.4l5.4,7.7h-3.6
		l-5.2-7.6H363.2z M363.2,37.3h4c2.1,0,3.3-1.1,3.3-2.9c0-1.7-1.2-2.9-3.3-2.9h-4V37.3z"/>
	<polygon id="XMLID_1673_" class="st0" points="392.6,28.8 392.6,31.6 383.5,31.6 383.5,36.5 391.8,36.5 391.8,39.3 383.5,39.3 
		383.5,44.7 392.6,44.7 392.6,47.6 380.4,47.6 380.4,28.8 	"/>
	<path id="XMLID_1670_" class="st0" d="M213.5,56.8h6.3c5.5,0,9.1,3.7,9.1,9.4c0,5.7-3.6,9.4-9.1,9.4h-6.3V56.8z M219.7,72.7
		c3.9,0,6-2.5,6-6.6c0-4-2.1-6.6-6-6.6h-3v13.1H219.7z"/>
	<polygon id="XMLID_1668_" class="st0" points="247.9,56.8 247.9,59.6 238.8,59.6 238.8,64.6 247.1,64.6 247.1,67.3 238.8,67.3 
		238.8,72.7 247.9,72.7 247.9,75.6 235.7,75.6 235.7,56.8 	"/>
	<path id="XMLID_1666_" class="st0" d="M274.1,71.8v-3.6h-3.5v-2.7h6.5v7.5c-1.8,2-4.3,2.8-6.7,2.8c-5.5,0-9-4-9-9.7
		c0-5.8,4-9.7,9.3-9.7c2.2,0,4,0.6,5.3,1.6v3.3c-1.6-1.4-3.3-2.1-5.3-2.1c-3.7,0-6.2,2.8-6.2,6.9c0,4,2.2,6.9,5.8,6.9
		C271.8,73.1,273.1,72.7,274.1,71.8z"/>
	<polygon id="XMLID_1664_" class="st0" points="296.5,56.8 296.5,59.6 287.4,59.6 287.4,64.6 295.6,64.6 295.6,67.3 287.4,67.3 
		287.4,72.7 296.5,72.7 296.5,75.6 284.3,75.6 284.3,56.8 	"/>
	<path id="XMLID_1662_" class="st0" d="M302.8,70.9c1.7,1.4,3.7,2.2,5.9,2.2c2.1,0,3.6-0.8,3.6-2.4c0-1.5-0.9-2.1-2.6-2.7l-2.7-1
		c-2.5-0.9-4.4-2.3-4.4-5.4c0-3.3,2.9-5.1,6.3-5.1c2.1,0,4,0.6,5.5,1.5v3.3c-1.6-1.2-3.3-2-5.5-2c-1.9,0-3.3,0.7-3.3,2.3
		c0,1.4,0.9,1.9,2.4,2.5l3,1.1c2.9,1.1,4.3,2.7,4.3,5.5c0,3.4-2.9,5.3-6.7,5.3c-2.5,0-4.6-0.7-5.9-1.7V70.9z"/>
	<polygon id="XMLID_1660_" class="st0" points="320.9,56.8 336.5,56.8 336.5,59.6 330.3,59.6 330.3,75.6 327.1,75.6 327.1,59.6 
		320.9,59.6 	"/>
	<rect id="XMLID_1658_" x="343.1" y="56.8" class="st0" width="3.2" height="18.8"/>
	<path id="XMLID_1655_" class="st0" d="M361.7,75.9c-5.1,0-8.6-4.1-8.6-9.7c0-5.6,3.6-9.7,8.6-9.7c5.1,0,8.6,4.1,8.6,9.7
		C370.4,71.8,366.8,75.9,361.7,75.9z M361.7,59.3c-3.3,0-5.4,2.9-5.4,6.9c0,4,2.1,6.9,5.4,6.9c3.3,0,5.5-2.9,5.5-6.9
		C367.2,62.2,365,59.3,361.7,59.3z"/>
	<polygon id="XMLID_1653_" class="st0" points="392.2,75.6 389.8,75.6 380.2,61.9 380.2,75.6 377.2,75.6 377.2,56.8 380.1,56.8 
		389.2,69.8 389.2,56.8 392.2,56.8 	"/>
</g>
</svg>
