<svg id="f83d4849-daba-4360-a64e-2e09eb7ef71d" data-name="Ebene 1" xmlns="http://www.w3.org/2000/svg" viewBox="0 0 1549.78 808.96"><title>background_fullpage-menu-horizontal</title><path d="M1286.17,95.6S1119.43,46.08,853.43,200.79s-226.31,508-682.5,493.89" style="fill:none;stroke:#163a50;stroke-width:0.25px"/><path d="M1292,100.18S1115.6,50.82,846.78,205,613.18,703.8,167.14,690" style="fill:none;stroke:#1b3d53;stroke-width:0.25px"/><path d="M1297.88,104.76s-186.1-49.21-457.76,104.35S599.24,698.78,163.34,685.25" style="fill:none;stroke:#1d3f55;stroke-width:0.25px"/><path d="M1303.74,109.33S1108,60.28,833.46,213.27,585.31,693.75,159.54,680.54" style="fill:none;stroke:#224257;stroke-width:0.25px"/><path d="M1309.6,113.91S1104.13,65,826.81,217.42,571.37,688.72,155.74,675.83" style="fill:none;stroke:#24445a;stroke-width:0.25px"/><path d="M1315.46,118.49S1100.3,69.75,820.15,221.58,557.44,683.7,151.94,671.11" style="fill:none;stroke:#29475d;stroke-width:0.25px"/><path d="M1321.31,123.07S1096.48,74.48,813.49,225.74,543.5,678.67,148.15,666.4" style="fill:none;stroke:#2b485e;stroke-width:0.25px"/><path d="M1327.17,127.65S1092.65,79.21,806.84,229.9,529.57,673.64,144.35,661.69" style="fill:none;stroke:#2f4b61;stroke-width:0.25px"/><path d="M1333,132.22S1088.83,84,800.18,234.05,515.63,668.62,140.55,657" style="fill:none;stroke:#314d63;stroke-width:0.25px"/><path d="M1338.89,136.8S1085,88.68,793.53,238.21,501.7,663.59,136.75,652.26" style="fill:none;stroke:#355066;stroke-width:0.25px"/><path d="M1344.74,141.38s-263.56-48-557.87,101S487.76,658.56,133,647.55" style="fill:none;stroke:#375469;stroke-width:0.25px"/><path d="M1350.6,146S1077.36,98.14,780.21,246.53s-306.38,407-651.05,396.31" style="fill:none;stroke:#3c566c;stroke-width:0.25px"/><path d="M1356.46,150.53s-282.93-47.65-582.9,100.16S459.89,648.51,125.36,638.13" style="fill:none;stroke:#3d596f;stroke-width:0.25px"/><path d="M1362.32,155.11s-292.61-47.5-595.42,99.73S446,643.48,121.56,633.41" style="fill:none;stroke:#425c72;stroke-width:0.25px"/><path d="M1368.18,159.69S1065.88,112.34,760.24,259,432,638.45,117.76,628.7" style="fill:none;stroke:#445f75;stroke-width:0.25px"/><path d="M1374,164.27s-312-47.2-620.44,98.89S418.09,633.43,114,624" style="fill:none;stroke:#496278;stroke-width:0.25px"/><path d="M1379.89,168.85s-321.66-47-633,98.46-342.78,361.09-636.76,352" style="fill:none;stroke:#4d667c;stroke-width:0.25px"/><path d="M1385.75,173.42s-331.34-46.88-645.47,98.05S390.21,623.37,106.37,614.56" style="fill:none;stroke:#4e677d;stroke-width:0.25px"/><path d="M1391.61,178s-341-46.73-658,97.63-357.34,342.72-631,334.22" style="fill:none;stroke:#526b81;stroke-width:0.25px"/><path d="M1397.46,182.58S1046.76,136,727,279.79,362.34,613.32,98.77,605.14" style="fill:none;stroke:#546f85;stroke-width:0.25px"/><path d="M1403.32,187.16s-360.39-46.42-683,96.78S348.41,608.29,95,600.43" style="fill:none;stroke:#597288;stroke-width:0.25px"/><path d="M1409.18,191.74s-370.07-46.27-695.53,96.36S334.47,603.27,91.18,595.71" style="fill:none;stroke:#5b768c;stroke-width:0.25px"/><path d="M1415,196.31s-379.75-46.11-708,95.95S320.54,598.24,87.38,591" style="fill:none;stroke:#5f798f;stroke-width:0.25px"/><path d="M1420.9,200.89s-389.44-45.95-720.56,95.53S306.6,593.21,83.58,586.29" style="fill:none;stroke:#627d92;stroke-width:0.25px"/><path d="M1426.75,205.47s-399.11-45.8-733.07,95.11-401,287.6-613.9,281" style="fill:none;stroke:#668095;stroke-width:0.25px"/><path d="M1432.61,210.05S1023.81,164.4,687,304.73,278.73,583.16,76,576.87" style="fill:none;stroke:#688499;stroke-width:0.25px"/><path d="M1438.47,214.63S1020,169.14,680.37,308.89,264.8,578.13,72.19,572.15" style="fill:none;stroke:#6d889d;stroke-width:0.25px"/><path d="M1444.33,219.2s-428.17-45.33-770.62,93.85S250.86,573.1,68.39,567.44" style="fill:none;stroke:#6f8ca1;stroke-width:0.25px"/><path d="M1450.19,223.78s-437.85-45.18-783.13,93.43S236.93,568.08,64.59,562.73" style="fill:none;stroke:#7491a5;stroke-width:0.25px"/><path d="M1456,228.36s-447.53-45-795.64,93S223,563.05,60.79,558" style="fill:none;stroke:#7593a8;stroke-width:0.25px"/><path d="M1461.9,232.94s-457.21-44.87-808.15,92.58S209.06,558,57,553.3" style="fill:none;stroke:#7a98ac;stroke-width:0.25px"/><path d="M1467.76,237.52s-466.9-44.72-820.67,92.16S195.12,553,53.2,548.59" style="fill:none;stroke:#7f9cb0;stroke-width:0.25px"/><path d="M1473.62,242.09S997,197.53,640.43,333.84,181.18,548,49.4,543.88" style="fill:none;stroke:#82a0b5;stroke-width:0.25px"/><path d="M1479.47,246.67S993.21,202.26,633.78,338,167.25,542.94,45.6,539.17" style="fill:none;stroke:#87a4b8;stroke-width:0.25px"/><path d="M1485.33,251.25S989.39,207,627.12,342.15,153.31,537.91,41.8,534.45" style="fill:none;stroke:#89a9bd;stroke-width:0.25px"/><path d="M1491.19,255.83s-505.63-44.1-870.72,90.48S139.38,532.89,38,529.74" style="fill:none;stroke:#8fadc1;stroke-width:0.25px"/><path d="M1497.05,260.4s-515.31-43.94-883.24,90.07S125.44,527.86,34.21,525" style="fill:none;stroke:#91b2c7;stroke-width:0.25px"/><path d="M1502.91,265s-525-43.78-895.76,89.65S111.51,522.83,30.41,520.32" style="fill:none;stroke:#96b8cc;stroke-width:0.25px"/><path d="M1508.76,269.56S974.09,225.93,600.5,358.78,97.57,517.81,26.61,515.6" style="fill:none;stroke:#9abcd0;stroke-width:0.25px"/><path d="M1514.62,274.14s-544.36-43.48-920.78,88.8-510.2,149.84-571,148" style="fill:none;stroke:#9fc2d5;stroke-width:0.25px"/><path d="M1520.48,278.72s-554-43.33-933.3,88.38S69.7,507.75,19,506.18" style="fill:none;stroke:#a1c5d8;stroke-width:0.25px"/><path d="M1526.34,283.29s-563.73-43.16-945.81,88S55.77,502.72,15.22,501.47" style="fill:none;stroke:#a7cbde;stroke-width:0.25px"/><path d="M1532.2,287.87s-573.41-43-958.33,87.54S41.83,497.7,11.42,496.75" style="fill:none;stroke:#aacfe3;stroke-width:0.25px"/><path d="M1538.05,292.45S955,249.59,567.22,379.57,27.9,492.67,7.62,492" style="fill:none;stroke:#b1d6e9;stroke-width:0.25px"/><path d="M1543.91,297s-592.77-42.71-983.35,86.7S14,487.64,3.82,487.33" style="fill:none;stroke:#b5dcf0;stroke-width:0.25px"/><path d="M1549.77,301.61S947.32,259.06,553.9,387.89,0,482.62,0,482.62" style="fill:none;stroke:#bce6fb;stroke-width:0.25px"/><path d="M1544.49,295.53S947.71,251.9,560,381.13,17.36,486.4,9.77,489.87" style="fill:none;stroke:#b9e5fb;stroke-width:0.25px"/><path d="M1539.2,289.45S948.1,244.73,566,374.37,34.69,490.19,19.51,497.12" style="fill:none;stroke:#b7e1f8;stroke-width:0.25px"/><path d="M1533.92,283.38s-585.43-45.81-961.84,84.24S52,494,29.26,504.37" style="fill:none;stroke:#b4e0f5;stroke-width:0.25px"/><path d="M1528.63,277.3s-579.75-46.89-950.5,83.56S69.36,497.76,39,511.61" style="fill:none;stroke:#b5def3;stroke-width:0.25px"/><path d="M1523.35,271.23s-574.08-48-939.16,82.87S86.69,501.55,48.75,518.86" style="fill:none;stroke:#b2ddf3;stroke-width:0.25px"/><path d="M1518.07,265.15s-568.41-49.06-927.82,82.2S104,505.34,58.49,526.11" style="fill:none;stroke:#afdcf3;stroke-width:0.25px"/><path d="M1512.78,259.08S950.05,208.93,596.3,340.59,121.35,509.12,68.23,533.36" style="fill:none;stroke:#add9ef;stroke-width:0.25px"/><path d="M1507.5,253s-557.06-51.23-905.14,80.83S138.69,512.91,78,540.61" style="fill:none;stroke:#aad8ef;stroke-width:0.25px"/><path d="M1502.22,246.93s-551.39-52.33-893.8,80.15S156,516.69,87.72,547.86" style="fill:none;stroke:#a8d6ed;stroke-width:0.25px"/><path d="M1496.93,240.85s-545.71-53.41-882.45,79.47-441.13,200.16-517,234.79" style="fill:none;stroke:#a8d6ed;stroke-width:0.25px"/><path d="M1491.65,234.77s-540-54.49-871.12,78.79S190.69,524.27,107.21,562.36" style="fill:none;stroke:#a5d5eb;stroke-width:0.25px"/><path d="M1486.37,228.7S952,173.12,626.59,306.81,208,528.05,117,569.61" style="fill:none;stroke:#a3d2ea;stroke-width:0.25px"/><path d="M1481.08,222.62S952.4,166,632.65,300.05,225.35,531.84,126.7,576.86" style="fill:none;stroke:#a0d1ea;stroke-width:0.25px"/><path d="M1475.8,216.55s-523-57.75-837.09,76.74-396,242.34-502.27,290.82" style="fill:none;stroke:#9ecfe8;stroke-width:0.25px"/><path d="M1470.51,210.47s-517.33-58.83-825.75,76.07S260,539.41,146.18,591.36" style="fill:none;stroke:#9bcee6;stroke-width:0.25px"/><path d="M1465.23,204.4s-511.66-59.93-814.41,75.38S277.35,543.2,155.93,598.61" style="fill:none;stroke:#98cde6;stroke-width:0.25px"/><path d="M1460,198.32s-506-61-803.07,74.7S294.68,547,165.67,605.86" style="fill:none;stroke:#99cbe5;stroke-width:0.25px"/><path d="M1454.66,192.24s-500.31-62.09-791.72,74S312,550.77,175.41,613.11" style="fill:none;stroke:#96cbe5;stroke-width:0.25px"/><path d="M1449.38,186.17S954.74,123,669,259.51s-339.64,295-483.83,360.85" style="fill:none;stroke:#94c8e2;stroke-width:0.25px"/><path d="M1444.1,180.09s-489-64.26-769,72.67S346.68,558.34,194.9,627.61" style="fill:none;stroke:#91c7e2;stroke-width:0.25px"/><path d="M1438.81,174s-483.29-65.35-757.7,72S364,562.13,204.65,634.86" style="fill:none;stroke:#8ec7e2;stroke-width:0.25px"/><path d="M1433.53,167.94s-477.62-66.43-746.36,71.3S381.34,565.92,214.39,642.1" style="fill:none;stroke:#8cc4e1;stroke-width:0.25px"/><path d="M1428.24,161.87s-471.94-67.53-735,70.62S398.68,569.7,224.13,649.35" style="fill:none;stroke:#8cc4df;stroke-width:0.25px"/><path d="M1423,155.79S956.69,87.18,699.28,225.73,416,573.49,233.88,656.6" style="fill:none;stroke:#8ac2de;stroke-width:0.25px"/><path d="M1417.68,149.72S957.08,80,705.34,219s-272,358.31-461.72,444.88" style="fill:none;stroke:#87c1de;stroke-width:0.25px"/><path d="M1412.39,143.64s-454.92-70.78-701,68.58-260.72,368.84-458,458.88" style="fill:none;stroke:#84c0dd;stroke-width:0.25px"/><path d="M1407.11,137.56S957.86,65.7,717.45,205.46,468,584.85,263.11,678.35" style="fill:none;stroke:#82bedb;stroke-width:0.25px"/><path d="M1401.83,131.49s-443.58-73-678.32,67.21S485.34,588.63,272.85,685.6" style="fill:none;stroke:#80bddb;stroke-width:0.25px"/><path d="M1396.54,125.41s-437.89-74-667,66.54-226.9,400.47-447,500.9" style="fill:none;stroke:#80bcda;stroke-width:0.25px"/><path d="M1391.26,119.34S959,44.21,735.62,185.19,520,596.21,292.34,700.1" style="fill:none;stroke:#7dbbd9;stroke-width:0.25px"/><path d="M1386,113.26s-426.55-76.21-644.3,65.17S537.34,600,302.08,707.35" style="fill:none;stroke:#7bbad8;stroke-width:0.25px"/><path d="M1380.69,107.19s-420.87-77.3-632.95,64.49S554.67,603.78,311.83,714.6" style="fill:none;stroke:#78b8d7;stroke-width:0.25px"/><path d="M1375.41,101.11S960.21,22.73,753.8,164.92,572,607.56,321.57,721.85" style="fill:none;stroke:#76b8d6;stroke-width:0.25px"/><path d="M1370.12,95S960.6,15.57,759.85,158.16,589.34,611.35,331.32,729.1" style="fill:none;stroke:#73b5d5;stroke-width:0.25px"/><path d="M1364.84,89S961,8.41,765.91,151.41,606.67,615.14,341.06,736.35" style="fill:none;stroke:#71b5d4;stroke-width:0.25px"/><path d="M1359.56,82.88S961.38,1.25,772,144.65,624,618.92,350.8,743.6" style="fill:none;stroke:#71b5d4;stroke-width:0.25px"/><path d="M1354.27,76.81S961.77-5.92,778,137.89s-136.7,484.82-417.48,613" style="fill:none;stroke:#6fb3d3;stroke-width:0.25px"/><path d="M1349,70.73S962.16-13.08,784.08,131.14,658.67,626.5,370.29,758.1" style="fill:none;stroke:#6cb2d2;stroke-width:0.25px"/><path d="M1343.71,64.66s-381.16-84.9-553.57,59.72S676,630.28,380,765.35" style="fill:none;stroke:#6ab0d0;stroke-width:0.25px"/><path d="M1338.42,58.58s-375.48-86-542.22,59-102.87,516.45-406.42,655" style="fill:none;stroke:#67afd0;stroke-width:0.25px"/><path d="M1333.14,52.51S963.33-34.56,802.25,110.87s-91.59,527-402.73,669" style="fill:none;stroke:#63afd0;stroke-width:0.25px"/><path d="M1327.86,46.43S963.72-41.72,808.31,104.11s-80.31,537.53-399,683" style="fill:none;stroke:#64adcf;stroke-width:0.25px"/><path d="M1322.57,40.35s-358.45-89.23-508.2,57-69,548.08-395.36,697" style="fill:none;stroke:#61adcd;stroke-width:0.25px"/><path d="M1317.29,34.28S964.51-56,820.43,90.6s-57.77,558.61-391.67,711" style="fill:none;stroke:#5fabcc;stroke-width:0.25px"/><path d="M1312,28.2S964.9-63.21,826.48,83.84,780,653,438.5,808.84" style="fill:none;stroke:#5caacc;stroke-width:0.25px"/></svg>