<svg id="a7803701-c8a6-48d1-81e4-b20fdc4b0a2b" data-name="Isolation Mode" xmlns="http://www.w3.org/2000/svg" viewBox="0 0 302.48 104.18"><title>background_footer-horizontal</title><path d="M2.56,36.54S48,48.16,63.8,23.5c43.68-68.34,80,45.76,138.4,39.85s103.3,6.15,100,40.85M2.49,36.21S47,48.06,62.74,24.46C80-1.42,96,.13,112.84,10.74c25.78,16.28,53,55.09,88.06,51.34,58.34-6.4,103.13,5.23,100,39.31M2.41,35.89S46,48,61.68,25.42C78.89.65,94.88,2.29,111.78,12.23c25.86,15.27,53.14,52.58,87.8,48.57,58.36-6.75,103,4.31,100,37.78m-297.2-63S45,47.87,60.61,26.38c17.2-23.67,33.14-21.93,50.1-12.66,25.94,14.26,53.24,50,87.57,45.8,58.33-7.17,102.82,3.39,99.92,36.25M2.27,35.23S44,47.77,59.55,27.34C76.73,4.78,92.62,6.61,109.65,15.21c26,13.25,53.33,47.47,87.32,43,58.32-7.61,102.67,2.46,99.88,34.71M2.2,34.91S43,47.68,58.49,28.3c17.17-21.45,33-19.56,50.09-11.6C134.73,28.9,162,61.61,195.66,57c58.31-8,102.51,1.54,99.85,33.19M2.13,34.58s39.84,13,55.3-5.32c17.15-20.33,33-18.36,50.09-11.07,26.23,11.18,53.51,42.35,86.83,37.5,58.3-8.48,102.36.62,99.81,31.66M2.05,34.26s38.91,13.25,54.32-4C73.5,11,89.26,13.05,106.45,19.68,132.77,29.83,160.06,59.47,193,54.42c58.29-8.93,102.2-.31,99.78,30.12M2,33.93s38,13.5,53.33-2.74c17.11-18.1,32.82-16,50.08-10,26.39,9.13,53.7,37.22,86.34,32,58.28-9.37,102-1.23,99.74,28.59M1.91,33.61s37,13.75,52.34-1.46c17.09-17,32.75-14.79,50.07-9.49,26.47,8.11,53.8,34.65,86.1,29.2C248.7,42,292.31,49.71,290.13,78.93M1.84,33.28s36.06,14,51.34-.17c17.08-15.85,32.68-13.6,50.07-9,26.56,7.09,53.9,32.08,85.86,26.44,58.27-10.28,101.74-3.08,99.67,25.53M1.77,33s35.11,14.28,50.35,1.12c17.05-14.71,32.61-12.41,50.07-8.43,26.63,6.07,54,29.5,85.61,23.67,58.26-10.74,101.58-4,99.64,24M1.69,32.63S35.84,47.17,51.06,35c17-13.56,32.53-11.21,50.06-7.9,26.7,5.05,54.08,26.93,85.37,20.91,58.25-11.21,101.43-4.93,99.6,22.46M1.62,32.3S34.8,47.12,50,36c17-12.41,32.45-10,50.06-7.37,26.77,4,54.16,24.35,85.12,18.14,58.23-11.68,101.27-5.85,99.57,20.94M1.55,32s32.19,15.09,47.39,5C65.85,25.69,81.31,28.13,99,30.11c26.84,3,54.26,21.76,84.88,15.37C242.09,33.33,285,38.71,283.4,64.89M1.48,31.65S32.67,47,47.87,37.92c16.85-10.11,32.3-7.64,50.06-6.32,26.9,2,54.34,19.18,84.64,12.61,58.2-12.63,100.95-7.7,99.49,17.87M1.41,31.33S31.57,47,46.81,38.88C63.56,29.94,79,32.44,96.86,33.09c27,1,54.43,16.59,84.4,9.84,58.18-13.11,100.8-8.62,99.45,16.34M1.33,31s29.12,16,44.42,8.84c16.62-7.77,32.14-5.24,50.05-5.26,27,0,54.51,14,84.15,7.07,58.16-13.59,100.64-9.54,99.42,14.82M1.26,30.67S29.3,47,44.69,40.8c16.46-6.6,32.06-4,50-4.73,27.1-1,54.6,11.41,83.91,4.3C236.78,26.29,279.13,29.91,278,53.66M1.19,30.35S28.1,47,43.63,41.76c16.26-5.43,32-2.84,50-4.2,27.18-2,54.69,8.81,83.67,1.54,58.11-14.58,100.33-11.39,99.35,11.75M1.12,30s25.75,16.9,41.45,12.7c16-4.28,31.9-1.64,50-3.67,27.24-3,54.77,6.21,83.42-1.23C234.1,22.74,276.2,25.51,275.33,48M1.05,29.7s24.55,17.18,40.46,14c15.72-3.15,31.82-.43,50-3.14,27.31-4.06,54.85,3.61,83.18-4,58-15.59,100-13.24,99.28,8.68M1,29.37S24.29,46.81,40.44,44.65c15.4-2.07,31.75.76,50-2.62,27.38-5.06,54.92,1,82.93-6.76,58-16.1,99.87-14.16,99.24,7.16M.9,29.05S23,46.7,39.38,45.61c15.06-1,31.68,2,50-2.09,27.46-6.07,55-1.59,82.69-9.53,58-16.61,99.71-15.08,99.21,5.63M.83,28.72s20.8,17.83,37.49,17.85c14.71,0,31.6,3.17,50-1.56,27.53-7.07,55.07-4.2,82.44-12.29,57.92-17.13,99.56-16,99.17,4.09M.76,28.4s19.57,18,36.5,19.13c14.39,1,31.53,4.37,50-1,27.61-8.07,55.14-6.8,82.2-15.06,57.86-17.65,99.4-16.93,99.14,2.56M.68,28.07s18.39,18,35.52,20.42c14.11,2,31.46,5.58,50-.5,27.69-9.07,55.22-9.41,82-17.83,57.81-18.18,99.25-17.85,99.1,1M.61,27.74s17.26,18.1,34.53,21.71c13.89,2.91,31.39,6.78,50,0,27.77-10.08,55.28-12,81.72-20.59,57.73-18.72,99.08-18.78,99.06-.5M.54,27.42s16.2,18.14,33.54,23c13.72,3.84,31.32,8,50,.56,27.86-11.08,55.34-14.64,81.48-23.36,57.66-19.25,98.93-19.7,99-2M.47,27.09S15.67,45.28,33,51.37c13.61,4.79,31.26,9.19,50,1.09,27.94-12.08,55.4-17.25,81.23-26.13,57.58-19.79,98.77-20.62,99-3.56M.4,26.77S14.65,45,32,52.34c13.53,5.73,31.22,10.41,50,1.61,28.07-13.05,55.46-19.87,81-28.89,57.5-20.34,98.62-21.55,98.95-5.1M.32,26.44S13.67,44.75,30.89,53.3C44.38,60,62,64.91,80.88,55.44,109,41.37,136.39,33,161.62,23.78,219,2.89,260.08,1.31,260.54,17.16M.25,26.12S12.71,44.51,29.83,54.26c13.48,7.68,31.07,12.81,50,2.67,28.22-15.08,55.57-25.1,80.5-34.43,57.31-21.44,98.31-23.39,98.88-8.15M.18,25.79S11.76,44.28,28.77,55.22c13.48,8.67,31,14,50,3.2C107.05,42.33,134.37,30.7,159,21.23c57.2-22,98.15-24.32,98.85-9.69M.11,25.46S34.82,85.74,77.68,59.91C172.6,2.71,255.34-11.27,256.5,8.73" transform="translate(-0.02 -0.02)" style="fill:none;stroke:#345d73;stroke-width:0.2px"/></svg>