<svg id="Ebene_1" data-name="Ebene 1" xmlns="http://www.w3.org/2000/svg" viewBox="0 0 207.92 139.67"><defs><style>.cls-1{fill:#2a455a;}.cls-2{fill:#1d1d1b;}.cls-3{fill:#0f8dbb;}</style></defs><title>logo_cigogne-management</title><path class="cls-1" d="M73.26,120.94c-1.1.09-1.57.13-2.39.13A10.86,10.86,0,0,1,67,120.5c-2.91-1-4.64-4.14-4.64-8.34,0-6.15,3.17-9.57,8.94-9.57a19.25,19.25,0,0,1,2.54.16l1.47,3.92h1.13v-4.73a22.54,22.54,0,0,0-5.77-.73,14.18,14.18,0,0,0-4.48.63c-4.23,1.32-7,5.55-7,10.79A10.54,10.54,0,0,0,61.75,120c1.81,2,4,2.79,7.9,2.79a20.78,20.78,0,0,0,6.56-1.1l.4-4.67H75.55l-2,3.92Z"/><polygon class="cls-1" points="90.56 122.44 90.56 121.66 87.89 120.56 87.89 103.41 90.56 102.31 90.56 101.53 82.28 101.53 82.28 102.31 84.95 103.41 84.95 120.56 82.28 121.66 82.28 122.44 90.56 122.44"/><path class="cls-1" d="M114.67,114.64v-.79h-8.28v.79l2.67,1.06v5.18a19.62,19.62,0,0,1-3,.19c-5.21,0-8.16-3.24-8.16-8.91A10,10,0,0,1,100.4,105c1.57-1.7,3.55-2.36,6.84-2.36a12.19,12.19,0,0,1,2.51.22l1.38,3.86h1.19V102l-.38-.09a21.27,21.27,0,0,0-5.74-.7c-3.54,0-6,.85-8,2.7a11.23,11.23,0,0,0-3.39,8.53,10.87,10.87,0,0,0,2.6,7.47c1.76,2,4.11,2.85,7.56,2.85a23.55,23.55,0,0,0,6.68-1l.38-.12v-5.9Z"/><path class="cls-1" d="M128.15,122.92c6,0,10-4.61,10-11.36,0-6.27-3.73-10.35-9.47-10.35-5.89,0-10,4.65-10,11.42C118.71,118.84,122.44,122.92,128.15,122.92Zm.19-20.29c4,0,6.55,3.63,6.55,9.53,0,5.74-2.51,9.34-6.43,9.34s-6.45-3.7-6.45-9.59S124.36,102.63,128.34,102.63Z"/><path class="cls-1" d="M162.48,114.64v-.79H154.2v.79l2.66,1.06v5.18a19.62,19.62,0,0,1-3,.19c-5.2,0-8.15-3.24-8.15-8.91a10,10,0,0,1,2.48-7.21c1.57-1.7,3.54-2.36,6.83-2.36a12.06,12.06,0,0,1,2.51.22l1.38,3.86h1.19V102l-.37-.09a21.36,21.36,0,0,0-5.74-.7c-3.54,0-6,.85-8,2.7a11.26,11.26,0,0,0-3.38,8.53,10.82,10.82,0,0,0,2.6,7.47c1.75,2,4.11,2.85,7.56,2.85a23.55,23.55,0,0,0,6.68-1l.37-.12v-5.9Z"/><polygon class="cls-1" points="173.42 122.44 173.42 121.66 170.75 120.56 170.75 105.32 183.76 122.76 184.71 122.76 184.71 103.41 187.37 102.31 187.37 101.53 180.35 101.53 180.35 102.31 183.01 103.41 183.01 116.64 171.57 101.53 166.39 101.53 166.39 102.31 169.06 103.41 169.06 120.56 166.39 121.66 166.39 122.44 173.42 122.44"/><polygon class="cls-1" points="203.75 112.47 204.82 115.27 205.79 115.27 205.79 108.4 204.82 108.4 203.75 111.22 198.08 111.22 198.08 102.78 204.82 102.78 206.29 106.23 207.33 106.23 207.33 101.53 192.46 101.53 192.46 102.31 195.13 103.41 195.13 120.56 192.46 121.66 192.46 122.44 207.46 122.44 207.92 117.62 206.89 117.62 205.01 121.03 198.08 121.03 198.08 112.47 203.75 112.47"/><path class="cls-2" d="M96.16,139.55h-.48v-6l-2.43,5.88h-.44l-2.43-5.83v5.92H89.9v-6.67h.68l2.47,5.93,2.42-5.93h.69Zm9.3,0H105l-.68-1.76h-3.23l-.66,1.76h-.5l2.53-6.67h.48Zm-1.36-2.22-1.45-3.77-1.42,3.77Zm10,2.22h-.55l-3.87-5.91v5.91h-.49v-6.67h.56l3.87,5.9v-5.9h.48Zm9.3,0h-.5l-.68-1.76H119l-.66,1.76h-.5l2.53-6.67h.48ZM122,137.33l-1.45-3.77-1.42,3.77Zm9.53,2.22h-.37l-.1-1a2.17,2.17,0,0,1-2,1.15,2.54,2.54,0,0,1-1.76-.7,3.82,3.82,0,0,1-.84-2.75,3.74,3.74,0,0,1,.84-2.74,2.57,2.57,0,0,1,1.76-.72,2.21,2.21,0,0,1,2.41,2h-.5a1.52,1.52,0,0,0-.44-1,2.18,2.18,0,0,0-2.84,0,4.43,4.43,0,0,0,0,4.89,1.92,1.92,0,0,0,1.36.52,1.9,1.9,0,0,0,1.34-.52,2.94,2.94,0,0,0,.58-2.09h-2v-.48h2.46Zm8.69,0H136v-6.67h4.27v.47h-3.77v2.45h3.32v.47h-3.32v2.81h3.77Zm10.43,0h-.48v-6l-2.44,5.88h-.43l-2.44-5.83v5.92h-.48v-6.67h.69l2.46,5.93,2.42-5.93h.7Zm8.93,0h-4.27v-6.67h4.27v.47h-3.77v2.45h3.32v.47h-3.32v2.81h3.77Zm9.07,0h-.55l-3.87-5.91v5.91h-.49v-6.67h.56l3.87,5.9v-5.9h.48Zm8.52-6.2h-2.12v6.2h-.49v-6.2h-2.12v-.47h4.73Z"/><polygon class="cls-1" points="96.16 139.55 96.16 132.88 95.47 132.88 93.05 138.81 90.58 132.88 89.9 132.88 89.9 139.55 90.38 139.55 90.38 133.63 92.81 139.46 93.25 139.46 95.68 133.59 95.68 139.55 96.16 139.55"/><path class="cls-1" d="M105.46,139.55l-2.56-6.67h-.48l-2.53,6.67h.5l.66-1.76h3.23l.68,1.76Zm-1.36-2.22h-2.87l1.42-3.77Z"/><polygon class="cls-1" points="114.09 139.55 114.09 132.88 113.61 132.88 113.61 138.78 109.74 132.88 109.18 132.88 109.18 139.55 109.67 139.55 109.67 133.64 113.54 139.55 114.09 139.55"/><path class="cls-1" d="M123.39,139.55l-2.56-6.67h-.48l-2.53,6.67h.5l.66-1.76h3.23l.68,1.76ZM122,137.33h-2.87l1.42-3.77Z"/><path class="cls-1" d="M131.56,139.55V136.1H129.1v.48h2a2.94,2.94,0,0,1-.58,2.09,1.9,1.9,0,0,1-1.34.52,1.92,1.92,0,0,1-1.36-.52,4.43,4.43,0,0,1,0-4.89,2.18,2.18,0,0,1,2.84,0,1.52,1.52,0,0,1,.44,1h.5a2.21,2.21,0,0,0-2.41-2,2.57,2.57,0,0,0-1.76.72,3.75,3.75,0,0,0-.84,2.74,3.82,3.82,0,0,0,.84,2.75,2.54,2.54,0,0,0,1.76.7,2.17,2.17,0,0,0,2-1.15l.1,1Z"/><polygon class="cls-1" points="140.25 139.55 140.25 139.08 136.48 139.08 136.48 136.27 139.8 136.27 139.8 135.8 136.48 135.8 136.48 133.35 140.25 133.35 140.25 132.88 135.98 132.88 135.98 139.55 140.25 139.55"/><polygon class="cls-1" points="150.68 139.55 150.68 132.88 149.98 132.88 147.56 138.81 145.1 132.88 144.41 132.88 144.41 139.55 144.89 139.55 144.89 133.63 147.33 139.46 147.76 139.46 150.2 133.59 150.2 139.55 150.68 139.55"/><polygon class="cls-1" points="159.62 139.55 159.62 139.08 155.84 139.08 155.84 136.27 159.16 136.27 159.16 135.8 155.84 135.8 155.84 133.35 159.62 133.35 159.62 132.88 155.34 132.88 155.34 139.55 159.62 139.55"/><polygon class="cls-1" points="168.68 139.55 168.68 132.88 168.2 132.88 168.2 138.78 164.33 132.88 163.77 132.88 163.77 139.55 164.26 139.55 164.26 133.64 168.13 139.55 168.68 139.55"/><polygon class="cls-1" points="177.21 133.35 177.21 132.88 172.47 132.88 172.47 133.35 174.59 133.35 174.59 139.55 175.08 139.55 175.08 133.35 177.21 133.35"/><path class="cls-3" d="M74.81,77.73c-2.67,1.7-8.43,5-10.88,6.42l-1.28.39c0-.12,8.51-5,11.93-7.17A93,93,0,0,1,90,70l1.84-.1C86.36,71.28,76.91,76.39,74.81,77.73ZM158,70.46l-19,.27c-4.23,0-8,.76-12.86.89-3.62.1-15.69,2.55-24.11,3.88-4.58.72-9.57,1.6-12.36,2.31-1.13.29-2.43.67-3.77,1.11l-3.17.64c2.4-.86,4.85-1.65,6.84-2.16,2.82-.72,7.81-1.6,12.4-2.32,8.41-1.33,20.44-3.79,24.16-3.88,4.23-.12,7.69-.73,11.4-.87-3.74,0-7.13.21-11.39.32-3.63.09-7.58,1.28-10.06,1.66-3.43.51-5.8,1.09-14.14,2.36-4.6.7-7.7.8-12.36,2.09a56.32,56.32,0,0,0-7.73,3L80,80.14a64.62,64.62,0,0,1,9.47-3.79c4.7-1.3,7.83-1.4,12.41-2.1,8.33-1.27,10.68-1.84,14.13-2.36,2.43-.37,6.41-1.57,10.12-1.67,4.25-.11,7.64-.31,11.32-.31.76,0,3,0,3,0l-.8,0c-3.57-.1-6.64-.24-10.21-.24-1.05,0-2.15,0-3.31,0-3.63.1-7.56,1.39-10,1.77-3.43.51-6,1.18-14.35,2.45-4.61.7-7.87.6-12.52,1.89A58.65,58.65,0,0,0,78.6,80.45l-1.5.33a63.61,63.61,0,0,1,12-5.35c4.71-1.31,8-1.2,12.56-1.9,8.33-1.27,10.9-1.94,14.35-2.46,2.43-.36,6.39-1.66,10.1-1.76,1.16,0,2.26,0,3.32,0,3.43,0,6.39.14,9.76.23-4.15-.12-7.41-.69-11.77-.69h-1.3a38.05,38.05,0,0,0-8.42,1.57c-3.41.76-7.64,1.38-16,2.65-4.62.71-7.77.48-12.42,1.77C85,76,79,79.22,75.82,81.07l-1.34.31c2.62-1.62,9.71-5.59,14.75-7,4.71-1.31,7.9-1.08,12.47-1.78,8.33-1.27,12.56-1.89,15.93-2.64a38.22,38.22,0,0,1,8.51-1.58l1.31,0c4.47,0,7.4.49,11.6.6,1,0,1.08,0,0,0-4.4-.12-7.49-1.11-12.1-1.11h-.85c-3.62.1-6.09,1.44-8.84,2-3.35.66-7.14,1.18-15.56,2.23-4.63.58-7.8.35-12.45,1.64-5.21,1.44-12.76,5.89-15,7.3l-1.09.67L71.79,82c.81-.46,1.6-.93,2.32-1.39,2.23-1.42,9.77-5.87,15.07-7.35,4.72-1.31,7.94-1.08,12.52-1.65,8.42-1,12.2-1.57,15.52-2.23,2.67-.52,5.2-1.89,8.92-2H127a51.92,51.92,0,0,1,7.44.68,55.55,55.55,0,0,0-8.31-1.25h-.51c-3.25,0-5.28,1.39-7.58,2.1-3.3,1-7.88,1.09-16.29,2.13-4.63.58-7.8.35-12.45,1.64-5.21,1.44-12.76,5.89-15,7.3-1.31.83-2.86,1.7-4.29,2.46l-1.84.48c1.77-.9,4.09-2.14,5.9-3.3,2.23-1.42,9.77-5.87,15.08-7.35,4.71-1.31,7.93-1.08,12.51-1.65,8.42-1,13-1.13,16.21-2.12,2.21-.67,4.33-2.11,7.71-2.12l.53,0c4.95.24,7.81,1.48,12.06,1.69-3.33-.35-7.13-1.92-12.08-2.14l-.51,0c-3.25,0-5.28,1.39-7.58,2.1-3.3,1-7.88,1.09-16.29,2.14-4.63.57-7.81.34-12.45,1.64-5.22,1.44-12.47,5.56-14.67,7-1.88,1.2-4.89,3-7.24,4.36l-1.61.45c2.41-1.4,6.35-3.72,8.62-5.17s9.48-5.55,14.79-7c4.71-1.3,7.93-1.08,12.51-1.65,8.42-1,13-1.12,16.21-2.11,2.21-.68,4.33-2.12,7.71-2.12h.53c5.17.27,9.1,2,12.38,2.22C139.33,67.83,158,70.46,158,70.46ZM52.35,86.76l-2.51,1a8.56,8.56,0,0,1-1.39.06l3.71-1.54c4.34-1.94,7.22-3.46,9.21-4.2,3.47-1.28,10.63-7.38,18.08-12l.86,0c-7.63,4.63-15,11-18.78,12.41C59.6,83.29,56.7,84.82,52.35,86.76Zm-2.13,1,2.69-1.06c4.27-1.81,7.15-3.24,9.23-4,4.14-1.53,12-8.18,20.72-12.48h1.08C74.87,74.52,66.73,81.47,62.3,83.12c-2,.76-4.92,2.19-9.21,4l-.41.17C51.74,87.51,50.93,87.66,50.22,87.75Zm1.39-1.37-3.37,1.47-.46-.06-3.57,1.29c2.35-1,4.76-2,7.21-3.13,4.43-2,7.28-3.67,9.18-4.37,3-1.09,9.58-6.8,16.31-11.61l.74,0C70.79,74.88,64,80.82,60.76,82,58.94,82.7,56,84.32,51.61,86.38ZM50.87,86c-2.41,1.14-4.83,2.2-7.21,3.27A91.06,91.06,0,0,1,31.53,92.9C25.12,94.07,12.4,96.77,6.39,97l1.49-.56-.3-.09c-3.33-.11-4-.81-4.1-.88l0-.31a6.44,6.44,0,0,1,.8-.82l-1.41.52a5,5,0,0,0-1.68,1.27,2.48,2.48,0,0,0,.48.19,13.13,13.13,0,0,0,3.42.39l1.2.3H5.66a18.56,18.56,0,0,1-4.38-.32,1.65,1.65,0,0,1-.64-.35v-.31a6.44,6.44,0,0,1,.5-.56L0,95.92a3,3,0,0,1,2-2.06c1.65-.45,7.75-2.17,9.18-2.45.33-.06.5.48,1.33.91l-.35.15a3.53,3.53,0,0,0-1,.74,3.11,3.11,0,0,0,.4.19,9.31,9.31,0,0,0,2.29.54l.94-.43a4.39,4.39,0,0,1-1.75-.78L13,92.52a6.28,6.28,0,0,0,1.3.3,7.75,7.75,0,0,0,1.26.36l.54-.26a30.89,30.89,0,0,0,5.32-.63c.76-.14,1.52-.31,2.28-.49h0c.75-.18,1.49-.38,2.22-.58l.07,0c.89-.26,1.77-.53,2.64-.82l-1.8.93,1.95-1C29.89,90,31,89.55,32,89.14q-2,1.11-4.17,2.19c1.6-.77,3.15-1.57,4.65-2.38,1.72-.69,3.31-1.4,4.7-2.08-2.57,1.49-5.32,3-8.23,4.45,3.77-1.82,7.27-3.8,10.56-5.65.76-.43,1.42-.82,2-1.14,1.1-.68,2.2-1.29,3.23-1.93,5-3.12,7.85-5.56,8.94-5.95a30.37,30.37,0,0,0,4.63-4.12l-.94.17c-2.15,2.17-3.73,3.64-4.3,3.85-.77.29-3.81,2.77-8.81,6.08l-1.38.85c.08-.11.1-.18,0-.23L42.66,83,44,82.22c5-3.31,7.91-5.76,8.91-6.12a24.28,24.28,0,0,0,3.67-3.29l-.84.1A20.3,20.3,0,0,1,52.28,76c-.67.23-3.71,2.82-8.78,6.25l-1,.64q-.16-.17-.33-.36l1.06-.68c5.09-3.43,8-5.94,8.89-6.3A18.65,18.65,0,0,0,55,73l-.6,0h-.17a17,17,0,0,1-2.72,2.45c-.56.19-3.63,2.87-8.75,6.42l-.73.48L41.74,82l.75-.49c5.15-3.56,8-6.15,8.85-6.47a15.17,15.17,0,0,0,2.23-2c-.28,0-.48,0-.67,0a14.73,14.73,0,0,1-2.16,1.9c-.46.14-3.54,2.92-8.72,6.59l-.42.28-.26-.39.41-.28c5.21-3.69,8.1-6.36,8.82-6.65A12.07,12.07,0,0,0,52.16,73l-.73,0A8.29,8.29,0,0,1,50,74.36c-.35.1-3.45,3-8.69,6.76L41,80.77c5.32-3.85,8.21-6.6,8.84-6.86a5.73,5.73,0,0,0,.81-.74l-.52.16-.39.08a2.72,2.72,0,0,1-.5.4c-.24.06-3.25,2.91-8.37,6.73l-.24-.42c4.4-3.27,7.06-5.72,8.07-6.5l-.84.16-1.75,1.53c-1.34,1.16-3.22,2.74-5.6,4.56l-.23-.43c2.34-1.79,4.19-3.34,5.51-4.49.46-.39.84-.73,1.17-1l-.2,0-.56.12-.79.71c-1.26,1.13-3,2.64-5.25,4.39l-.22-.44c2.18-1.71,3.91-3.2,5.15-4.31-.08,0-.15.08-.36.16a1,1,0,0,1-.32,0c-1.16,1-2.7,2.39-4.59,3.92-.24-.52-.58-1.3-.72-1.68-.34-.87-.72-1.78-1.05-2.73.4-.3.77-.57,1.12-.81a4.24,4.24,0,0,0-1.17.66s-.5-1.5-.66-2a89.4,89.4,0,0,0,6.09-8.06C46.81,59,50.7,53.23,53.68,49.42c1.9-2.43,3.28-4.08,4.24-4.3-.09-.66-1.3-3.23-1.32-4.79a1.25,1.25,0,0,1,.67-1.27,1.3,1.3,0,0,1,.52-.09c1.31,0,3.25,1.17,5.1,2.34L60.9,40c-2-1.31-4.13-2.61-5.22-2.6a1,1,0,0,0-.34,0c-.24.1-.36.36-.37.83,0,1.6,1.53,4.5,1.55,5.26,0,.08-.07.35-.3.35s-1.38,1-2.57,2.56-2.87,3.92-4.58,6.47C45.65,58,41.74,64.11,38.87,68.32c-.7,1-1.32,1.9-1.86,2.64l-.18-.58c1.29-1.76,3-4.29,4.8-7.07C45,58.14,48.92,52,51.89,48c1.88-2.56,3.21-4.29,4.14-4.57-.13-.68-1.52-3.5-1.53-5.16A1.23,1.23,0,0,1,55.16,37a1.3,1.3,0,0,1,.52-.09c1.09,0,2.65.86,4.23,1.87l-1-.68c-2-1.43-4.29-2.82-5.39-2.81a.72.72,0,0,0-.32,0c-.25.1-.37.36-.38.83,0,1.7,1.76,4.92,1.78,5.65,0,.07-.07.32-.29.32a9.26,9.26,0,0,0-2.49,2.72C50.61,46.57,49,49,47.3,51.67c-3.42,5.4-10.83,17.45-10.83,17.45l-.17-.62c1-1.64,2.27-3.61,3.57-5.74,3.37-5.47,7.28-12,10.23-16.26,1.86-2.69,3.15-4.51,4-4.83-.18-.7-1.75-3.79-1.76-5.54a1.26,1.26,0,0,1,.66-1.27,1.44,1.44,0,0,1,.51-.09,8.38,8.38,0,0,1,3.68,1.58L57,36.17c-2.08-1.53-4.44-3-5.56-3a.69.69,0,0,0-.31.05c-.25.1-.37.36-.37.84,0,1.81,2,5.33,2,6,0,0-.07.3-.28.3a10.85,10.85,0,0,0-2.4,2.87c-1.24,1.85-2.84,4.39-4.55,7.24C42.3,55.87,38.63,62.32,35.9,67l-.17-.67,2.38-4.1C41.46,56.43,45.37,49.58,48.32,45c1.83-2.82,3.08-4.72,4-5.09-.22-.72-2-4.07-2-5.91a1.26,1.26,0,0,1,.66-1.28,1.23,1.23,0,0,1,.5-.09A7.33,7.33,0,0,1,54.72,34c-2.07-1.55-4.33-3-5.39-3a.68.68,0,0,0-.31.06c-.25.11-.37.37-.38.85a11.19,11.19,0,0,0,1.11,3.68,19.18,19.18,0,0,1,1.14,2.72.38.38,0,0,1-.1.21.23.23,0,0,1-.18.07,1.87,1.87,0,0,0-.36.31A9,9,0,0,0,49.41,40c-.66.92-1.51,2.25-2.47,3.84C45,47,42.61,51.28,40.24,55.57c-1.73,3.13-3.43,6.26-4.92,9l-.16-.71C39.72,55.47,46.05,43.74,49,39.71c.59-.79,1-1.3,1.36-1.48-.13-.35-.61-1.36-1.07-2.41A11.23,11.23,0,0,1,48.17,32a1.26,1.26,0,0,1,.66-1.29,1,1,0,0,1,.5-.09,6.81,6.81,0,0,1,3,1.23c-2-1.53-4.11-2.87-5.11-2.86a.78.78,0,0,0-.3,0c-.26.12-.38.38-.39.86a11.88,11.88,0,0,0,1.22,3.93A22.09,22.09,0,0,1,49,36.63a.4.4,0,0,1-.1.2l-.23.12a1.68,1.68,0,0,0-.27.27,10.54,10.54,0,0,0-.81,1.11c-.65,1-1.49,2.35-2.45,4-1.92,3.34-4.32,7.82-6.68,12.33-1.28,2.44-2.55,4.89-3.72,7.17l-.14-.78c4.39-8.52,9.9-19.15,12.59-23a5.19,5.19,0,0,1,1.29-1.55c-.15-.35-.68-1.42-1.18-2.54a11.91,11.91,0,0,1-1.27-4.12,1.29,1.29,0,0,1,.67-1.29,1.18,1.18,0,0,1,.5-.1,6.17,6.17,0,0,1,2.72,1.09c-1.94-1.48-3.89-2.72-4.84-2.71a.76.76,0,0,0-.29.05c-.26.12-.39.39-.39.88a12.45,12.45,0,0,0,1.34,4.16,26,26,0,0,1,1.38,3,.34.34,0,0,1-.08.2l-.21.11a2.17,2.17,0,0,0-.25.29,12.63,12.63,0,0,0-.8,1.16c-.63,1-1.46,2.47-2.42,4.23-1.91,3.51-4.31,8.2-6.67,12.93-.83,1.65-1.65,3.31-2.45,4.93l-.1-.87.37-.74C38.56,49,43.08,40,45.4,36.41a5.77,5.77,0,0,1,1.22-1.62s-.95-1.93-1.29-2.66a12.5,12.5,0,0,1-1.39-4.36,1.31,1.31,0,0,1,.67-1.31,1.16,1.16,0,0,1,.49-.1,5.77,5.77,0,0,1,2.56,1c-1.89-1.47-3.76-2.65-4.67-2.64a.76.76,0,0,0-.29.05c-.26.12-.39.39-.39.89a12.83,12.83,0,0,0,1.46,4.39,31.71,31.71,0,0,1,1.5,3.11s0,.22-.21.25a3.22,3.22,0,0,0-.28.33A13.39,13.39,0,0,0,44,35c-.62,1-1.43,2.54-2.36,4.35-1.87,3.61-4.25,8.45-6.58,13.34L34,54.9c0-.4,0-.8,0-1.2,3.68-7.76,7.52-15.66,9.56-19a6.21,6.21,0,0,1,1.14-1.64l-.39-.77c-.28-.54-.65-1.25-1-2a13.08,13.08,0,0,1-1.5-4.6,1.3,1.3,0,0,1,.67-1.32,1.16,1.16,0,0,1,.49-.1,5.49,5.49,0,0,1,2.42,1c-1.86-1.46-3.66-2.6-4.53-2.58a.7.7,0,0,0-.28.05c-.27.13-.4.4-.4.9,0,1.69,1.79,5.07,2.67,6.75a4.1,4.1,0,0,1,.53,1.11v.37l-.22-.09A3,3,0,0,0,43,32c-.18.28-.43.69-.73,1.23-.59,1.06-1.38,2.6-2.29,4.45C38.41,40.8,36.52,44.79,34.59,49c.11-.63.23-1.27.36-1.91,3.36-7.22,6.47-13.56,7.61-15.29.15-.17.21-.31.31-.41l-.41-.78c-.31-.56-.71-1.31-1.11-2.13a13.51,13.51,0,0,1-1.63-4.85,1.33,1.33,0,0,1,.67-1.33,1.16,1.16,0,0,1,.49-.1,5,5,0,0,1,2.24.86c-1.81-1.41-3.52-2.5-4.35-2.48a.56.56,0,0,0-.28.05c-.27.13-.4.41-.41.91,0,1.76,1.94,5.35,2.89,7.09a5.14,5.14,0,0,1,.57,1.13v.39l-.2-.1-.19.29c-.17.28-.41.71-.69,1.25-.57,1.1-1.34,2.66-2.23,4.56l-.79,1.69c.46-1.47.91-2.77,1.28-3.83.91-1.87,1.61-3.24,2-3.92.14-.18.18-.31.27-.41l-.45-.82c-.32-.58-.76-1.37-1.19-2.23A14,14,0,0,1,37.6,21.5a1.36,1.36,0,0,1,.68-1.34,1,1,0,0,1,.49-.1c2.29,0,7.81,5.21,10.29,7.58l-.3-.52a8.43,8.43,0,0,1-1.24-3.29c0-1,.61-1.45,1.24-1.43a3.3,3.3,0,0,1,1.86.77c1.12.85,2.89,2.34,4.1,3.17l1.37.91-.62-.89c-.75-1.11-1.77-2.65-2.82-4.45-2.31-4-4.81-9.37-4.81-14C47.84,6.2,49.09,6,49.36,6a.27.27,0,0,1,.22.08l.23.39C49.93,6.76,51,8.77,51,8.77a1.56,1.56,0,0,1,1-.38s.06,0,.17,0,.16.19.33.41L53.68,11a1.61,1.61,0,0,1,.89-.3c.36.1.35.2.52.42a15.85,15.85,0,0,1-.89-4c0-.73-.06-1.36-.06-1.91a7.84,7.84,0,0,1,.43-3.14,1.11,1.11,0,0,1,1.06-.72h.22c.36.11.4.35.68.77s.55,1,.9,1.73L58,5.05a1.21,1.21,0,0,1,1.14-.87h.24c.34.1.41.34.69.74s.54,1,.89,1.67l.56,1.17a1.2,1.2,0,0,1,1-.79c0-.38,0-.75,0-1.12A11.29,11.29,0,0,1,63,1.68c.35-.53.64-1.59,1.44-1.68.46,0,.77.43,1.1,1.23.2.48.45,1.18.74,2a1,1,0,0,1,.64-.36c.46,0,.75.41,1.07,1.19.2.48.46,1.21.76,2.09a1.05,1.05,0,0,1,.65-.39c.4,0,.66.34.93.93-.12-1.48-.2-2.83-.2-3.86A4.2,4.2,0,0,1,70.33,1,.71.71,0,0,1,70.94.6c.66.05,1.12.75,1.61,1.72a13.79,13.79,0,0,1,.77,1.91,9.77,9.77,0,0,1,.58,1A16.28,16.28,0,0,1,74.57,7a5.68,5.68,0,0,1,.67,1.18,12.59,12.59,0,0,1,.59,1.62,4.36,4.36,0,0,1,.76,1.3,13.83,13.83,0,0,1,.52,1.54A3.11,3.11,0,0,1,77.94,14a13.86,13.86,0,0,1,.46,1.52c.43.17.61.68.88,1.41.06.15.11.32.16.49.31.1.52.4.74.93s.51,1.43.83,2.54q.06,1,.06,2.07v.57c0,.85-.15,5.13-.52,8.39-.15,1.31-.45,3.34-.45,3.34s-.56,3.4-.69,4.13l-.09-.78a30.84,30.84,0,0,1-.86,3.64c.08.26.14.5.2.74-.09.32-.18.65-.28,1a8.53,8.53,0,0,0-.19-.89c-.15.42-.31.84-.48,1.22l-.26.46.61.2-.16.45a6.17,6.17,0,0,1-.69-.23l-.2.32.76.28c-.27.76-.56,1.53-.88,2.32-.48.7-1,1.45-1.59,2.23A.66.66,0,0,1,75,51a.86.86,0,0,1-.17,0l-.66.86.8.32.52-.67-.77,1.78-.51.61.22.06-.19.44-.37-.09c-.66.82-1.36,1.66-2.08,2.52,0,.42-.12.84-.62.88-1.06,1.1-2,2.2-3,3.3.68-.41,1.32-.77,1.92-1.07,1.2-1.35,2.36-2.69,3.44-4l-.62,1.47-1.75,2a9,9,0,0,1,1.07-.36l-.22.54a9.8,9.8,0,0,0-1.59.67c-1.17,1.31-2.37,2.64-3.56,3.95.69-.41,1.37-.8,2-1.16L72,59.69l-.49,1.24-1.33,1.45,1-.48-.23.64c-.55.27-1.13.58-1.73.91-1,1.12-2.07,2.23-3.1,3.31l1.85-.94c1-1,1.93-2,2.88-3l-.37,1.09L69.2,65.17l1-.47-.19.63c-.58.28-1.18.58-1.78.89l-2.31,2.37,1.63-.69,2.41-2.43-.27,1-1,1,.79-.33-.14.58-1.57.66L66.2,69.89l1.43-.47,1.68-1.63-.19.85-.43.43.56-.19,1,.18c-5.65,5.25-11.06,10.23-13,11-1.4.52-4.31,2.56-9,5-3.92,2.07-8,4.12-12.27,6.07,4.48-2,8.93-4.11,13.22-6.3,4.63-2.36,7.48-4.3,9.1-4.9,2-.72,7.42-5.63,13.07-10.68l.61.1c-5.74,5.14-11.35,10.23-13.51,11C56.94,81,54,82.89,49.4,85.26c-3.48,1.77-7.07,3.5-10.7,5.16,3.74-1.65,7.51-3.4,11.23-5.22,4.56-2.23,7.41-4.08,9.12-4.72,2.24-.82,8-6,14-11l.63.1c-6,5.08-12,10.41-14.41,11.32-1.62.6-4.51,2.46-9.08,4.7-3.39,1.66-6.82,3.25-10.23,4.78,3.52-1.52,7.13-3.13,10.76-4.83C55.17,83.46,58,81.7,59.83,81c2.56-.94,8.73-6.34,15-11.27l.68.07c-6.36,5-12.72,10.6-15.51,11.65C58.27,82.12,55.39,83.89,50.87,86ZM34.31,90.87c4.69-2.17,9.2-4.49,13.38-6.79,4.76-2.6,7.61-4.71,9.05-5.24s5.45-4.21,10.09-8.65l-1.39.45c-4.3,4.21-8,7.62-9.3,8.1s-4.13,2.66-9,5.39C43.23,86.38,38.88,88.67,34.31,90.87Zm12.14-7.12c-4.21,2.47-8.92,5-14,7.46,5.16-2.39,10-5,14.47-7.5,4.82-2.73,7.67-4.92,9-5.42,1.08-.4,4.45-3.44,8.45-7.34l-1.25.38c-3.7,3.67-6.76,6.47-7.8,6.86S51.33,80.89,46.45,83.75Zm-.74-.37c-4.27,2.58-9.17,5.33-14.47,7.9,5.42-2.54,10.47-5.31,15-7.94,4.88-2.85,7.73-5.13,9-5.59.86-.32,3.6-2.79,7-6.15l-1.14.31c-3.15,3.14-5.63,5.42-6.48,5.74S50.65,80.39,45.71,83.38ZM30.09,91.31C35.74,88.62,40.94,85.7,45.46,83c4.95-3,7.8-5.34,9-5.77C55.1,77,57.3,75,60.16,72.13l-1,.24c-2.61,2.63-4.59,4.46-5.31,4.73S50,79.89,45,83A170,170,0,0,1,30.09,91.31ZM12.21,94.7l.89-.4a4.94,4.94,0,0,1-2.42-.88V93.1a5.68,5.68,0,0,1,.6-.6c-.44.17-.94.37-1.35.55a3.78,3.78,0,0,0-1.11.86,3.23,3.23,0,0,0,.42.18,10.2,10.2,0,0,0,2.77.54Zm-1.8.76,1-.42c-2.42-.28-3.07-.87-3.13-.92l0-.32a7,7,0,0,1,.7-.69c-.43.16-.91.35-1.31.52a4.18,4.18,0,0,0-1.24,1,2.74,2.74,0,0,0,.43.19,11.48,11.48,0,0,0,3,.48Zm-1.79.73,1.1-.44c-3.07-.19-3.78-.87-3.84-.94l0-.31a6,6,0,0,1,.8-.79c-.43.15-.89.33-1.28.5A4.41,4.41,0,0,0,4,95.3a3.42,3.42,0,0,0,.45.18,11.61,11.61,0,0,0,3.17.43ZM48,23.83c0,1.25,1.81,4.16,2.28,4.88l.91.89-.43-.76a8.28,8.28,0,0,1-1.13-3.14v-.18a1.22,1.22,0,0,1,1.24-1.26,2.18,2.18,0,0,1,.43,0l-1-.76a2.8,2.8,0,0,0-1.57-.67c-.43,0-.67.16-.75.86Zm5.49,2.36-1.09-.83a2.78,2.78,0,0,0-1.52-.62c-.43,0-.68.15-.77.84,0,1.15,1.23,3.32,1.83,4.36.22.39.33.48.38.73l1,.84c-.15-.28-.33-.6-.5-1a7.88,7.88,0,0,1-1-3,1.38,1.38,0,0,1,0-.22A1.21,1.21,0,0,1,53,26.12,2.15,2.15,0,0,1,53.49,26.19Zm2.21,1.89c-.45-.34-.88-.65-1.23-.9A2.79,2.79,0,0,0,53,26.6c-.42,0-.67.15-.77.81,0,1.16,1.11,3.19,1.66,4.21a2.25,2.25,0,0,1,.34.73l1.09,1c-.16-.3-.35-.66-.54-1.05a7.59,7.59,0,0,1-.93-2.85,1.1,1.1,0,0,1,0-.26A1.22,1.22,0,0,1,55.11,28,2.09,2.09,0,0,1,55.7,28.08Zm.84.92a2.72,2.72,0,0,0-1.43-.54c-.43,0-.68.15-.78.79a1,1,0,0,0,0,.19,7.82,7.82,0,0,0,.88,2.64A13.53,13.53,0,0,1,56.13,34a6.42,6.42,0,0,0,1.19,1.15c-.15-.31-.35-.71-.55-1.15a7.38,7.38,0,0,1-.83-2.7,2.66,2.66,0,0,1,0-.3,1.23,1.23,0,0,1,1.27-1.17,2.21,2.21,0,0,1,.7.13Zm-3.47-7.33c1.82,3.13,3.54,5.47,4,6.09,0,.1.08.08.11.19a.29.29,0,0,1-.06.27L58.2,29l-.68-1.05c-.7-1.07-1.64-2.53-2.59-4.24-2.14-3.85-4.45-8.92-4.46-13.36V10a1.84,1.84,0,0,1,.18-.84c-.86-1.6-1.24-2.38-1.38-2.65-.28,0-1,.12-1,1.22C48.27,12.37,50.77,17.67,53.07,21.67ZM51,10v.27c0,4.27,2.27,9.31,4.39,13.13C56.76,26,58.17,28,58.75,28.92c.21.34.31.42.35.67a.27.27,0,0,1-.12.22c.5.32,1,.6,1.31.81l-.72-1.18c-.63-1-1.51-2.41-2.38-4-1.8-3.37-3.73-7.73-4-11.7-.92-1.62-1.63-2.91-2.18-3.92Zm1-1.16a.92.92,0,0,0-.71.32c.47.89,1.1,2,1.89,3.43V12.3a1.78,1.78,0,0,1,.23-.89C52.44,9.82,52.05,9.08,51.92,8.87Zm1.67,3.45v.39c0,.28,0,.57.05.85,1,1.74,1.71,3.06,2.37,4.19a16.33,16.33,0,0,1-.24-2.18c-.88-1.49-1.58-2.7-2.12-3.64A1.48,1.48,0,0,0,53.59,12.32Zm1-1.11a1.11,1.11,0,0,0-.64.23c.47.83,1.08,1.87,1.84,3.17a1.6,1.6,0,0,1,.27-.95C55.07,12,54.68,11.37,54.55,11.21Zm.13-4.09a21.9,21.9,0,0,0,1.71,6.19,1.54,1.54,0,0,1,.78-.24c.5.15.59.49,1.31,1.54l.62,1A21.59,21.59,0,0,1,57.66,9.7c0-.59,0-1.12,0-1.59a12.76,12.76,0,0,1,.17-2.36,26.07,26.07,0,0,0-2-3.89c-.52,0-1.13.09-1.14,3.38C54.62,5.78,54.64,6.4,54.68,7.12Zm3.49-.56c0,.42-.07.93-.08,1.55,0,.46,0,1,0,1.58a19.87,19.87,0,0,0,1.44,5.74.66.66,0,0,1,.19,0c.51.13.66.48,1.39,1.49l.65,1a1.36,1.36,0,0,1,.55-.12,22.94,22.94,0,0,1-1.18-4.49S58.65,7.61,58.17,6.56Zm1-1.91c-.27,0-.62.06-.84,1,.52,1.11,2.81,6.23,2.81,6.23,0-.33,0-.65,0-.94a12.19,12.19,0,0,1,.21-2.56,21.85,21.85,0,0,0-2-3.77ZM61.66,9.2c0,.46-.09,1.05-.1,1.79,0,.38,0,.79,0,1.28a7.59,7.59,0,0,0,.06.87c1.22,2.75,2.37,5.34,3.17,7h.29a1,1,0,0,1,.31.16L65.34,20c-.88-2.7-1.78-5.64-2.27-7.76C62.59,11.19,62.11,10.15,61.66,9.2Zm.85-1.74c-.24,0-.51.17-.7.92l.9,1.94C62.61,9.38,62.55,8.4,62.51,7.46Zm2.16,8.84c0-.22,0-.42-.06-.62l-.34-.76Zm-.11-2.42a11.42,11.42,0,0,1,.25-2.77A34,34,0,0,0,63,7.69c0,.88.1,1.78.19,2.65a15.14,15.14,0,0,0,.34,1.77l1,2.32Zm-1.19-12A12,12,0,0,0,63,5.86c0,.38,0,.77,0,1.17.26.11.36.33.61.68s.54.93.88,1.6L65,10.49a1.74,1.74,0,0,1,.13-.2c0-.84-.09-1.67-.09-2.41a8.65,8.65,0,0,1,.4-3.36c.14-.21.27-.5.42-.77-.34-1-.64-1.8-.85-2.34-.31-.78-.6-1-.66-.93S63.67,1.31,63.37,1.92ZM66.1,4.36l-.2.39a9,9,0,0,0-.34,3.13c0,.62,0,1.3.06,2a1.14,1.14,0,0,1,.51-.12l.27,0c.46.14.77.76,1.32,1.77,0-.53,0-1,0-1.51V9.58C67.13,7.59,66.58,5.8,66.1,4.36Zm.77-1c-.09,0-.26.16-.45.45.41,1.21.88,2.69,1.37,4.36A2.51,2.51,0,0,1,68,7.35c.11-.18.22-.42.35-.66-.35-1-.66-1.88-.88-2.42C67.19,3.51,66.93,3.35,66.87,3.37Zm1.7,3.94-.14.28a5.11,5.11,0,0,0-.27,1.91c.28,1,.57,2.12.84,3.24a1.11,1.11,0,0,1,.63-.17h.29a1,1,0,0,1,.23.15C69.6,10.66,69.05,8.8,68.57,7.31Zm.78-1c-.08,0-.27.18-.46.49.42,1.28.91,2.87,1.4,4.65a3.23,3.23,0,0,1,.26-1.23l-.12-1.73c-.19-.54-.36-1-.49-1.33C69.65,6.4,69.4,6.25,69.35,6.27Zm1.38-5a4.78,4.78,0,0,0-.17,1.63c0,1.38.15,3.39.34,5.49l.26.76a1,1,0,0,1,.68-.42c-.09-1.36-.18-2.57-.18-3.44a3.23,3.23,0,0,1,.18-1.32.67.67,0,0,1,.57-.36.58.58,0,0,1,.18,0c-.15-.39-.31-.75-.47-1.07-.45-.94-1-1.52-1.18-1.46S70.83,1.09,70.73,1.23ZM72.9,4.48c-.23-.3-.42-.47-.49-.43a1.76,1.76,0,0,0-.27,1.2c0,.91.1,2.24.24,3.73a2.94,2.94,0,0,1,.46.81c.2.49.45,1.22.74,2.12-.2-1.72-.35-3.25-.35-4.15a2.11,2.11,0,0,1,.11-.86V6C73.2,5.46,73.06,5,72.9,4.48Zm1.33,7.13c-.18-1.25-.36-2.38-.51-3.31,0,.85.16,2,.32,3.38Zm-.09-4.38c.06,1,.32,2.62.59,4.54a.91.91,0,0,1,.17.17c0-.35-.06-.68-.09-1-.1-1-.22-1.78-.25-2.24S74.29,7.72,74.14,7.23Zm1.1,2.3c-.06-.18-.12-.38-.18-.55l.06.59Zm.19,7-.21-2.08-.13-1-.2-.52c.18,1.37.36,2.86.51,4.4C75.4,17,75.41,16.74,75.43,16.53Zm-.15-6.48a1.51,1.51,0,0,0,0,.31c0,.15,0,.34,0,.55l.31,2.57c.12.33.25.72.39,1.16-.12-1.41-.2-2.5-.2-3.11s-.24-1-.38-1.5Zm1,8-.09-1.1L76,16.24Zm.34-5.47c-.11-.35-.22-.69-.34-1,0,.32,0,.8.07,1.4A.68.68,0,0,1,76.59,12.55ZM77,14.29c-.06-.31-.13-.62-.2-.92,0,.28.07.68.14,1.15Zm0,3.91c-.14-1.09-.31-2.14-.44-3l.07,1.65C76.76,17.26,76.88,17.73,77,18.2ZM77.18,21l-.36-1.52.12,1.84.28.58Zm.11,3.4,0-1.3L77,22.53l.15.84c0,.28.07.58.1.89Zm.1,9.75-.08.64.3.33.07-.57Zm.09-19.87c0,.24,0,.47,0,.73a3,3,0,0,1,.28.54l.12.3a5.55,5.55,0,0,0-.39-1.69Zm.62,4.57,0-.63c-.24-.81-.47-1.5-.65-2,0,.61,0,1.31.08,2.1l.08.49a4.68,4.68,0,0,1,.35.52A1.62,1.62,0,0,1,78.1,18.8Zm.16,14.6-.07.84.07.24.22.29.09-.9Zm.09-.88.1.29.19.3-.22-.5Zm.12-2,0,.94.26.56.1-.78C78.68,31,78.59,30.79,78.47,30.53Zm.06-1.91,0,.87.33.69V30l-.06-.35c-.06-.3-.12-.61-.18-.9Zm0-8.61v0Zm.16-3c0,.26-.07.51-.09.8a1.15,1.15,0,0,1,.34-.32,9.39,9.39,0,0,0-.33-.92Zm.4,1a.85.85,0,0,0-.14.17c-.07.11-.14.24-.21.37l0,.27c.16.56.32,1.18.49,1.83a7,7,0,0,1,.16-.82A13,13,0,0,0,79.11,18Zm.41,6.67,0,.78L80,26.54Zm.16-3.11,0,.47.1.43.65,1.31-.47-2.32A.64.64,0,0,0,79.68,21.57Zm.08-.81,0,.26Zm.67.22a11.06,11.06,0,0,0-.51-1.69L80.3,21ZM67.89,69.84c-4.92,4.74-9.4,8.86-11,9.45-1.3.49-4.22,2.6-9,5.21-3.42,1.88-7.08,3.76-10.86,5.6,3.75-1.77,7.43-3.61,10.94-5.46,4.69-2.48,7.55-4.51,9.08-5.07s6.68-5.16,12-10.12ZM65,69.48l-1.12,1.13,1.29-.4,1.41-1.39Zm-1.72.18,1.45-.59,2.13-2.17-1.82.94Zm-.83.85-.71.72,1.16-.32,1-1Zm-1.6.09,1.32-.5,1.54-1.59-1.64.83Zm-.75.77-.35.36,1.05-.25.55-.56C60.94,71.08,60.53,71.23,60.11,71.37Zm-1.44,0L59.85,71l1-1-1.47.68Zm-.7.72a5.73,5.73,0,0,0,.92-.14l.21-.21Zm-1-.43-.27.29,1-.28.51-.53C57.79,71.31,57.37,71.48,57,71.64ZM55.9,72l-.62.22.51-.1Zm-.38-.37,1.15-.42,1-1c-.51.27-1,.53-1.49.77Zm-1-.44c.44-.19.89-.4,1.34-.63l1.76-1.88c-.62.41-1.24.8-1.86,1.18Zm-.81.87a1.6,1.6,0,0,0,.83-.12l.4-.41C54.53,71.75,54.12,71.93,53.72,72.09Zm-.9-.51-.48.5c.36-.11.73-.25,1.1-.39l.87-.92C53.8,71.06,53.31,71.33,52.82,71.58Zm-1.2.57-.54.24.2,0Zm-.38-.34c.41-.18.84-.38,1.27-.6.38-.4,1.67-1.81,1.67-1.81-.66.47-1.31.91-1.93,1.32Zm-.88-.5c.51-.29,1-.62,1.6-1,0,0,2.45-2.73,3.26-3.65-.95.82-1.89,1.61-2.8,2.34C51.64,69.9,50.94,70.67,50.36,71.31Zm-1,1a1.69,1.69,0,0,0,.8-.13l.56-.58C50.28,71.91,49.82,72.15,49.39,72.35Zm-1.3,0a4.52,4.52,0,0,0,1-.38l1.24-1.34c-.62.46-1.22.86-1.79,1.21Zm-1.18-.16a11,11,0,0,0,1.35-.73l3.9-4.4c-1.14,1.07-2.25,2.08-3.29,3-.93,1.06-1.58,1.77-1.81,2Zm-3.73,1.18A5,5,0,0,0,42,74l.83-.37Zm-.81-.72a2.48,2.48,0,0,1,.82-.28c2.48-1.29,6.74-5.72,10.83-10.09,1.86-1.94,3.67-3.88,5.31-5.54,0,0,3.13-4,4.54-5.88l-.24-.07c-1.44,0-6.31,5.45-11,10.94-3.93,4.51-7.8,9-10.28,10.79Zm-1.19,0c2-.89,6.64-6.1,11.07-11.24,4.8-5.48,9.32-10.88,11.34-11.1,0-.6-.67-2.38-.68-3.62a1.28,1.28,0,0,1,.69-1.32,1.73,1.73,0,0,1,.56-.08,8.12,8.12,0,0,1,3,1l.17-.24c-1.93-1.11-4.11-2.35-5.34-2.35a1.67,1.67,0,0,0-.38.05c-.25.1-.37.37-.37.85,0,1.24.88,3.25.89,4a.64.64,0,0,1-.13.36v.18L61.76,49c-1.33,0-6.23,5.88-10.92,11.8-3.84,4.76-7.6,9.54-10,11.51.2,0,.33.12.33.26Zm-2.87,1.78.89-.48,1.12-.76-.38.12C39.48,73.58,38.9,74,38.31,74.42Zm24.24-40.6c-.68-.44-1.35-.86-1.88-1.18a2.69,2.69,0,0,0-1.32-.46c-.43,0-.68.15-.81.75a1.84,1.84,0,0,0,0,.26c0,1.27,1.38,3.59,1.42,4.14a.29.29,0,0,1-.15.26,15.15,15.15,0,0,0,1.49,1.11,12.12,12.12,0,0,1-1.14-3.63,1.59,1.59,0,0,1,0-.4,1.24,1.24,0,0,1,1.29-1.11A2.63,2.63,0,0,1,62.55,33.82ZM56.33,19.25c-.73-1.21-1.55-2.65-2.57-4.48a34.22,34.22,0,0,0,3.86,10.41c.86,1.6,1.73,3,2.36,4a8,8,0,0,1,1.07,1.95.25.25,0,0,1-.14.24c.55.37,1.08.69,1.44.89-.44-.82-1.68-2.78-2.89-5.12A39.55,39.55,0,0,1,56.33,19.25Zm2-.28c-.73-1.54-1.45-3.14-2.1-4.71a1.67,1.67,0,0,0,0,.34c0,.17,0,.35,0,.53s0,.2,0,.3,1.68,3,2.28,4l0-.24ZM56.63,13.7c.46.78,1,1.74,1.78,2.95a1.52,1.52,0,0,1,.31-.76,25.27,25.27,0,0,0-1.55-2.34A1.13,1.13,0,0,0,56.63,13.7Zm1.75,4.16c0-.11,0-.21,0-.32l-.64-1.11Zm.89,4.89c-.2-.68-.39-1.36-.53-2-.7-1.15-1.49-2.51-2.45-4.21a18.29,18.29,0,0,0,.49,2.56A38.11,38.11,0,0,0,59.27,22.75Zm.88-4.62L59,16.32a1.22,1.22,0,0,0-.14.57c0,.15,0,.31,0,.47,0,0,1.66,2.85,2.21,3.76,0-.36-.06-.73-.06-1.09C60.71,19.4,60.42,18.77,60.15,18.13Zm1.44,6c-.15-.6-.28-1.2-.38-1.79-.67-1.1-1.42-2.39-2.33-4,0,.23,0,.45,0,.67.88,1.81,1.74,3.49,2.42,4.8Zm2.06-2.64-2-2.92a1.17,1.17,0,0,0-.2.63l.47.89c.62,1.08,1.17,2,1.68,2.85,0-.18,0-.36,0-.54A9.1,9.1,0,0,1,63.65,21.47Zm-1.23-3.23a1.86,1.86,0,0,0-.33,0l1,1.58c-.2-.5-.38-1-.56-1.49Zm1.43,1L62.09,15.3c.23.88.55,1.84.91,2.82C63.2,18.34,63.45,18.69,63.85,19.21ZM64,20.57l-.38-.9Zm.42,2.27-.28-.67v.21a9.9,9.9,0,0,0,.09,1.43c.76,1.23,1.41,2.21,2,3C65.66,25.68,65,24.29,64.38,22.84Zm.8-.93-.79-1.12a.83.83,0,0,0-.2.35l.3.74.21.31c.57,1,1.07,1.8,1.53,2.55,0-.23,0-.46,0-.7Zm1,.54-.37-1.11a3.6,3.6,0,0,0-.72-.76l.54,1.09Zm.14,3.42L66,25.34Zm1.43-3.42c-.61-1.25-1.45-3.08-2.36-5.12a37.38,37.38,0,0,0,1.38,4.44l.54.71a1,1,0,0,1,.32,0Zm1.74,1.65a23.12,23.12,0,0,1-1.42-6L66.1,13.84c.45,1.95,1.45,5.09,2.44,8,.24.71.48,1.4.72,2.06Zm-.87-10.88c-.11-.61-.25-1.19-.39-1.73,0,.36.06.75.09,1.13Zm.56,2.24-.48-1c0,.2-.06.43-.08.69a43.87,43.87,0,0,0,1.61,5.49l-.55-2.81C69.48,17,69.31,16.25,69.14,15.46Zm1.75-1.77-.14-2.06c0,.22,0,.46,0,.72s0,.53,0,.81Zm.42,6.47-1.26-2.74s.93,4.81,1.15,6C71.25,22.47,71.29,21.32,71.31,20.16Zm0-2.65-.17-.79c0,.35.11.71.18,1.05ZM72.64,16a1.22,1.22,0,0,0-.28.42l.55,1.11-.11-.86Zm.44-3a3.14,3.14,0,0,0,.22-.41c-.3-.95-.57-1.74-.78-2.31.12,1.1.25,2.23.38,3.32A1.77,1.77,0,0,1,73.08,13Zm.36,17.37c-.06-.1-.12-.23-.2-.39l-.11-.24-.57-.93-.5-.64a6.36,6.36,0,0,0-.11,1c.8,1.22,1.47,2.17,2.11,3a9,9,0,0,1,0-1l-.41-.62C73.46,30.54,73.52,30.47,73.44,30.39ZM74.12,16,74,14.82c-.16-.56-.32-1.07-.47-1.56a3.86,3.86,0,0,0-.18,1.5v.62A1.25,1.25,0,0,1,74.12,16Zm.31-1.28L74.78,16c-.15-1.39-.32-2.71-.49-3.93a.45.45,0,0,0-.19.16C74.2,13,74.31,13.87,74.43,14.71ZM74,19.79l1,2.07c0-.24,0-.5-.06-.72-.12-.9-.35-2.34-.59-4a5.59,5.59,0,0,0-.9-1.31A16.1,16.1,0,0,0,73.57,18C73.71,18.55,73.84,19.16,74,19.79Zm.76,4.06.32,1.74v-.45c0-.26-.07-.5-.1-.73ZM75,31.39c0-.24.07-.5.1-.74l-.28-.36a.93.93,0,0,0-.1.32Zm1-2.58-.16-.57v.29l.17.37Zm-.11-5.06.13.28,0-.69-.14-.76C75.8,23,75.8,23.36,75.81,23.75Zm0,1.64.12.31v-.47L75.84,25Zm.48,7.15-.24-.35c0,.29-.09.59-.14.88l.27.36Zm-.52,1.26c.06.2.11.37.15.52l.15-.25-.28-.37Zm.85,1.92-.32-.32A12.28,12.28,0,0,1,76,36.88c-.12.35-.27.71-.43,1.08l.24,1,.18-.43A18.8,18.8,0,0,0,76.66,35.72Zm-.23-7.62,0,.63.16.52,0-.79Zm.18-.81-.15-.9v.5Zm0,7.43-.2.12.21.21Zm0-.72c0-.27,0-.53.09-.8a3.92,3.92,0,0,0-.15.73Zm.59,5.24c-.13.47-.28.93-.44,1.35-.09.22-.22.46-.33.68.12.39.22.75.29,1.07a15.54,15.54,0,0,0,.69-2Zm.14-2.82-.17-.15.09.6Zm.09-.56,0-.18-.3-.33,0,.21Zm.19,5.45q-.19.6-.42,1.14l-.4.74a.77.77,0,0,1-.35.65l-.26.44.35.12.39.18.28-.49A16.24,16.24,0,0,0,78,42.26Zm.15-4.57c-.09.49-.18,1-.29,1.42l.21,1.08c.17-.74.32-1.51.45-2.32A1.33,1.33,0,0,1,77.84,36.74Zm0-3.91-.19-.23.17.51Zm0-1.58L77.68,31Zm0-2.21,0,.9.26.59,0-1Zm.5,7.38-.32-.31a.88.88,0,0,0,.32.33ZM77.79,28l.27.56v-1l-.28-.67Zm.26,7.4,0,.18Zm1,1.83-.37-.38A31.09,31.09,0,0,1,78,40.34l.11.63.13.44A35.43,35.43,0,0,0,79.07,37.23Zm.11-.83L78.82,36l0,.29.37.37ZM79.07,24l.05-1.23a5.58,5.58,0,0,0-.14.84Zm.19,11.73.09-.74L79,34.49l-.1.81Zm.52-5.49.12-1.57-.47-1-.07,1.62Zm.46-5.44,0-.21-.12-.25ZM65.1,66.14l-2,2.16,1.7-.86c1-1,2-2.1,3-3.18L65.69,65.5Zm-2.87,1.45-1.95,2.08,1.54-.75c.77-.81,1.57-1.65,2.38-2.52ZM59,69.46,57.76,70.8c.44-.19.89-.38,1.34-.59l1.68-1.76Zm.27-1.86c-.75.82-1.46,1.6-2.14,2.33.53-.28,1.06-.57,1.6-.88.86-.92,1.78-1.91,2.72-3C60.74,66.6,60,67.11,59.29,67.6Zm1.32-3.11c-1.26,1.44-2.47,2.8-3.59,4,.66-.43,1.33-.88,2-1.34,1.27-1.4,4.19-4.73,4.19-4.73C62.37,63.1,61.49,63.79,60.61,64.49ZM56.09,68c-.71.8-2.27,2.5-2.27,2.5q.81-.47,1.65-1c1-1,2-2.17,3.08-3.4C57.73,66.75,56.9,67.38,56.09,68Zm1.69-3.54c-1.52,1.77-2.94,3.38-4.16,4.75.69-.49,1.41-1,2.14-1.56,1.58-1.76,3.35-3.8,5.19-6C60,62.55,57.78,64.46,57.78,64.46Zm4.16-6.7c-2.66,3.3-5.3,6.43-7.53,9,1-.85,2-1.74,3-2.63,1.23-1.44,5.9-7.08,6.93-8.37C63.65,56.29,62.83,57,61.94,57.76Zm-6.37,6c-2.27,2.69-4.26,5-5.67,6.55.7-.51,1.44-1.07,2.2-1.68,2.11-2.38,4.7-5.38,7.42-8.68C58.28,61.14,55.57,63.79,55.57,63.79Zm7.14-9.57c-.9.77-1.93,1.74-3,2.85-3.07,3.87-6,7.42-8.34,10.1,1.27-1.18,2.59-2.44,3.89-3.71,1.55-1.84,3.22-3.87,4.93-6C61,56.41,61.86,55.32,62.71,54.22Zm2.43-4.28c-1.1,1.49-2.23,3-3.37,4.45a17.45,17.45,0,0,1,2.09-1.65l1.45-1.93C65.25,50.53,65.19,50.24,65.14,49.94Zm.36-1.31.55-.76-.18,0C65.65,48,65.53,48.23,65.5,48.63Zm1.85-.6a5.33,5.33,0,0,0-.71-.15l-1.1,1.52c0,.29.09.59.16.9C66.26,49.54,66.81,48.78,67.35,48Zm.63-.87-.61-.31-.43.6c.22,0,.46.1.7.18Zm-.18-.92-.15.21.62.31.12-.18ZM59.7,24a31.6,31.6,0,0,1-2.43-3.27,44.32,44.32,0,0,0,2.62,6.18C61.46,30,63,32.08,63,32.68a.27.27,0,0,1-.15.26,11.69,11.69,0,0,0,1.53,1c-.33-.74-1.51-2.67-2.66-5A47.29,47.29,0,0,1,59.7,24Zm2.09,1.63L61,24.07c-.45-.6-.91-1.27-1.4-2,.16.59.35,1.17.56,1.75l.25.29C61,24.79,61.45,25.29,61.79,25.65ZM62,21c.67,1.46,1.34,2.81,1.9,3.95-.06-.34-.11-.68-.15-1C63.2,23.13,62.63,22.18,62,21Zm.88,3-1.32-2.77c0,.3.09.61.14.91C62.1,22.85,62.49,23.46,62.85,24Zm1.53,3.07-.29-.58a31.27,31.27,0,0,1-2.15-3c.13.54.27,1.08.44,1.62l.62.73c.66.74,1.12,1.25,1.47,1.59Zm2.43,1.76-.15-.65a32.3,32.3,0,0,1-2.3-3.2c.1.5.22,1,.35,1.5q.45.54.93,1.08Zm.74-2.37-.84-1.59c0,.23,0,.46,0,.69.85,1.34,1.54,2.35,2.21,3.22l-.06-.52-1-2.25.08.27a1.9,1.9,0,0,1,.18.46l-.11.25c-.21,0-.22,0-.23,0l-.19-.27-.08-.18Zm.73,2.85.92,1-.11-.58a34.28,34.28,0,0,1-2.23-3.09c0,.23.07.46.11.7l.51,1.08C67.74,28.73,68,29,68.28,29.32Zm-1.84,7.3L66,36.39c.88.5,1.85,1.09,2.62,1.44a15.27,15.27,0,0,0,1.76.88,27.33,27.33,0,0,0-1.87-4.59c-.48-1.33-1-2.83-1.48-4.37-.36-.33-.9-.88-1.75-1.84a1.71,1.71,0,0,1,.14.43.28.28,0,0,1-.11.21c.43,1.28.92,2.52,1.37,3.64,1.14,2.47,2.17,4.29,2.2,5.05a.41.41,0,0,1-.21.39A6.79,6.79,0,0,1,66.44,36.62Zm-2-6.18c1.23,2.69,2.46,4.57,2.5,5.29a.37.37,0,0,1-.19.34,1,1,0,0,1-.5-.1l.42.22a16.31,16.31,0,0,0,1.75.93,46.26,46.26,0,0,0-2.15-4.74c-.49-1.23-1-2.61-1.5-4a21.89,21.89,0,0,1-2-2.07C63.29,27.74,63.86,29.18,64.44,30.44Zm-2.28-1.76c1.4,2.89,2.76,4.87,2.81,5.53a.3.3,0,0,1-.17.3.41.41,0,0,1-.23,0c.81.49,1.49.86,1.85,1-.23-.67-1.34-2.56-2.42-4.88-.52-1.14-1-2.42-1.52-3.75A8.55,8.55,0,0,1,60.59,25C61.09,26.33,61.62,27.57,62.16,28.68Zm7.24,2.51c-.33-.32-.76-.77-1.37-1.44a.75.75,0,0,1,.06.24.27.27,0,0,1-.25.27A28.91,28.91,0,0,0,69,34c1,2.26,1.89,4,1.91,4.78a.48.48,0,0,1-.3.48,7,7,0,0,1-2.15-1c-1.13-.51-2.61-1.49-3.63-2a2.56,2.56,0,0,0-1.22-.39c-.44,0-.7.15-.84.72a1.78,1.78,0,0,0,0,.35c0,1.16,1,3.07,1,3.67a.33.33,0,0,1-.21.31,1,1,0,0,1-.46-.07,14.58,14.58,0,0,0,2.08,1.26,15.07,15.07,0,0,1-.85-3.27,1.75,1.75,0,0,1,.08-.54,1.27,1.27,0,0,1,1.31-1,3.1,3.1,0,0,1,1.38.4c1,.46,2.48,1.35,3.56,1.81l.73.38L72,38.79c-.29-.79-.72-1.8-1.19-2.93C70.36,34.45,69.81,32.84,69.4,31.19Zm.4-4.49-.41-.56a9.84,9.84,0,0,0-.07,1.1,27.38,27.38,0,0,0,2.17,3.23c0-.27,0-.53,0-.79v-.32L71,28.71a.32.32,0,0,1-.2.11c-.23-.08-.19-.12-.23-.15l-.25-.53C70.22,27.8,70,27.31,69.8,26.7Zm.68.2L70,25.48l.24.93ZM70,30.73l-.23-.26.12.48.3.27Zm1.61-2.43a1.45,1.45,0,0,1,.15-.56l-.76-1Zm0,3a32.36,32.36,0,0,1-2-2.74c.32.73.6,1.36.8,1.87l1.28,1.37Zm1.36,5.73c-.38-1.36-.84-2.88-1.14-4.41-.29-.28-.63-.63-1.07-1.1,0,.12,0,.37-.25.38a1,1,0,0,1-.43-.21c.37,1.39.83,2.75,1.22,4,.39,1,.76,1.81,1,2.54C72.53,37.84,72.73,37.45,72.93,37.07ZM72,31.14l.3.35L72,30.61C72,30.79,72,31,72,31.14Zm.75,1.56c-.21-.22-.42-.45-.62-.68l.07.41a7.32,7.32,0,0,0,.64.55Zm.78.12.57.6,0-.42c-.43-.52-.87-1.09-1.35-1.75.18.45.33.85.44,1.17Zm1.08.09.13-.63-.23-.36v.21c0,.22,0,.45,0,.68Zm.37,5-.24-1c-.24.53-.51,1.09-.81,1.67l.32.85C74.55,38.9,74.8,38.4,75,37.92Zm0-3-.24-.21.11.58Zm-.26-.87a3.91,3.91,0,0,0,.4.36l0-.17-.37-.39Zm0,6.94c.25-.47.48-.91.68-1.33l-.11-.33-.16-.66c-.2.43-.44.89-.69,1.36C74.62,40.39,74.71,40.71,74.78,41Zm.27,2c.35-.6.67-1.17.94-1.71l-.31-.94c-.25.48-.52,1-.82,1.53a.67.67,0,0,1-.24.41l-.24.41.24.1Zm.44.19a4.81,4.81,0,0,0,.73.26l.18-.33a5.09,5.09,0,0,0-.21-1.17C76,42.3,75.74,42.72,75.49,43.15Zm1.07,2.19.21-.35-.33-.14L76,44.7l-.23.37Zm1,.87-.79-.29-.42.64a3,3,0,0,1,.9.14Zm-13,18.88-1.1,1.2,2-1.2c1.25-1.35,2.51-2.74,3.75-4.12-.66.38-1.37.83-2.12,1.32C66.2,63.23,65.36,64.17,64.52,65.09Zm-1.34-.18c-1,1.17-2.07,2.29-3,3.35L62,67.17l3.48-3.83ZM65,61.08s-3.46,4-4.33,5l2.21-1.53s3.15-3.57,4.37-5C66.58,60,65.83,60.5,65,61.08Zm2-4.15c-1.57,1.93-3.19,3.85-4.77,5.69.86-.67,1.69-1.31,2.48-1.9,1.31-1.52,2.61-3.07,3.86-4.6A7.88,7.88,0,0,0,67,56.93Zm-3.88,2.92c-1.86,2.23-3.7,4.37-5.39,6.29l2.54-2c.72-.81,4.27-5,5.32-6.25C64.82,58.47,64,59.12,63.12,59.85Zm2.57-5c-1.92,2.44-3.9,4.86-5.8,7.12,1-.88,2-1.72,2.9-2.49,1.38-1.67,2.77-3.38,4.12-5.08A3,3,0,0,0,65.69,54.87Zm2.8-6.43a6.62,6.62,0,0,0-.65-.25c-.65.9-1.33,1.82-2,2.73a6.48,6.48,0,0,1,.14.92l.72-.94a1.18,1.18,0,0,1,.7-1.16,1,1,0,0,1,.17,0Zm.53-.73-.61-.33-.29.41c.22.07.44.16.66.25Zm-.86-2,.51.47.16-.23A3.05,3.05,0,0,1,68.16,45.71Zm3.7-4.41L71.24,41l-.15.24c.28.1.47.18.65.26Zm.36-.57a4.64,4.64,0,0,1-.66-.26l.56.42Zm.17-.44a2.65,2.65,0,0,0-.18-.91l-.4.68A3.64,3.64,0,0,0,72.39,40.29Zm.55,1.51-.5-.24-.26.14.65.29Zm.5-3.25-.32-.83-.59,1.09a8.49,8.49,0,0,1,.27.9C73,39.32,73.24,38.93,73.44,38.55Zm.79-4.35c-.24-.23-.52-.53-.84-.87a.32.32,0,0,1-.29.28,1.51,1.51,0,0,1-.7-.39c.25,1.1.56,2.2.85,3.22C73.64,35.64,74,34.89,74.23,34.2Zm-1,7.19c.28-.47.54-.93.79-1.38l-.32-.87c-.34.63-.71,1.27-1.11,1.94Zm.43.2a5.34,5.34,0,0,0,.68.26l.09-.2a3.49,3.49,0,0,0-.21-1Zm1,2,.16-.26-.37-.18-.31-.12-.17.28Zm1,3.06.62-1c-.27-.1-.53-.19-.77-.26-.64,1-1.37,2.08-2.17,3.2,0,.21,0,.47-.29.61a1,1,0,0,1-.18,0l-.36.49c.26.12.49.23.72.32.54-.72,1-1.42,1.52-2.1a1.69,1.69,0,0,1,.18-.59A1.35,1.35,0,0,1,75.68,46.7Zm-.42,2.88c.64-.88,1.22-1.7,1.71-2.46a2,2,0,0,0-.58-.08,1.62,1.62,0,0,0-.4.05l-.76,1.12c0,.12,0,.25,0,.39C75.2,48.92,75.23,49.25,75.26,49.58Zm-6.64,9.09c-1.34,1.57-2.71,3.16-4.06,4.69.74-.51,1.47-1,2.18-1.45,1.18-1.34,2.36-2.69,3.5-4A9,9,0,0,0,68.62,58.67Zm2.67-2.08c0-.31,0-.71,0-1.1-.6.74-1.21,1.48-1.84,2.23a5.41,5.41,0,0,1,1.34-.45l.53-.62Zm-2-.63c-1,1.19-2,2.4-3,3.6.71-.49,1.37-.92,2-1.27,1-1.23,2.06-2.46,3-3.65a1.12,1.12,0,0,1,.71-.88l.9-1.14-.78-.26c-.75,1-1.55,2-2.37,3C69.77,55.64,69.65,55.92,69.31,56Zm0-1.84-1.44,1.8a3.92,3.92,0,0,1,1.23-.39l.29-.36C69.34,54.87,69.3,54.5,69.26,54.12Zm-.61-3.91a3.25,3.25,0,0,0-.67-.07l-.83.94a6.54,6.54,0,0,0,.09,1Zm.95-1.28-.65-.3-.75,1a4.35,4.35,0,0,1,.76.11Zm-.15-1-.21.29.65.3.19-.26Zm0-.81-.62-.32-.12.17.62.33ZM69,45.51a3.75,3.75,0,0,0-.16-.82l-.42.62A1.57,1.57,0,0,0,69,45.51Zm0-2c.45-.67.88-1.34,1.29-2a1.81,1.81,0,0,0-.39-.05.83.83,0,0,0-.9.67,1.35,1.35,0,0,0-.09.54A5,5,0,0,0,69.07,43.51Zm.37,1.55c.73-1.08,1.41-2.12,2-3.14L71,41.74l-.19-.07c-.51.81-1,1.64-1.61,2.48C69.3,44.48,69.38,44.79,69.44,45.06Zm2.85-2.19.29-.46-.65-.3-.59.93a1.48,1.48,0,0,1,.76-.19Zm.81.68a4.11,4.11,0,0,0-.57-.17c-.43.68-.89,1.38-1.37,2.1.06.35.13.68.18,1,.69-1,1.32-1.95,1.9-2.86Zm.58-.65L73,42.6,72.8,43a3.11,3.11,0,0,1,.46.16l.24.08Zm-.41-.71.66.29.12-.2c-.19-.06-.42-.16-.67-.27Zm-2.21,2.43A9.17,9.17,0,0,0,72,43.34a.82.82,0,0,0-.81.64A1.43,1.43,0,0,0,71.06,44.62Zm.83,4a3.36,3.36,0,0,0,.76.24l.22-.31c0-.29-.08-.68-.14-1.11Zm.21,1,.24-.33a7.39,7.39,0,0,1-.73-.26l-.19.25Zm-1,.06-.49.67.7.28L71.8,50Zm-.62-1.17-.18.24.66.32.17-.24Zm-.64-1.16-.14.2.63.33.19-.27A3.71,3.71,0,0,1,69.87,47.34Zm.9-1.3-.63.92a2.37,2.37,0,0,0,.71.22A2.82,2.82,0,0,0,70.77,46Zm-.12-.67a4.84,4.84,0,0,1-.06-.75,1.94,1.94,0,0,1,0-.49c-.5.75-1,1.51-1.55,2.29l.62.33Zm-.77,5.19-.71-.23-1.83,2.42a6.51,6.51,0,0,1,.11,1C68.29,52.66,69.1,51.6,69.88,50.56Zm-.41-.63c.23.06.47.15.71.23l.51-.7L70,49.14Zm1.7,1.72a6.52,6.52,0,0,1,.81.17l.23-.29-.72-.31Zm-1.48,1.14.55-.71A.71.71,0,0,0,69.69,52.79Zm1.15-.7-1.15,1.48c0,.35.07.71.1,1,.65-.81,1.28-1.61,1.88-2.4A5.44,5.44,0,0,0,70.84,52.09Zm1.67-1,.45-.6-.72-.33-.45.61Zm2,1.56a1.27,1.27,0,0,0-.68-.44Zm-1.26-.48-.61-.49-.16.22Zm0,2a4.41,4.41,0,0,0-.6-.05,2.41,2.41,0,0,0-.4,0l-.52.65a3.7,3.7,0,0,0-.05.62c0,.21,0,.42,0,.63C72.29,55.46,72.81,54.83,73.31,54.21Zm-.59-.53a5.38,5.38,0,0,1,.94.1l.55-.68-.79-.31Zm1-3.35a2.51,2.51,0,0,0,.83.21l.28-.37c0-.33-.06-.78-.08-1.26C74.41,49.38,74.06,49.85,73.71,50.33Zm.51.64a4.5,4.5,0,0,1-.8-.25l-.47.62.74.33Zm.83-5.63a2.65,2.65,0,0,0-.81-.16c-.34.53-.71,1.08-1.09,1.64A10.75,10.75,0,0,0,73.29,48C73.93,47,74.53,46.16,75.05,45.34ZM74,44.73l.42-.68-.69-.28C73,44.86,72.25,46,71.42,47.2a.46.46,0,0,1-.25.43l-.38.47.66.33c.42-.6.83-1.17,1.22-1.74a2.14,2.14,0,0,1,.17-1.06A1.32,1.32,0,0,1,74,44.73Zm-7,9.21a.72.72,0,0,0,0-.21,4.36,4.36,0,0,0,0-.45l-.63.8A2.86,2.86,0,0,1,67,53.94Zm3.4-3.21c-1.78,2.38-3.73,4.86-5.72,7.28.74-.56,1.43-1.06,2.06-1.46.86-1,1.7-2.1,2.51-3.13v-.26c0-.61.11-1.26.75-1.5a2.07,2.07,0,0,1,.62-.08L71,51Zm4.74-6.91.72.3.16-.28a4.78,4.78,0,0,1-.72-.27Zm.47.71-.72-.3-.32.5a4.06,4.06,0,0,1,.8.19Zm-1.18-9.45c-.27.65-.58,1.32-.94,2l.09.35.2.52c.33-.65.62-1.27.86-1.85C74.51,35.78,74.44,35.44,74.38,35.08ZM64.8,38.86c0,1.09.85,2.79.87,3.41a.35.35,0,0,1-.21.34,2.17,2.17,0,0,1-1.15-.39,15.79,15.79,0,0,0,2.79,1.61,17.92,17.92,0,0,1-.68-3.07,1.67,1.67,0,0,1,.09-.61,1.3,1.3,0,0,1,1.33-1,3.2,3.2,0,0,1,1.31.35c.56.23,1.24.57,1.91.91l-.62-.48c-1.11-.47-2.56-1.37-3.56-1.81a2.49,2.49,0,0,0-1.17-.35.78.78,0,0,0-.85.7A1.22,1.22,0,0,0,64.8,38.86Zm-5,8c-.05-.61-1.09-2.93-1.1-4.4a1.26,1.26,0,0,1,.67-1.28,1.6,1.6,0,0,1,.53-.09c1.33,0,3.29,1.14,5.13,2.26,1.11.67,2.19,1.35,3,1.76l.7-1a6.08,6.08,0,0,1-.21-1.38,2,2,0,0,1,.12-.71A1.32,1.32,0,0,1,70,41a3,3,0,0,1,.66.09l.18-.28c-.67-.33-1.32-.67-1.86-.88a2.43,2.43,0,0,0-1.11-.31.8.8,0,0,0-.87.68,1.59,1.59,0,0,0-.08.47c0,1,.69,2.52.69,3.14a.4.4,0,0,1-.22.39l-.18,0c-.77,0-2.41-1.24-4.33-2.46s-4-2.41-5.06-2.4a1,1,0,0,0-.34,0c-.25.1-.36.36-.37.83,0,1.48,1.31,4.09,1.32,4.87,0,.1-.07.37-.32.37-.82,0-3.93,3.79-7.24,8.49S43.51,64.63,40.58,68.59a45.44,45.44,0,0,1-3,3.79.23.23,0,0,1,.14.22c.37-.08.6-.18.78-.22a61.24,61.24,0,0,0,6.69-8c3.44-4.55,7.34-9.93,10.32-13.52C57.4,48.59,58.82,47,59.81,46.84Zm6.9,4.83c-1,1.38-2.12,2.77-3.21,4.14a16.09,16.09,0,0,1,1.85-1.28l1.48-1.91C66.78,52.31,66.74,52,66.71,51.67Zm-1.83.52a2.3,2.3,0,0,1,.61-.16,2.2,2.2,0,0,0,0-.59Zm.58.32a2.86,2.86,0,0,0-1.25.55c-1.95,2.54-3.95,5.06-5.87,7.39,1.15-1.1,2.25-2.13,3.27-3C62.91,55.8,64.2,54.16,65.46,52.51ZM79.6,31l.1.37Zm-4.8-3.39.18.45ZM75,29.54c-.46-.5-.83-.89-1.12-1.18l1,1.25Zm-1.21-3.21-.17-.45,0,1.23,0,.37a8.83,8.83,0,0,1,1,1C74.34,27.78,74.05,27.06,73.76,26.33Zm-.13-5.63c0,.49,0,1,0,1.5,0,.65,0,1.28,0,1.88.41.88.77,1.65,1.07,2.27-.18-1-.9-5-1-5.37ZM72,26.94a12.06,12.06,0,0,0-1.52-1.57l1.56,2Zm.7-2.17-.48-2.59-.12-.33A15.63,15.63,0,0,0,72.68,24.77Zm0-2.85.53,1.16V22.2c0-1.12,0-2.25-.1-3.2l-.9-1.87a11,11,0,0,0-.17,1.5L72.27,20Zm-.94-5.73,0,.31v.34a3.07,3.07,0,0,1,.11-.36Zm0,6.59-.09,1.88.09.23c.43.88.79,1.61,1.08,2.24C72.42,25.65,72,24.13,71.71,22.78Zm-.84,1.49c-.58-1.22-1.36-2.93-2.21-4.8a35.18,35.18,0,0,0,1.55,5.32,1.65,1.65,0,0,1,.83.44ZM68.5,16.93v.46c0,.13,0,.28,0,.43l1.08,2.5C69.15,19.07,68.78,17.9,68.5,16.93Zm-.9,6,1,1.41-.5-1c-.29-.3-.46-.42-.53-.4ZM69,25.61l-1.65-2.23,1,2.4.55.88c0-.22,0-.46,0-.67A1.34,1.34,0,0,1,69,25.61Zm-8.39,9.46c0,1.22,1.2,3.34,1.23,3.91a.32.32,0,0,1-.2.3l-.18,0a19.85,19.85,0,0,0,1.77,1.17,13.78,13.78,0,0,1-1-3.47,1.73,1.73,0,0,1,.06-.47,1.25,1.25,0,0,1,1.3-1.08,3.25,3.25,0,0,1,1.45.44l.48.26c-1-.55-2-1.24-2.78-1.65A2.51,2.51,0,0,0,61.47,34c-.44,0-.68.15-.82.73A2.43,2.43,0,0,0,60.61,35.07Zm1.09,13.5c0-.56-.88-2.64-.89-4a1.28,1.28,0,0,1,.68-1.3,1.93,1.93,0,0,1,.55-.07c1.4,0,3.69,1.3,5.62,2.42-.74-.54-1.76-1.19-2.86-1.86-1.83-1.1-3.82-2.2-4.89-2.19a1.08,1.08,0,0,0-.35.05c-.25.1-.37.36-.37.84,0,1.36,1.09,3.67,1.1,4.45,0,.12-.07.4-.32.41-.63,0-2.26,1.58-4.14,3.89S51.47,56.75,49.08,60C45,65.41,41,70.87,38.82,72.69a3.23,3.23,0,0,1,.9-.34.33.33,0,0,1,.24.11c2-1.38,6.35-6.7,10.51-11.92C55.24,54.65,59.74,48.87,61.7,48.57Zm1.69-1.89c0,1.11.68,2.81.68,3.58a.56.56,0,0,1-.16.42L65,49.26a3.52,3.52,0,0,1,0-.45,1.32,1.32,0,0,1,.7-1.36,2.15,2.15,0,0,1,.58-.07l.64-.74a7.07,7.07,0,0,0-2.77-.88,1.37,1.37,0,0,0-.39.05C63.52,45.9,63.4,46.18,63.39,46.68ZM78.71,22.37c.06-.19.12-.36.18-.5l-.33-.64C78.6,21.7,78.65,22,78.71,22.37Zm.17,2.76.07.4Zm-1-5.16.16.86c0-.24,0-.47-.05-.67Zm0,4.41-.12-.26,0,1.46.31.75v-.76C78,25.17,78,24.78,77.88,24.38Zm-1,12.68a13.73,13.73,0,0,1-.48,1.68,9.68,9.68,0,0,1-.42,1l.32.93.1-.22a17.63,17.63,0,0,0,.67-2.25C77,37.79,76.93,37.43,76.87,37.06Zm-.45-22.85,0,.41Zm.15,9.58-.16-.44.17,1Zm-1.28,8.36.26.38c0-.32.1-.65.14-1l-.24-.37C75.4,31.51,75.35,31.84,75.29,32.15Zm.16,3.05c-.1.31-.22.63-.36,1l.23,1,.18-.44a14.88,14.88,0,0,0,.39-1.5l-.24,0Zm-.39-16.08,0,.34,0-.19Zm0,14.06.17.4-.16-.46ZM71.35,9.71c.31,1,.65,2.08,1,3.33-.15-1.28-.3-2.6-.42-3.83C71.75,9.12,71.56,9.38,71.35,9.71Zm1.16,5.82c-.47-1.87-1-3.57-1.39-5l.45,4.36.54,1A1.25,1.25,0,0,1,72.51,15.53Zm-2.2-1.89a2.23,2.23,0,0,0-.46-.58h-.22a.66.66,0,0,0-.51.2c.17.69.33,1.39.49,2.11l1.27,2.71,0-.19A31.4,31.4,0,0,1,70.31,13.64Zm-2.51-.91a11.59,11.59,0,0,0-1.47-2.47h-.2a.61.61,0,0,0-.47.18c0,.55.09,1.11.15,1.66L68,16.92c0-.79,0-1.34.06-1.8C68,14.33,67.87,13.52,67.8,12.73ZM65,13.88c0,.29,0,.59,0,.94v.26c0,.15,0,.32,0,.47,1.28,2.84,2.48,5.52,3.23,7l-.16-.46a72.54,72.54,0,0,1-2.72-9.24l-.08-.67-.18-.38A15.22,15.22,0,0,0,65,13.88Zm-3.63,4.26a15,15,0,0,0-1.62-2.25c.23.67.5,1.35.79,2l.51.79A1.17,1.17,0,0,1,61.41,18.14ZM57.2,33.81A11.88,11.88,0,0,1,58,35.67a.27.27,0,0,1-.12.23c.58.45,1.07.83,1.4,1A11.59,11.59,0,0,1,58,33.19a1.83,1.83,0,0,1,0-.35,1.24,1.24,0,0,1,1.28-1.14,2.49,2.49,0,0,1,.83.16c-.57-.39-1.13-.76-1.58-1a2.59,2.59,0,0,0-1.37-.5c-.43,0-.67.15-.79.77a.73.73,0,0,0,0,.22A7.7,7.7,0,0,0,57.2,33.81Zm-16.81,40,.82-.54a1,1,0,0,1-.24,0c-.38.23-.85.54-1.32.88Zm3.84-1.17a19.59,19.59,0,0,0,4.34-3C49.16,69,54,63.29,56,60.89l-1.6,1.7c-3.93,4.15-7.84,8.34-10.45,10A.36.36,0,0,1,44.23,72.65Zm2.44-.9c-.33.23-.65.45-1,.64l.3,0A7.14,7.14,0,0,1,46.67,71.75ZM86,70.15l1.11,0c-.84.44-1.68.87-2.53,1.29-9.22,3.93-16.9,10.54-21.52,12.27-1.52.56-3.42,1.41-5.9,2.46-1.33.37-2.49.68-3.53.93,4.22-1.68,7.09-3,9.26-3.84C67.38,81.57,75.12,74.92,84.4,71,84.94,70.7,85.48,70.42,86,70.15Z"/></svg>