<?xml version="1.0" encoding="utf-8"?>
<!-- Generator: Adobe Illustrator 23.0.2, SVG Export Plug-In . SVG Version: 6.00 Build 0)  -->
<svg version="1.1" id="Ebene_1" xmlns="http://www.w3.org/2000/svg" xmlns:xlink="http://www.w3.org/1999/xlink" x="0px" y="0px"
	 viewBox="0 0 207.9 139.7" style="enable-background:new 0 0 207.9 139.7;" xml:space="preserve">
<style type="text/css">
	.st0{fill:#FFFFFF;}
</style>
<title>logo_cigogne-management</title>
<path class="st0" d="M73.3,120.9c-1.1,0.1-1.6,0.1-2.4,0.1c-1.3,0-2.6-0.1-3.9-0.6c-2.9-1-4.6-4.1-4.6-8.3c0-6.2,3.2-9.6,8.9-9.6
	c0.8,0,1.7,0.1,2.5,0.2l1.5,3.9h1.1v-4.7c-1.9-0.5-3.8-0.7-5.8-0.7c-1.5,0-3,0.2-4.5,0.6c-4.2,1.3-7,5.6-7,10.8
	c-0.1,2.7,0.8,5.3,2.6,7.4c1.8,2,4,2.8,7.9,2.8c2.2,0,4.4-0.4,6.6-1.1l0.4-4.7h-1.1l-2,3.9H73.3z"/>
<polygon class="st0" points="90.6,122.4 90.6,121.7 87.9,120.6 87.9,103.4 90.6,102.3 90.6,101.5 82.3,101.5 82.3,102.3 84.9,103.4 
	84.9,120.6 82.3,121.7 82.3,122.4 "/>
<path class="st0" d="M114.7,114.6v-0.8h-8.3v0.8l2.7,1.1v5.2c-1,0.1-2,0.2-3,0.2c-5.2,0-8.2-3.2-8.2-8.9c-0.1-2.6,0.8-5.2,2.5-7.2
	c1.6-1.7,3.6-2.4,6.8-2.4c0.8,0,1.7,0.1,2.5,0.2l1.4,3.9h1.2V102l-0.4-0.1c-1.9-0.5-3.8-0.7-5.7-0.7c-3.5,0-6,0.8-8,2.7
	c-2.3,2.2-3.5,5.3-3.4,8.5c-0.1,2.7,0.8,5.4,2.6,7.5c1.8,2,4.1,2.8,7.6,2.8c2.3,0,4.5-0.3,6.7-1l0.4-0.1v-5.9L114.7,114.6z"/>
<path class="st0" d="M128.1,122.9c6,0,10-4.6,10-11.4c0-6.3-3.7-10.3-9.5-10.3c-5.9,0-10,4.7-10,11.4
	C118.7,118.8,122.4,122.9,128.1,122.9z M128.3,102.6c4,0,6.6,3.6,6.6,9.5c0,5.7-2.5,9.3-6.4,9.3s-6.4-3.7-6.4-9.6
	S124.4,102.6,128.3,102.6z"/>
<path class="st0" d="M162.5,114.6v-0.8h-8.3v0.8l2.7,1.1v5.2c-1,0.1-2,0.2-3,0.2c-5.2,0-8.1-3.2-8.1-8.9c-0.2-2.6,0.7-5.2,2.5-7.2
	c1.6-1.7,3.5-2.4,6.8-2.4c0.8,0,1.7,0.1,2.5,0.2l1.4,3.9h1.2V102l-0.4-0.1c-1.9-0.5-3.8-0.7-5.7-0.7c-3.5,0-6,0.8-8,2.7
	c-2.3,2.2-3.5,5.3-3.4,8.5c-0.1,2.7,0.8,5.4,2.6,7.5c1.8,2,4.1,2.8,7.6,2.8c2.3,0,4.5-0.3,6.7-1l0.4-0.1v-5.9L162.5,114.6z"/>
<polygon class="st0" points="173.4,122.4 173.4,121.7 170.8,120.6 170.8,105.3 183.8,122.8 184.7,122.8 184.7,103.4 187.4,102.3 
	187.4,101.5 180.4,101.5 180.4,102.3 183,103.4 183,116.6 171.6,101.5 166.4,101.5 166.4,102.3 169.1,103.4 169.1,120.6 
	166.4,121.7 166.4,122.4 "/>
<polygon class="st0" points="203.8,112.5 204.8,115.3 205.8,115.3 205.8,108.4 204.8,108.4 203.8,111.2 198.1,111.2 198.1,102.8 
	204.8,102.8 206.3,106.2 207.3,106.2 207.3,101.5 192.5,101.5 192.5,102.3 195.1,103.4 195.1,120.6 192.5,121.7 192.5,122.4 
	207.5,122.4 207.9,117.6 206.9,117.6 205,121 198.1,121 198.1,112.5 "/>
<path class="st0" d="M96.2,139.6h-0.5v-6l-2.4,5.9h-0.4l-2.4-5.8v5.9h-0.5v-6.7h0.7l2.5,5.9l2.4-5.9h0.7V139.6z M105.5,139.6H105
	l-0.7-1.8h-3.2l-0.7,1.8h-0.5l2.5-6.7h0.5L105.5,139.6z M104.1,137.3l-1.4-3.8l-1.4,3.8H104.1z M114.1,139.6h-0.6l-3.9-5.9v5.9h-0.5
	v-6.7h0.6l3.9,5.9v-5.9h0.5V139.6z M123.4,139.6h-0.5l-0.7-1.8H119l-0.7,1.8h-0.5l2.5-6.7h0.5L123.4,139.6z M122,137.3l-1.4-3.8
	l-1.4,3.8H122z M131.5,139.6h-0.4l-0.1-1c-0.4,0.7-1.2,1.2-2,1.1c-0.7,0-1.3-0.2-1.8-0.7c-0.6-0.8-0.9-1.8-0.8-2.8
	c-0.1-1,0.2-2,0.8-2.7c0.5-0.5,1.1-0.7,1.8-0.7c1.2-0.1,2.3,0.8,2.4,2c0,0,0,0,0,0H131c0-0.4-0.2-0.7-0.4-1c-0.8-0.7-2-0.7-2.8,0
	c-1,1.5-1,3.4,0,4.9c0.4,0.3,0.9,0.5,1.4,0.5c0.5,0,1-0.2,1.3-0.5c0.5-0.6,0.7-1.3,0.6-2.1h-2v-0.5h2.5L131.5,139.6z M140.2,139.6
	H136v-6.7h4.3v0.5h-3.8v2.4h3.3v0.5h-3.3v2.8h3.8L140.2,139.6z M150.6,139.6h-0.5v-6l-2.4,5.9h-0.4l-2.4-5.8v5.9h-0.5v-6.7h0.7
	l2.5,5.9l2.4-5.9h0.7L150.6,139.6z M159.6,139.6h-4.3v-6.7h4.3v0.5h-3.8v2.4h3.3v0.5h-3.3v2.8h3.8V139.6z M168.6,139.6h-0.6
	l-3.9-5.9v5.9h-0.5v-6.7h0.6l3.9,5.9v-5.9h0.5L168.6,139.6z M177.2,133.4h-2.1v6.2h-0.5v-6.2h-2.1v-0.5h4.7V133.4z"/>
<polygon class="st0" points="96.2,139.6 96.2,132.9 95.5,132.9 93.1,138.8 90.6,132.9 89.9,132.9 89.9,139.6 90.4,139.6 90.4,133.6 
	92.8,139.5 93.2,139.5 95.7,133.6 95.7,139.6 "/>
<path class="st0" d="M105.5,139.6l-2.6-6.7h-0.5l-2.5,6.7h0.5l0.7-1.8h3.2l0.7,1.8H105.5z M104.1,137.3h-2.9l1.4-3.8L104.1,137.3z"
	/>
<polygon class="st0" points="114.1,139.6 114.1,132.9 113.6,132.9 113.6,138.8 109.7,132.9 109.2,132.9 109.2,139.6 109.7,139.6 
	109.7,133.6 113.5,139.6 "/>
<path class="st0" d="M123.4,139.6l-2.6-6.7h-0.5l-2.5,6.7h0.5l0.7-1.8h3.2l0.7,1.8H123.4z M122,137.3h-2.9l1.4-3.8L122,137.3z"/>
<path class="st0" d="M131.6,139.6v-3.4h-2.5v0.5h2c0.1,0.7-0.1,1.5-0.6,2.1c-0.4,0.3-0.8,0.5-1.3,0.5c-0.5,0-1-0.2-1.4-0.5
	c-1-1.5-1-3.4,0-4.9c0.8-0.7,2-0.7,2.8,0c0.3,0.3,0.4,0.6,0.4,1h0.5c-0.1-1.2-1.2-2.1-2.4-2c0,0,0,0,0,0c-0.7,0-1.3,0.3-1.8,0.7
	c-0.6,0.8-0.9,1.8-0.8,2.7c-0.1,1,0.2,2,0.8,2.8c0.5,0.5,1.1,0.7,1.8,0.7c0.8,0,1.6-0.4,2-1.1l0.1,1L131.6,139.6z"/>
<polygon class="st0" points="140.2,139.6 140.2,139.1 136.5,139.1 136.5,136.3 139.8,136.3 139.8,135.8 136.5,135.8 136.5,133.4 
	140.2,133.4 140.2,132.9 136,132.9 136,139.6 "/>
<polygon class="st0" points="150.7,139.6 150.7,132.9 150,132.9 147.6,138.8 145.1,132.9 144.4,132.9 144.4,139.6 144.9,139.6 
	144.9,133.6 147.3,139.5 147.8,139.5 150.2,133.6 150.2,139.6 "/>
<polygon class="st0" points="159.6,139.6 159.6,139.1 155.8,139.1 155.8,136.3 159.2,136.3 159.2,135.8 155.8,135.8 155.8,133.4 
	159.6,133.4 159.6,132.9 155.3,132.9 155.3,139.6 "/>
<polygon class="st0" points="168.7,139.6 168.7,132.9 168.2,132.9 168.2,138.8 164.3,132.9 163.8,132.9 163.8,139.6 164.3,139.6 
	164.3,133.6 168.1,139.6 "/>
<polygon class="st0" points="177.2,133.4 177.2,132.9 172.5,132.9 172.5,133.4 174.6,133.4 174.6,139.6 175.1,139.6 175.1,133.4 "/>
<path class="st0" d="M74.8,77.7c-2.7,1.7-8.4,5-10.9,6.4l-1.3,0.4c0-0.1,8.5-5,11.9-7.2C79.5,74.4,84.6,72,90,70l1.8-0.1
	C86.4,71.3,76.9,76.4,74.8,77.7z M158,70.5l-19,0.3c-4.2,0-8,0.8-12.9,0.9c-3.6,0.1-15.7,2.6-24.1,3.9c-4.6,0.7-9.6,1.6-12.4,2.3
	c-1.1,0.3-2.4,0.7-3.8,1.1l-3.2,0.6c2.4-0.9,4.8-1.7,6.8-2.2c2.8-0.7,7.8-1.6,12.4-2.3c8.4-1.3,20.4-3.8,24.2-3.9
	c4.2-0.1,7.7-0.7,11.4-0.9c-3.7,0-7.1,0.2-11.4,0.3c-3.6,0.1-7.6,1.3-10.1,1.7c-3.4,0.5-5.8,1.1-14.1,2.4c-4.6,0.7-7.7,0.8-12.4,2.1
	c-2.6,0.8-5.2,1.8-7.7,3L80,80.1c3.1-1.5,6.2-2.8,9.5-3.8c4.7-1.3,7.8-1.4,12.4-2.1c8.3-1.3,10.7-1.8,14.1-2.4
	c2.4-0.4,6.4-1.6,10.1-1.7c4.2-0.1,7.6-0.3,11.3-0.3c0.8,0,3,0,3,0h-0.8c-3.6-0.1-6.6-0.2-10.2-0.2c-1.1,0-2.2,0-3.3,0
	c-3.6,0.1-7.6,1.4-10,1.8c-3.4,0.5-6,1.2-14.3,2.4c-4.6,0.7-7.9,0.6-12.5,1.9c-3.7,1.2-7.3,2.8-10.7,4.7l-1.5,0.3
	c3.8-2.2,7.8-4,12-5.3c4.7-1.3,8-1.2,12.6-1.9c8.3-1.3,10.9-1.9,14.3-2.5c2.4-0.4,6.4-1.7,10.1-1.8c1.2,0,2.3,0,3.3,0
	c3.4,0,6.4,0.1,9.8,0.2c-4.1-0.1-7.4-0.7-11.8-0.7h-1.3c-2.9,0.2-5.7,0.7-8.4,1.6c-3.4,0.8-7.6,1.4-16,2.7
	c-4.6,0.7-7.8,0.5-12.4,1.8C85,76,79,79.2,75.8,81.1l-1.3,0.3c2.6-1.6,9.7-5.6,14.8-7c4.7-1.3,7.9-1.1,12.5-1.8
	c8.3-1.3,12.6-1.9,15.9-2.6c2.8-0.8,5.6-1.4,8.5-1.6h1.3c4.5,0,7.4,0.5,11.6,0.6c1,0,1.1,0,0,0c-4.4-0.1-7.5-1.1-12.1-1.1h-0.8
	c-3.6,0.1-6.1,1.4-8.8,2c-3.3,0.7-7.1,1.2-15.6,2.2c-4.6,0.6-7.8,0.3-12.4,1.6c-5.2,1.4-12.8,5.9-15,7.3l-1.1,0.7L71.8,82
	c0.8-0.5,1.6-0.9,2.3-1.4c2.2-1.4,9.8-5.9,15.1-7.3c4.7-1.3,7.9-1.1,12.5-1.7c8.4-1,12.2-1.6,15.5-2.2c2.7-0.5,5.2-1.9,8.9-2h0.9
	c2.5,0,5,0.3,7.4,0.7c-2.7-0.6-5.5-1-8.3-1.2h-0.5c-3.2,0-5.3,1.4-7.6,2.1c-3.3,1-7.9,1.1-16.3,2.1c-4.6,0.6-7.8,0.3-12.4,1.6
	c-5.2,1.4-12.8,5.9-15,7.3c-1.3,0.8-2.9,1.7-4.3,2.5l-1.8,0.5c1.8-0.9,4.1-2.1,5.9-3.3c2.2-1.4,9.8-5.9,15.1-7.3
	c4.7-1.3,7.9-1.1,12.5-1.7c8.4-1,13-1.1,16.2-2.1c2.2-0.7,4.3-2.1,7.7-2.1h0.5c5,0.2,7.8,1.5,12.1,1.7c-3.3-0.3-7.1-1.9-12.1-2.1
	h-0.5c-3.2,0-5.3,1.4-7.6,2.1c-3.3,1-7.9,1.1-16.3,2.1c-4.6,0.6-7.8,0.3-12.4,1.6c-5.2,1.4-12.5,5.6-14.7,7c-1.9,1.2-4.9,3-7.2,4.4
	l-1.6,0.4c2.4-1.4,6.3-3.7,8.6-5.2s9.5-5.6,14.8-7c4.7-1.3,7.9-1.1,12.5-1.7c8.4-1,13-1.1,16.2-2.1c2.2-0.7,4.3-2.1,7.7-2.1h0.5
	c5.2,0.3,9.1,2,12.4,2.2C139.3,67.8,158,70.5,158,70.5z M52.3,86.8l-2.5,1c-0.5,0.1-0.9,0.1-1.4,0.1l3.7-1.5
	c4.3-1.9,7.2-3.5,9.2-4.2c3.5-1.3,10.6-7.4,18.1-12h0.9c-7.6,4.6-15,11-18.8,12.4C59.6,83.3,56.7,84.8,52.3,86.8z M50.2,87.8
	l2.7-1.1c4.3-1.8,7.2-3.2,9.2-4c4.1-1.5,12-8.2,20.7-12.5h1.1c-9.1,4.3-17.2,11.2-21.6,12.9c-2,0.8-4.9,2.2-9.2,4l-0.4,0.2
	C51.7,87.5,50.9,87.7,50.2,87.8L50.2,87.8z M51.6,86.4l-3.4,1.5l-0.5-0.1l-3.6,1.3c2.3-1,4.8-2,7.2-3.1c4.4-2,7.3-3.7,9.2-4.4
	c3-1.1,9.6-6.8,16.3-11.6h0.7C70.8,74.9,64,80.8,60.8,82C58.9,82.7,56,84.3,51.6,86.4L51.6,86.4z M50.9,86c-2.4,1.1-4.8,2.2-7.2,3.3
	c-4,1.5-8,2.7-12.1,3.6c-6.4,1.2-19.1,3.9-25.1,4.1l1.5-0.6l-0.3-0.1c-3.3-0.1-4-0.8-4.1-0.9v-0.3c0.2-0.3,0.5-0.6,0.8-0.8l-1.4,0.5
	c-0.6,0.3-1.2,0.7-1.7,1.3c0.2,0.1,0.3,0.1,0.5,0.2c1.1,0.3,2.3,0.4,3.4,0.4L6.3,97H5.7c-1.5,0.1-2.9,0-4.4-0.3
	c-0.2-0.1-0.5-0.2-0.6-0.3V96c0.2-0.2,0.3-0.4,0.5-0.6L0,95.9c0.3-1,1-1.8,2-2.1c1.7-0.4,7.8-2.2,9.2-2.4c0.3-0.1,0.5,0.5,1.3,0.9
	l-0.4,0.2c-0.4,0.2-0.7,0.4-1,0.7c0.1,0.1,0.3,0.1,0.4,0.2c0.7,0.3,1.5,0.5,2.3,0.5l0.9-0.4c-0.6-0.1-1.2-0.4-1.8-0.8l0-0.2
	c0.4,0.1,0.9,0.2,1.3,0.3c0.4,0.2,0.8,0.3,1.3,0.4l0.5-0.3c1.8-0.1,3.6-0.3,5.3-0.6c0.8-0.1,1.5-0.3,2.3-0.5l0,0
	c0.8-0.2,1.5-0.4,2.2-0.6H26c0.9-0.3,1.8-0.5,2.6-0.8l-1.8,0.9l2-1c1.1-0.3,2.2-0.8,3.2-1.2c-1.3,0.7-2.7,1.5-4.2,2.2
	c1.6-0.8,3.1-1.6,4.6-2.4c1.7-0.7,3.3-1.4,4.7-2.1c-2.6,1.5-5.3,3-8.2,4.4c3.8-1.8,7.3-3.8,10.6-5.7c0.8-0.4,1.4-0.8,2-1.1
	c1.1-0.7,2.2-1.3,3.2-1.9c5-3.1,7.8-5.6,8.9-5.9c1.7-1.2,3.2-2.6,4.6-4.1l-0.9,0.2c-2.2,2.2-3.7,3.6-4.3,3.8
	c-0.8,0.3-3.8,2.8-8.8,6.1l-1.4,0.8c0.1-0.1,0.1-0.2,0-0.2L42.7,83l1.3-0.8c5-3.3,7.9-5.8,8.9-6.1c1.3-1,2.6-2.1,3.7-3.3l-0.8,0.1
	c-1,1.2-2.2,2.2-3.5,3.1c-0.7,0.2-3.7,2.8-8.8,6.2l-1,0.6c-0.1-0.1-0.2-0.2-0.3-0.4l1.1-0.7c5.1-3.4,8-5.9,8.9-6.3
	c1-0.7,2-1.6,2.9-2.5h-0.6h-0.2c-0.8,0.9-1.7,1.7-2.7,2.4c-0.6,0.2-3.6,2.9-8.8,6.4L42,82.3L41.7,82l0.8-0.5c5.2-3.6,8-6.2,8.9-6.5
	c0.8-0.6,1.6-1.3,2.2-2c-0.3,0-0.5,0-0.7,0c-0.7,0.7-1.4,1.3-2.2,1.9c-0.5,0.1-3.5,2.9-8.7,6.6l-0.4,0.3l-0.3-0.4l0.4-0.3
	c5.2-3.7,8.1-6.4,8.8-6.7c0.6-0.4,1.1-0.9,1.6-1.5h-0.7c-0.4,0.5-0.9,1-1.4,1.4c-0.3,0.1-3.5,3-8.7,6.8L41,80.8
	c5.3-3.8,8.2-6.6,8.8-6.9c0.3-0.2,0.6-0.5,0.8-0.7l-0.5,0.2l-0.4,0.1c-0.2,0.2-0.3,0.3-0.5,0.4c-0.2,0.1-3.2,2.9-8.4,6.7l-0.2-0.4
	c4.4-3.3,7.1-5.7,8.1-6.5l-0.8,0.2l-1.8,1.5c-1.3,1.2-3.2,2.7-5.6,4.6l-0.2-0.4c2.3-1.8,4.2-3.3,5.5-4.5c0.5-0.4,0.8-0.7,1.2-1h-0.2
	l-0.6,0.1l-0.8,0.7c-1.3,1.1-3,2.6-5.2,4.4l-0.2-0.4c2.2-1.7,3.9-3.2,5.2-4.3c-0.1,0-0.2,0.1-0.4,0.2c-0.1,0-0.2,0-0.3,0
	c-1.2,1-2.7,2.4-4.6,3.9c-0.2-0.5-0.6-1.3-0.7-1.7c-0.3-0.9-0.7-1.8-1-2.7c0.4-0.3,0.8-0.6,1.1-0.8c-0.4,0.2-0.8,0.4-1.2,0.7
	c0,0-0.5-1.5-0.7-2c2.2-2.6,4.2-5.3,6.1-8.1c3.4-4.9,7.3-10.7,10.3-14.5c1.9-2.4,3.3-4.1,4.2-4.3c-0.1-0.7-1.3-3.2-1.3-4.8
	c-0.1-0.5,0.2-1,0.7-1.3c0.2-0.1,0.3-0.1,0.5-0.1c1.3,0,3.2,1.2,5.1,2.3l-2-1.3c-2-1.3-4.1-2.6-5.2-2.6c-0.1,0-0.2,0-0.3,0
	c-0.2,0.1-0.4,0.4-0.4,0.8c0,1.6,1.5,4.5,1.5,5.3c0,0.1-0.1,0.3-0.3,0.3s-1.4,1-2.6,2.6s-2.9,3.9-4.6,6.5
	c-3.4,5.1-7.3,11.2-10.2,15.4c-0.7,1-1.3,1.9-1.9,2.6l-0.2-0.6c1.3-1.8,3-4.3,4.8-7.1C45,58.1,48.9,52,51.9,48
	c1.9-2.6,3.2-4.3,4.1-4.6c-0.1-0.7-1.5-3.5-1.5-5.2c-0.1-0.5,0.2-1,0.7-1.3c0.2-0.1,0.3-0.1,0.5-0.1c1.1,0,2.7,0.9,4.2,1.9l-1-0.7
	c-2-1.4-4.3-2.8-5.4-2.8c-0.1,0-0.2,0-0.3,0c-0.2,0.1-0.4,0.4-0.4,0.8c0,1.7,1.8,4.9,1.8,5.7c0,0.1-0.1,0.3-0.3,0.3
	c-1,0.7-1.9,1.7-2.5,2.7c-1.2,1.8-2.8,4.2-4.5,6.9c-3.4,5.4-10.8,17.4-10.8,17.4l-0.2-0.6c1-1.6,2.3-3.6,3.6-5.7
	c3.4-5.5,7.3-12,10.2-16.3c1.9-2.7,3.2-4.5,4-4.8c-0.2-0.7-1.8-3.8-1.8-5.5c-0.1-0.5,0.2-1,0.7-1.3c0.2-0.1,0.3-0.1,0.5-0.1
	c1.3,0.2,2.6,0.8,3.7,1.6L57,36.2c-2.1-1.5-4.4-3-5.6-3c-0.1,0-0.2,0-0.3,0c-0.2,0.1-0.4,0.4-0.4,0.8c0,1.8,2,5.3,2,6
	c0,0-0.1,0.3-0.3,0.3c-1,0.8-1.8,1.8-2.4,2.9c-1.2,1.8-2.8,4.4-4.5,7.2c-3.2,5.4-6.9,11.9-9.6,16.5l-0.2-0.7l2.4-4.1
	c3.3-5.8,7.3-12.7,10.2-17.2c1.8-2.8,3.1-4.7,4-5.1c-0.2-0.7-2-4.1-2-5.9c-0.1-0.5,0.2-1,0.7-1.3c0.2-0.1,0.3-0.1,0.5-0.1
	c1.2,0.2,2.3,0.7,3.2,1.4c-2.1-1.5-4.3-3-5.4-3c-0.1,0-0.2,0-0.3,0.1c-0.2,0.1-0.4,0.4-0.4,0.9c0.2,1.3,0.5,2.5,1.1,3.7
	c0.4,0.9,0.8,1.8,1.1,2.7c0,0.1,0,0.2-0.1,0.2c0,0-0.1,0.1-0.2,0.1c-0.1,0.1-0.3,0.2-0.4,0.3c-0.3,0.3-0.6,0.7-0.8,1.1
	c-0.7,0.9-1.5,2.2-2.5,3.8c-1.9,3.2-4.3,7.4-6.7,11.7c-1.7,3.1-3.4,6.3-4.9,9l-0.2-0.7C39.7,55.5,46,43.7,49,39.7
	c0.6-0.8,1-1.3,1.4-1.5c-0.1-0.3-0.6-1.4-1.1-2.4c-0.6-1.2-1-2.5-1.1-3.8c-0.1-0.5,0.2-1,0.7-1.3c0.2-0.1,0.3-0.1,0.5-0.1
	c1.1,0.2,2.1,0.6,3,1.2c-2-1.5-4.1-2.9-5.1-2.9c-0.1,0-0.2,0-0.3,0c-0.3,0.1-0.4,0.4-0.4,0.9c0.2,1.4,0.6,2.7,1.2,3.9
	c0.5,0.9,0.9,1.9,1.2,2.9c0,0.1,0,0.1-0.1,0.2L48.7,37c-0.1,0.1-0.2,0.2-0.3,0.3c-0.3,0.4-0.6,0.7-0.8,1.1c-0.7,1-1.5,2.3-2.5,4
	c-1.9,3.3-4.3,7.8-6.7,12.3c-1.3,2.4-2.5,4.9-3.7,7.2l-0.1-0.8c4.4-8.5,9.9-19.2,12.6-23c0.3-0.6,0.8-1.1,1.3-1.5
	c-0.2-0.3-0.7-1.4-1.2-2.5c-0.7-1.3-1.1-2.7-1.3-4.1c-0.1-0.5,0.2-1,0.7-1.3c0.2-0.1,0.3-0.1,0.5-0.1c1,0.1,1.9,0.5,2.7,1.1
	c-1.9-1.5-3.9-2.7-4.8-2.7c-0.1,0-0.2,0-0.3,0c-0.3,0.1-0.4,0.4-0.4,0.9c0.2,1.5,0.7,2.9,1.3,4.2c0.5,1,1,2,1.4,3
	c0,0.1,0,0.1-0.1,0.2l-0.2,0.1c-0.1,0.1-0.2,0.2-0.2,0.3c-0.3,0.4-0.6,0.8-0.8,1.2c-0.6,1-1.5,2.5-2.4,4.2
	c-1.9,3.5-4.3,8.2-6.7,12.9c-0.8,1.7-1.7,3.3-2.5,4.9l-0.1-0.9l0.4-0.7c4-8.2,8.6-17.2,10.9-20.8c0.3-0.6,0.7-1.2,1.2-1.6
	c0,0-1-1.9-1.3-2.7c-0.7-1.4-1.2-2.8-1.4-4.4c-0.1-0.5,0.2-1.1,0.7-1.3c0.2-0.1,0.3-0.1,0.5-0.1c0.9,0.1,1.8,0.5,2.6,1
	c-1.9-1.5-3.8-2.6-4.7-2.6c-0.1,0-0.2,0-0.3,0c-0.3,0.1-0.4,0.4-0.4,0.9c0.2,1.5,0.7,3,1.5,4.4c0.6,1,1.1,2,1.5,3.1
	c0,0,0,0.2-0.2,0.2c-0.1,0.1-0.2,0.2-0.3,0.3c-0.3,0.4-0.5,0.8-0.8,1.3c-0.6,1-1.4,2.5-2.4,4.3c-1.9,3.6-4.2,8.5-6.6,13.3L34,54.9
	c0-0.4,0-0.8,0-1.2c3.7-7.8,7.5-15.7,9.6-19c0.3-0.6,0.7-1.2,1.1-1.6l-0.4-0.8c-0.3-0.5-0.7-1.2-1-2c-0.8-1.4-1.3-3-1.5-4.6
	c-0.1-0.5,0.2-1.1,0.7-1.3c0.2-0.1,0.3-0.1,0.5-0.1c0.9,0.1,1.7,0.5,2.4,1c-1.9-1.5-3.7-2.6-4.5-2.6c-0.1,0-0.2,0-0.3,0
	c-0.3,0.1-0.4,0.4-0.4,0.9c0,1.7,1.8,5.1,2.7,6.8c0.2,0.3,0.4,0.7,0.5,1.1v0.4l-0.2-0.1C43.1,31.9,43,31.9,43,32
	c-0.2,0.3-0.4,0.7-0.7,1.2c-0.6,1.1-1.4,2.6-2.3,4.5c-1.6,3.1-3.5,7.1-5.4,11.3c0.1-0.6,0.2-1.3,0.4-1.9c3.4-7.2,6.5-13.6,7.6-15.3
	c0.2-0.2,0.2-0.3,0.3-0.4l-0.4-0.8c-0.3-0.6-0.7-1.3-1.1-2.1c-0.8-1.5-1.4-3.1-1.6-4.9c-0.1-0.5,0.2-1.1,0.7-1.3
	c0.2-0.1,0.3-0.1,0.5-0.1c0.8,0.1,1.6,0.4,2.2,0.9c-1.8-1.4-3.5-2.5-4.3-2.5c-0.1,0-0.2,0-0.3,0c-0.3,0.1-0.4,0.4-0.4,0.9
	c0,1.8,1.9,5.4,2.9,7.1c0.2,0.4,0.4,0.7,0.6,1.1v0.4L41.3,30l-0.2,0.3c-0.2,0.3-0.4,0.7-0.7,1.2c-0.6,1.1-1.3,2.7-2.2,4.6l-0.8,1.7
	c0.5-1.5,0.9-2.8,1.3-3.8c0.9-1.9,1.6-3.2,2-3.9c0.1-0.2,0.2-0.3,0.3-0.4l-0.5-0.8c-0.3-0.6-0.8-1.4-1.2-2.2
	c-0.9-1.6-1.5-3.3-1.8-5.1c-0.1-0.5,0.2-1.1,0.7-1.3c0.2-0.1,0.3-0.1,0.5-0.1c2.3,0,7.8,5.2,10.3,7.6l-0.3-0.5
	c-0.6-1-1.1-2.1-1.2-3.3c0-1,0.6-1.5,1.2-1.4c0.7,0.1,1.3,0.3,1.9,0.8c1.1,0.9,2.9,2.3,4.1,3.2l1.4,0.9l-0.6-0.9
	c-0.8-1.1-1.8-2.6-2.8-4.4c-2.3-4-4.8-9.4-4.8-14c0-1.7,1.2-1.9,1.5-1.9c0.1,0,0.2,0,0.2,0.1l0.2,0.4C49.9,6.8,51,8.8,51,8.8
	c0.3-0.2,0.6-0.4,1-0.4c0,0,0.1,0,0.2,0s0.2,0.2,0.3,0.4l1.2,2.2c0.3-0.2,0.6-0.3,0.9-0.3c0.4,0.1,0.3,0.2,0.5,0.4
	c-0.5-1.3-0.8-2.6-0.9-4c0-0.7-0.1-1.4-0.1-1.9c-0.1-1.1,0.1-2.1,0.4-3.1c0.2-0.4,0.6-0.7,1.1-0.7h0.2c0.4,0.1,0.4,0.4,0.7,0.8
	s0.5,1,0.9,1.7L58,5.1c0.1-0.5,0.6-0.9,1.1-0.9h0.2c0.3,0.1,0.4,0.3,0.7,0.7s0.5,1,0.9,1.7l0.6,1.2c0.2-0.4,0.5-0.7,1-0.8
	c0-0.4,0-0.8,0-1.1C62.4,4.4,62.6,3,63,1.7c0.3-0.5,0.6-1.6,1.4-1.7c0.5,0,0.8,0.4,1.1,1.2c0.2,0.5,0.4,1.2,0.7,2
	c0.2-0.2,0.4-0.3,0.6-0.4c0.5,0,0.8,0.4,1.1,1.2c0.2,0.5,0.5,1.2,0.8,2.1c0.2-0.2,0.4-0.3,0.7-0.4c0.4,0,0.7,0.3,0.9,0.9
	c-0.1-1.5-0.2-2.8-0.2-3.9c-0.1-0.6,0-1.2,0.2-1.8c0.1-0.2,0.3-0.4,0.6-0.4c0.7,0.1,1.1,0.8,1.6,1.7c0.3,0.6,0.6,1.3,0.8,1.9
	c0.2,0.3,0.4,0.7,0.6,1c0.3,0.6,0.5,1.2,0.7,1.8c0.3,0.4,0.5,0.8,0.7,1.2c0.2,0.5,0.4,1.1,0.6,1.6c0.3,0.4,0.6,0.8,0.8,1.3
	c0.2,0.5,0.4,1,0.5,1.5c0.4,0.4,0.7,0.8,0.8,1.4c0.2,0.5,0.3,1,0.5,1.5c0.4,0.2,0.6,0.7,0.9,1.4c0.1,0.1,0.1,0.3,0.2,0.5
	c0.3,0.1,0.5,0.4,0.7,0.9s0.5,1.4,0.8,2.5c0,0.7,0.1,1.4,0.1,2.1v0.6c0,0.9-0.2,5.1-0.5,8.4c-0.2,1.3-0.4,3.3-0.4,3.3
	s-0.6,3.4-0.7,4.1l-0.1-0.8c-0.2,1.2-0.5,2.4-0.9,3.6c0.1,0.3,0.1,0.5,0.2,0.7c-0.1,0.3-0.2,0.7-0.3,1c0-0.3-0.1-0.6-0.2-0.9
	c-0.2,0.4-0.3,0.8-0.5,1.2l-0.3,0.5l0.6,0.2l-0.2,0.5c-0.2-0.1-0.5-0.1-0.7-0.2L77,45.5l0.8,0.3c-0.3,0.8-0.6,1.5-0.9,2.3
	c-0.5,0.7-1,1.5-1.6,2.2c0,0.3-0.1,0.5-0.3,0.6c-0.1,0-0.1,0-0.2,0l-0.7,0.9l0.8,0.3l0.5-0.7l-0.8,1.8l-0.5,0.6l0.2,0.1l-0.2,0.4
	l-0.4-0.1c-0.7,0.8-1.4,1.7-2.1,2.5c0,0.4-0.1,0.8-0.6,0.9c-1.1,1.1-2,2.2-3,3.3c0.7-0.4,1.3-0.8,1.9-1.1c1.2-1.3,2.4-2.7,3.4-4
	l-0.6,1.5l-1.8,2c0.3-0.1,0.7-0.3,1.1-0.4L72,59.6c-0.5,0.2-1.1,0.4-1.6,0.7c-1.2,1.3-2.4,2.6-3.6,3.9c0.7-0.4,1.4-0.8,2-1.2
	l3.1-3.4l-0.5,1.2l-1.3,1.5l1-0.5l-0.2,0.6c-0.6,0.3-1.1,0.6-1.7,0.9c-1,1.1-2.1,2.2-3.1,3.3l1.8-0.9c1-1,1.9-2,2.9-3l-0.4,1.1
	l-1.3,1.3l1-0.5L70,65.3c-0.6,0.3-1.2,0.6-1.8,0.9l-2.3,2.4l1.6-0.7l2.4-2.4l-0.3,1l-1,1l0.8-0.3l-0.1,0.6l-1.6,0.7l-1.6,1.5
	l1.4-0.5l1.7-1.6l-0.2,0.8l-0.4,0.4l0.6-0.2l1,0.2c-5.7,5.2-11.1,10.2-13,11c-1.4,0.5-4.3,2.6-9,5c-3.9,2.1-8,4.1-12.3,6.1
	c4.5-2,8.9-4.1,13.2-6.3c4.6-2.4,7.5-4.3,9.1-4.9c2-0.7,7.4-5.6,13.1-10.7l0.6,0.1c-5.7,5.1-11.3,10.2-13.5,11
	c-1.5,0.7-4.5,2.5-9.1,4.9c-3.5,1.8-7.1,3.5-10.7,5.2c3.7-1.7,7.5-3.4,11.2-5.2c4.6-2.2,7.4-4.1,9.1-4.7c2.2-0.8,8-6,14-11l0.6,0.1
	c-6,5.1-12,10.4-14.4,11.3c-1.6,0.6-4.5,2.5-9.1,4.7c-3.4,1.7-6.8,3.2-10.2,4.8c3.5-1.5,7.1-3.1,10.8-4.8c4.4-2.1,7.3-3.8,9.1-4.5
	c2.6-0.9,8.7-6.3,15-11.3l0.7,0.1c-6.4,5-12.7,10.6-15.5,11.7C58.3,82.1,55.4,83.9,50.9,86z M34.3,90.9c4.7-2.2,9.2-4.5,13.4-6.8
	c4.8-2.6,7.6-4.7,9-5.2s5.5-4.2,10.1-8.7l-1.4,0.4c-4.3,4.2-8,7.6-9.3,8.1s-4.1,2.7-9,5.4C43.2,86.4,38.9,88.7,34.3,90.9z
	 M46.5,83.8c-4.2,2.5-8.9,5-14,7.5c5.2-2.4,10-5,14.5-7.5c4.8-2.7,7.7-4.9,9-5.4c1.1-0.4,4.5-3.4,8.5-7.3l-1.2,0.4
	c-3.7,3.7-6.8,6.5-7.8,6.9S51.3,80.9,46.5,83.8z M45.7,83.4c-4.3,2.6-9.2,5.3-14.5,7.9c5.4-2.5,10.5-5.3,15-7.9
	c4.9-2.8,7.7-5.1,9-5.6c0.9-0.3,3.6-2.8,7-6.2l-1.1,0.3c-3.2,3.1-5.6,5.4-6.5,5.7S50.7,80.4,45.7,83.4z M30.1,91.3
	c5.7-2.7,10.8-5.6,15.4-8.3c5-3,7.8-5.3,9-5.8c0.6-0.2,2.8-2.2,5.7-5.1l-1,0.2c-2.6,2.6-4.6,4.5-5.3,4.7S50,79.9,45,83
	C40.2,86,35.2,88.8,30.1,91.3z M12.2,94.7l0.9-0.4c-0.9-0.1-1.7-0.4-2.4-0.9v-0.3c0.2-0.2,0.4-0.4,0.6-0.6c-0.4,0.2-0.9,0.4-1.4,0.6
	c-0.4,0.2-0.8,0.5-1.1,0.9C9,94,9.1,94,9.2,94.1c0.9,0.3,1.8,0.5,2.8,0.5L12.2,94.7z M10.4,95.5l1-0.4c-2.4-0.3-3.1-0.9-3.1-0.9
	v-0.3c0.2-0.2,0.5-0.5,0.7-0.7c-0.4,0.2-0.9,0.3-1.3,0.5c-0.5,0.3-0.9,0.6-1.2,1c0.1,0.1,0.3,0.1,0.4,0.2c1,0.3,2,0.5,3,0.5
	L10.4,95.5z M8.6,96.2l1.1-0.4c-3.1-0.2-3.8-0.9-3.8-0.9v-0.3c0.2-0.3,0.5-0.6,0.8-0.8c-0.4,0.2-0.9,0.3-1.3,0.5
	c-0.5,0.3-1,0.6-1.4,1.1c0.1,0.1,0.3,0.1,0.4,0.2c1,0.3,2.1,0.4,3.2,0.4L8.6,96.2z M48,23.8c0,1.2,1.8,4.2,2.3,4.9l0.9,0.9l-0.4-0.8
	c-0.6-1-1-2-1.1-3.1v-0.2c0-0.7,0.5-1.2,1.2-1.3c0,0,0,0,0.1,0c0.1,0,0.3,0,0.4,0l-1-0.8c-0.4-0.4-1-0.6-1.6-0.7
	c-0.4,0-0.7,0.2-0.8,0.9L48,23.8z M53.5,26.2l-1.1-0.8c-0.4-0.4-1-0.6-1.5-0.6c-0.4,0-0.7,0.1-0.8,0.8c0,1.1,1.2,3.3,1.8,4.4
	c0.2,0.4,0.3,0.5,0.4,0.7l1,0.8c-0.2-0.3-0.3-0.6-0.5-1c-0.5-0.9-0.9-1.9-1-3c0-0.1,0-0.1,0-0.2c0-0.6,0.5-1.2,1.2-1.2
	C53.2,26.1,53.3,26.1,53.5,26.2z M55.7,28.1c-0.5-0.3-0.9-0.6-1.2-0.9c-0.4-0.3-0.9-0.5-1.5-0.6c-0.4,0-0.7,0.1-0.8,0.8
	c0,1.2,1.1,3.2,1.7,4.2c0.2,0.2,0.3,0.5,0.3,0.7l1.1,1c-0.2-0.3-0.3-0.7-0.5-1c-0.5-0.9-0.8-1.8-0.9-2.9c0-0.1,0-0.2,0-0.3
	c0-0.7,0.6-1.2,1.2-1.2c0,0,0,0,0,0C55.3,28,55.5,28,55.7,28.1z M56.5,29c-0.4-0.3-0.9-0.5-1.4-0.5c-0.4,0-0.7,0.1-0.8,0.8
	c0,0.1,0,0.1,0,0.2c0.1,0.9,0.4,1.8,0.9,2.6c0.4,0.6,0.7,1.3,0.9,1.9c0.3,0.4,0.7,0.8,1.2,1.2c-0.2-0.3-0.3-0.7-0.5-1.2
	c-0.4-0.8-0.7-1.8-0.8-2.7c0-0.1,0-0.2,0-0.3c0-0.7,0.6-1.2,1.3-1.2c0.2,0,0.5,0,0.7,0.1L56.5,29z M53.1,21.7c1.8,3.1,3.5,5.5,4,6.1
	c0,0.1,0.1,0.1,0.1,0.2c0,0.1,0,0.2-0.1,0.3l1.1,0.8l-0.7-1c-0.7-1.1-1.6-2.5-2.6-4.2c-2.1-3.9-4.5-8.9-4.5-13.4V10
	c0-0.3,0.1-0.6,0.2-0.8c-0.9-1.6-1.2-2.4-1.4-2.7c-0.3,0-1,0.1-1,1.2C48.3,12.4,50.8,17.7,53.1,21.7z M51,10v0.3
	c0,4.3,2.3,9.3,4.4,13.1c1.4,2.6,2.8,4.6,3.4,5.5c0.2,0.3,0.3,0.4,0.3,0.7c0,0.1,0,0.2-0.1,0.2c0.5,0.3,1,0.6,1.3,0.8l-0.7-1.2
	c-0.6-1-1.5-2.4-2.4-4c-1.8-3.4-3.7-7.7-4-11.7c-0.9-1.6-1.6-2.9-2.2-3.9L51,10z M52,8.8c-0.3,0-0.5,0.1-0.7,0.3
	c0.5,0.9,1.1,2,1.9,3.4v-0.3c0-0.3,0.1-0.6,0.2-0.9C52.4,9.8,52,9.1,52,8.8L52,8.8z M53.7,12.3v0.4c0,0.3,0,0.6,0,0.9
	c1,1.7,1.7,3.1,2.4,4.2c-0.1-0.7-0.2-1.4-0.2-2.2c-0.9-1.5-1.6-2.7-2.1-3.6C53.7,12,53.6,12.2,53.7,12.3L53.7,12.3z M54.7,11.2
	c-0.2,0-0.5,0.1-0.6,0.2c0.5,0.8,1.1,1.9,1.8,3.2c0-0.3,0.1-0.7,0.3-0.9c-1.1-1.6-1.5-2.3-1.6-2.4L54.7,11.2z M54.8,7.1
	c0.3,2.1,0.8,4.2,1.7,6.2c0.2-0.1,0.5-0.2,0.8-0.2c0.5,0.1,0.6,0.5,1.3,1.5l0.6,1c-0.8-1.9-1.3-3.9-1.6-5.9c0-0.6,0-1.1,0-1.6
	c0-0.8,0-1.6,0.2-2.4c-0.6-1.4-1.2-2.7-2-3.9c-0.5,0-1.1,0.1-1.1,3.4c-0.1,0.5,0,1.2,0,1.9L54.8,7.1z M58.3,6.5
	c0,0.4-0.1,0.9-0.1,1.5c0,0.5,0,1,0,1.6c0.2,2,0.7,3.9,1.4,5.7c0.1,0,0.1,0,0.2,0c0.5,0.1,0.7,0.5,1.4,1.5l0.7,1
	c0.2-0.1,0.4-0.1,0.5-0.1c-0.5-1.5-0.9-3-1.2-4.5c0,0-2.6-5.7-3.1-6.7L58.3,6.5z M59.3,4.6c-0.3,0-0.6,0.1-0.8,1
	c0.5,1.1,2.8,6.2,2.8,6.2c0-0.3,0-0.6,0-0.9c0-0.9,0.1-1.7,0.2-2.6c-0.5-1.3-1.2-2.6-2-3.8L59.3,4.6z M61.7,9.2
	c0,0.5-0.1,1.1-0.1,1.8c0,0.4,0,0.8,0,1.3c0,0.3,0,0.6,0.1,0.9c1.2,2.8,2.4,5.3,3.2,7h0.3c0.1,0,0.2,0.1,0.3,0.2L65.3,20
	c-0.9-2.7-1.8-5.6-2.3-7.8C62.6,11.2,62.1,10.1,61.7,9.2z M62.5,7.5c-0.2,0-0.5,0.2-0.7,0.9l0.9,1.9C62.6,9.4,62.5,8.4,62.5,7.5z
	 M64.7,16.3c0-0.2,0-0.4-0.1-0.6l-0.3-0.8L64.7,16.3z M64.6,13.9c0-0.9,0.1-1.9,0.2-2.8c-0.5-1.2-1.1-2.3-1.8-3.4
	c0,0.9,0.1,1.8,0.2,2.7c0.1,0.6,0.2,1.2,0.3,1.8l1,2.3L64.6,13.9z M63.4,1.9c-0.3,1.3-0.5,2.6-0.4,4c0,0.4,0,0.8,0,1.2
	c0.3,0.1,0.4,0.3,0.6,0.7c0.2,0.3,0.5,0.9,0.9,1.6l0.5,1.2c0-0.1,0.1-0.1,0.1-0.2c0-0.8-0.1-1.7-0.1-2.4c-0.1-1.1,0-2.3,0.4-3.4
	c0.1-0.2,0.3-0.5,0.4-0.8c-0.3-1-0.6-1.8-0.8-2.3c-0.3-0.8-0.6-1-0.7-0.9S63.7,1.3,63.4,1.9L63.4,1.9z M66.1,4.4l-0.2,0.4
	c-0.3,1-0.4,2.1-0.3,3.1c0,0.6,0,1.3,0.1,2c0.2-0.1,0.3-0.1,0.5-0.1h0.3c0.5,0.1,0.8,0.8,1.3,1.8c0-0.5,0-1,0-1.5V9.6
	C67.1,7.6,66.6,5.8,66.1,4.4z M66.9,3.4c-0.1,0-0.3,0.2-0.4,0.5c0.4,1.2,0.9,2.7,1.4,4.4c0-0.3,0.1-0.6,0.2-0.8
	c0.1-0.2,0.2-0.4,0.3-0.7c-0.3-1-0.7-1.9-0.9-2.4C67.2,3.5,66.9,3.3,66.9,3.4L66.9,3.4z M68.6,7.3l-0.1,0.3
	c-0.2,0.6-0.3,1.3-0.3,1.9c0.3,1,0.6,2.1,0.8,3.2c0.2-0.1,0.4-0.2,0.6-0.2h0.3c0.1,0,0.2,0.1,0.2,0.1C69.6,10.7,69.1,8.8,68.6,7.3
	L68.6,7.3z M69.3,6.3c-0.1,0-0.3,0.2-0.5,0.5c0.4,1.3,0.9,2.9,1.4,4.7c0-0.4,0.1-0.8,0.3-1.2l-0.1-1.7c-0.2-0.5-0.4-1-0.5-1.3
	C69.7,6.4,69.4,6.2,69.3,6.3L69.3,6.3z M70.7,1.3c-0.2,0.5-0.2,1.1-0.2,1.6c0,1.4,0.2,3.4,0.3,5.5l0.3,0.8c0.2-0.2,0.4-0.4,0.7-0.4
	c-0.1-1.4-0.2-2.6-0.2-3.4c0-0.4,0-0.9,0.2-1.3c0.1-0.2,0.3-0.4,0.6-0.4c0.1,0,0.1,0,0.2,0c-0.2-0.4-0.3-0.8-0.5-1.1
	c-0.4-0.9-1-1.5-1.2-1.5S70.8,1.1,70.7,1.3L70.7,1.3z M72.9,4.5c-0.2-0.3-0.4-0.5-0.5-0.4c-0.2,0.4-0.3,0.8-0.3,1.2
	c0,0.9,0.1,2.2,0.2,3.7c0.2,0.2,0.4,0.5,0.5,0.8c0.2,0.5,0.4,1.2,0.7,2.1c-0.2-1.7-0.3-3.2-0.3-4.2c0-0.3,0-0.6,0.1-0.9V6
	C73.2,5.5,73.1,5,72.9,4.5z M74.2,11.6c-0.2-1.2-0.4-2.4-0.5-3.3c0,0.9,0.2,2,0.3,3.4L74.2,11.6z M74.1,7.2c0.1,1,0.3,2.6,0.6,4.5
	c0.1,0,0.1,0.1,0.2,0.2c0-0.4-0.1-0.7-0.1-1c-0.1-1-0.2-1.8-0.2-2.2S74.3,7.7,74.1,7.2z M75.2,9.5c-0.1-0.2-0.1-0.4-0.2-0.6l0.1,0.6
	L75.2,9.5z M75.4,16.5l-0.2-2.1l-0.1-1l-0.2-0.5c0.2,1.4,0.4,2.9,0.5,4.4C75.4,17,75.4,16.7,75.4,16.5z M75.3,10.1
	c0,0.1,0,0.2,0,0.3c0,0.1,0,0.3,0,0.6l0.3,2.6c0.1,0.3,0.2,0.7,0.4,1.2c-0.1-1.4-0.2-2.5-0.2-3.1s-0.2-1-0.4-1.5L75.3,10.1z
	 M76.3,18.1L76.2,17L76,16.2L76.3,18.1z M76.6,12.6c-0.1-0.4-0.2-0.7-0.3-1c0,0.3,0,0.8,0.1,1.4C76.4,12.8,76.5,12.7,76.6,12.6
	L76.6,12.6z M77,14.3c-0.1-0.3-0.1-0.6-0.2-0.9c0,0.3,0.1,0.7,0.1,1.1L77,14.3z M77,18.2c-0.1-1.1-0.3-2.1-0.4-3l0.1,1.6
	C76.8,17.3,76.9,17.7,77,18.2z M77.2,21l-0.4-1.5l0.1,1.8l0.3,0.6L77.2,21z M77.3,24.4v-1.3L77,22.5l0.2,0.8c0,0.3,0.1,0.6,0.1,0.9
	L77.3,24.4z M77.4,34.2l-0.1,0.6l0.3,0.3l0.1-0.6L77.4,34.2z M77.5,14.3c0,0.2,0,0.5,0,0.7c0.1,0.2,0.2,0.4,0.3,0.5l0.1,0.3
	c0-0.6-0.2-1.2-0.4-1.7L77.5,14.3z M78.1,18.9v-0.6c-0.2-0.8-0.5-1.5-0.7-2c0,0.6,0,1.3,0.1,2.1l0.1,0.5c0.1,0.2,0.2,0.3,0.3,0.5
	C78,19.1,78,19,78.1,18.9L78.1,18.9z M78.3,33.5l-0.1,0.8l0.1,0.2l0.2,0.3l0.1-0.9L78.3,33.5z M78.3,32.6l0.1,0.3l0.2,0.3L78.3,32.6
	L78.3,32.6z M78.5,30.6v0.9l0.3,0.6l0.1-0.8C78.7,31,78.6,30.8,78.5,30.6L78.5,30.6z M78.5,28.7v0.9l0.3,0.7V30l-0.1-0.4
	C78.7,29.4,78.7,29,78.5,28.7L78.5,28.7z M78.5,20L78.5,20z M78.7,17c0,0.3-0.1,0.5-0.1,0.8c0.1-0.1,0.2-0.2,0.3-0.3
	c-0.1-0.3-0.2-0.6-0.3-0.9L78.7,17z M79.1,18C79,18.1,79,18.2,79,18.2c-0.1,0.1-0.1,0.2-0.2,0.4v0.3c0.2,0.6,0.3,1.2,0.5,1.8
	c0-0.3,0.1-0.6,0.2-0.8C79.3,19.2,79.2,18.6,79.1,18L79.1,18z M79.5,24.7v0.8l0.5,1L79.5,24.7z M79.7,21.6v0.5l0.1,0.4l0.7,1.3
	l-0.5-2.3C79.8,21.5,79.8,21.5,79.7,21.6L79.7,21.6z M79.7,20.8v0.3V20.8z M80.4,21c-0.1-0.6-0.3-1.1-0.5-1.7l0.4,1.7L80.4,21z
	 M67.9,69.8c-4.9,4.7-9.4,8.9-11,9.4c-1.3,0.5-4.2,2.6-9,5.2c-3.4,1.9-7.1,3.8-10.9,5.6c3.8-1.8,7.4-3.6,10.9-5.5
	c4.7-2.5,7.5-4.5,9.1-5.1s6.7-5.2,12-10.1L67.9,69.8z M65,69.5l-1.1,1.1l1.3-0.4l1.4-1.4L65,69.5z M63.3,69.7l1.4-0.6l2.1-2.2
	L65,67.8L63.3,69.7z M62.4,70.5l-0.7,0.7l1.2-0.3l1-1L62.4,70.5z M60.8,70.6l1.3-0.5l1.5-1.6l-1.6,0.8L60.8,70.6z M60.1,71.4
	l-0.3,0.4l1-0.2l0.5-0.6C60.9,71.1,60.5,71.2,60.1,71.4L60.1,71.4z M58.7,71.4l1.2-0.4l1-1l-1.5,0.7L58.7,71.4z M58,72.1
	c0.3,0,0.6-0.1,0.9-0.1l0.2-0.2L58,72.1z M57,71.7l-0.3,0.3l1-0.3l0.5-0.5C57.8,71.3,57.4,71.5,57,71.7L57,71.7z M55.9,72l-0.6,0.2
	l0.5-0.1L55.9,72z M55.5,71.6l1.2-0.4l1-1c-0.5,0.3-1,0.5-1.5,0.8L55.5,71.6z M54.5,71.2c0.4-0.2,0.9-0.4,1.3-0.6l1.8-1.9
	c-0.6,0.4-1.2,0.8-1.9,1.2L54.5,71.2z M53.7,72.1c0.3,0,0.6,0,0.8-0.1l0.4-0.4C54.5,71.8,54.1,71.9,53.7,72.1L53.7,72.1z M52.8,71.5
	L52.3,72c0.4-0.1,0.7-0.2,1.1-0.4l0.9-0.9C53.8,71.1,53.3,71.3,52.8,71.5L52.8,71.5z M51.6,72.1l-0.5,0.2h0.2L51.6,72.1z M51.2,71.8
	c0.4-0.2,0.8-0.4,1.3-0.6c0.4-0.4,1.7-1.8,1.7-1.8c-0.7,0.5-1.3,0.9-1.9,1.3L51.2,71.8z M50.3,71.3c0.5-0.3,1-0.6,1.6-1
	c0,0,2.5-2.7,3.3-3.7c-1,0.8-1.9,1.6-2.8,2.3C51.6,69.9,50.9,70.7,50.3,71.3L50.3,71.3z M49.3,72.3c0.3,0,0.5,0,0.8-0.1l0.6-0.6
	C50.3,71.9,49.8,72.2,49.3,72.3L49.3,72.3z M48,72.3c0.3-0.1,0.7-0.2,1-0.4l1.2-1.3c-0.6,0.5-1.2,0.9-1.8,1.2L48,72.3z M46.9,72.1
	c0.5-0.2,0.9-0.5,1.3-0.7l3.9-4.4c-1.1,1.1-2.2,2.1-3.3,3c-0.9,1.1-1.6,1.8-1.8,2L46.9,72.1z M43.1,73.3c-0.4,0.2-0.8,0.4-1.1,0.7
	l0.8-0.4L43.1,73.3z M42.3,72.6c0.3-0.1,0.5-0.2,0.8-0.3c2.5-1.3,6.7-5.7,10.8-10.1c1.9-1.9,3.7-3.9,5.3-5.5c0,0,3.1-4,4.5-5.9
	l-0.2-0.1c-1.4,0-6.3,5.5-11,10.9c-3.9,4.5-7.8,9-10.3,10.8L42.3,72.6z M41.1,72.6c2-0.9,6.6-6.1,11.1-11.2
	c4.8-5.5,9.3-10.9,11.3-11.1c0-0.6-0.7-2.4-0.7-3.6c-0.1-0.5,0.2-1.1,0.7-1.3c0.2-0.1,0.4-0.1,0.6-0.1c1.1,0.1,2.1,0.5,3,1l0.2-0.2
	c-1.9-1.1-4.1-2.3-5.3-2.3c-0.1,0-0.3,0-0.4,0c-0.2,0.1-0.4,0.4-0.4,0.8c0,1.2,0.9,3.2,0.9,4c0,0.1-0.1,0.3-0.1,0.4v0.2L61.8,49
	c-1.3,0-6.2,5.9-10.9,11.8c-3.8,4.8-7.6,9.5-10,11.5C41,72.3,41.2,72.4,41.1,72.6L41.1,72.6z M38.3,74.4l0.9-0.5l1.1-0.8l-0.4,0.1
	C39.5,73.6,38.9,74,38.3,74.4L38.3,74.4z M62.5,33.8c-0.7-0.4-1.3-0.9-1.9-1.2c-0.4-0.3-0.8-0.4-1.3-0.5c-0.4,0-0.7,0.2-0.8,0.8
	c0,0.1,0,0.2,0,0.3c0,1.3,1.4,3.6,1.4,4.1c0,0.1-0.1,0.2-0.2,0.3c0.5,0.4,1,0.8,1.5,1.1c-0.6-1.1-1-2.4-1.1-3.6c0-0.1,0-0.3,0-0.4
	c0.1-0.7,0.6-1.1,1.3-1.1C61.8,33.5,62.2,33.6,62.5,33.8L62.5,33.8z M56.3,19.2c-0.7-1.2-1.5-2.6-2.6-4.5c0.7,3.7,2,7.2,3.9,10.4
	c0.9,1.6,1.7,3,2.4,4c0.4,0.6,0.8,1.3,1.1,2c0,0.1,0,0.2-0.1,0.2c0.5,0.4,1.1,0.7,1.4,0.9c-0.4-0.8-1.7-2.8-2.9-5.1
	C58.1,24.6,57.1,22,56.3,19.2z M58.3,19c-0.7-1.5-1.5-3.1-2.1-4.7c0,0.1,0,0.2,0,0.3c0,0.2,0,0.4,0,0.5s0,0.2,0,0.3s1.7,3,2.3,4
	v-0.2L58.3,19z M56.6,13.7c0.5,0.8,1,1.7,1.8,2.9c0-0.3,0.1-0.5,0.3-0.8c-0.5-0.8-1-1.6-1.5-2.3C57,13.6,56.8,13.6,56.6,13.7z
	 M58.4,17.9c0-0.1,0-0.2,0-0.3l-0.6-1.1L58.4,17.9z M59.3,22.8c-0.2-0.7-0.4-1.4-0.5-2c-0.7-1.1-1.5-2.5-2.5-4.2
	c0.1,0.9,0.3,1.7,0.5,2.6C57.5,20.4,58.4,21.6,59.3,22.8z M60.2,18.1L59,16.3c-0.1,0.2-0.1,0.4-0.1,0.6c0,0.1,0,0.3,0,0.5
	c0,0,1.7,2.9,2.2,3.8c0-0.4-0.1-0.7-0.1-1.1C60.7,19.4,60.4,18.8,60.2,18.1z M61.6,24.1c-0.2-0.6-0.3-1.2-0.4-1.8
	c-0.7-1.1-1.4-2.4-2.3-4c0,0.2,0,0.5,0,0.7c0.9,1.8,1.7,3.5,2.4,4.8L61.6,24.1z M63.7,21.5l-2-2.9c-0.1,0.2-0.2,0.4-0.2,0.6l0.5,0.9
	c0.6,1.1,1.2,2,1.7,2.9c0-0.2,0-0.4,0-0.5C63.6,22.1,63.6,21.8,63.7,21.5L63.7,21.5z M62.4,18.3c-0.1,0-0.2,0-0.3,0l1,1.6
	c-0.2-0.5-0.4-1-0.6-1.5L62.4,18.3z M63.9,19.3l-1.8-4c0.2,0.9,0.5,1.8,0.9,2.8C63.2,18.3,63.5,18.7,63.9,19.3L63.9,19.3z M64,20.6
	l-0.4-0.9L64,20.6z M64.4,22.8l-0.3-0.7v0.2c0,0.5,0,1,0.1,1.4c0.8,1.2,1.4,2.2,2,3C65.7,25.7,65,24.3,64.4,22.8L64.4,22.8z
	 M65.2,21.9l-0.8-1.1c-0.1,0.1-0.2,0.2-0.2,0.4l0.3,0.7l0.2,0.3c0.6,1,1.1,1.8,1.5,2.5c0-0.2,0-0.5,0-0.7L65.2,21.9z M66.2,22.5
	l-0.4-1.1c-0.2-0.3-0.4-0.5-0.7-0.8l0.5,1.1L66.2,22.5z M66.4,25.9L66,25.3L66.4,25.9z M67.8,22.5c-0.6-1.2-1.4-3.1-2.4-5.1
	c0.4,1.5,0.8,3,1.4,4.4l0.5,0.7c0.1,0,0.2,0,0.3,0L67.8,22.5z M69.5,24.1c-0.7-1.9-1.2-3.9-1.4-6l-2-4.3c0.4,1.9,1.4,5.1,2.4,8
	c0.2,0.7,0.5,1.4,0.7,2.1L69.5,24.1z M68.7,13.2c-0.1-0.6-0.2-1.2-0.4-1.7c0,0.4,0.1,0.8,0.1,1.1L68.7,13.2z M69.2,15.5l-0.5-1
	c0,0.2-0.1,0.4-0.1,0.7c0.4,1.9,1,3.7,1.6,5.5l-0.6-2.8C69.5,17,69.3,16.2,69.2,15.5L69.2,15.5z M71,13.7l-0.1-2.1
	c0,0.2,0,0.5,0,0.7s0,0.5,0,0.8L71,13.7z M71.4,20.2l-1.3-2.7c0,0,0.9,4.8,1.2,6C71.2,22.5,71.3,21.3,71.4,20.2L71.4,20.2z
	 M71.4,17.5l-0.2-0.8c0,0.4,0.1,0.7,0.2,1L71.4,17.5z M72.6,16c-0.1,0.1-0.2,0.3-0.3,0.4l0.6,1.1l-0.1-0.9L72.6,16z M73.1,13
	c0.1-0.1,0.2-0.3,0.2-0.4c-0.3-0.9-0.6-1.7-0.8-2.3c0.1,1.1,0.2,2.2,0.4,3.3C72.9,13.4,73,13.2,73.1,13z M73.4,30.4
	c-0.1-0.1-0.1-0.2-0.2-0.4l-0.1-0.2l-0.6-0.9l-0.5-0.6c-0.1,0.3-0.1,0.7-0.1,1c0.8,1.2,1.5,2.2,2.1,3c0-0.3,0-0.7,0-1l-0.4-0.6
	C73.5,30.5,73.5,30.5,73.4,30.4L73.4,30.4z M74.1,16L74,14.8c-0.2-0.6-0.3-1.1-0.5-1.6c-0.2,0.5-0.2,1-0.2,1.5v0.6
	C73.7,15.5,74,15.7,74.1,16z M74.4,14.7l0.3,1.3c-0.2-1.4-0.3-2.7-0.5-3.9c-0.1,0-0.1,0.1-0.2,0.2C74.2,13,74.3,13.9,74.4,14.7
	L74.4,14.7z M74,19.8l1,2.1c0-0.2,0-0.5-0.1-0.7c-0.1-0.9-0.3-2.3-0.6-4c-0.2-0.5-0.5-0.9-0.9-1.3c0,0.7,0,1.5,0.1,2.2
	C73.7,18.5,73.8,19.2,74,19.8z M74.8,23.9l0.3,1.7v-0.5c0-0.3-0.1-0.5-0.1-0.7L74.8,23.9z M75,31.4c0-0.2,0.1-0.5,0.1-0.7l-0.3-0.4
	c-0.1,0.1-0.1,0.2-0.1,0.3L75,31.4z M76,28.8l-0.2-0.6v0.3L76,28.8L76,28.8z M75.9,23.8L76,24v-0.7l-0.1-0.8
	C75.8,23,75.8,23.4,75.9,23.8L75.9,23.8z M75.9,25.4l0.1,0.3v-0.5L75.8,25L75.9,25.4z M76.4,32.5l-0.2-0.3c0,0.3-0.1,0.6-0.1,0.9
	l0.3,0.4L76.4,32.5z M75.9,33.8c0.1,0.2,0.1,0.4,0.2,0.5l0.2-0.2L75.9,33.8L75.9,33.8z M76.7,35.7l-0.3-0.3c-0.1,0.5-0.2,1-0.4,1.5
	c-0.1,0.3-0.3,0.7-0.4,1.1l0.2,1l0.2-0.4C76.3,37.6,76.5,36.7,76.7,35.7L76.7,35.7z M76.5,28.1v0.6l0.2,0.5v-0.8L76.5,28.1z
	 M76.7,27.3l-0.2-0.9v0.5L76.7,27.3z M76.7,34.7l-0.2,0.1l0.2,0.2L76.7,34.7z M76.7,34c0-0.3,0-0.5,0.1-0.8
	C76.7,33.4,76.6,33.7,76.7,34L76.7,34z M77.2,39.2c-0.1,0.5-0.3,0.9-0.4,1.3c-0.1,0.2-0.2,0.5-0.3,0.7c0.1,0.4,0.2,0.8,0.3,1.1
	c0.3-0.7,0.5-1.3,0.7-2L77.2,39.2z M77.4,36.4l-0.2-0.2l0.1,0.6L77.4,36.4z M77.5,35.9v-0.2l-0.3-0.3v0.2L77.5,35.9z M77.7,41.3
	c-0.1,0.4-0.3,0.8-0.4,1.1l-0.4,0.7c0,0.3-0.1,0.5-0.3,0.7l-0.3,0.4l0.3,0.1l0.4,0.2l0.3-0.5c0.3-0.6,0.5-1.2,0.8-1.8L77.7,41.3z
	 M77.8,36.7c-0.1,0.5-0.2,1-0.3,1.4l0.2,1.1c0.2-0.7,0.3-1.5,0.4-2.3C78.1,36.9,77.9,36.8,77.8,36.7L77.8,36.7z M77.8,32.8l-0.2-0.2
	l0.2,0.5L77.8,32.8z M77.8,31.2L77.7,31L77.8,31.2z M77.8,29v0.9l0.3,0.6v-1L77.8,29z M78.3,36.4L78,36.1
	C78.1,36.2,78.2,36.4,78.3,36.4L78.3,36.4z M77.8,28l0.3,0.6v-1l-0.3-0.7L77.8,28z M78.1,35.4v0.2V35.4z M79.1,37.2l-0.4-0.4
	c-0.2,1.2-0.4,2.3-0.7,3.5l0.1,0.6l0.1,0.4C78.6,40,78.9,38.6,79.1,37.2L79.1,37.2z M79.2,36.4L78.8,36v0.3l0.4,0.4L79.2,36.4z
	 M79.1,24l0.1-1.2C79.1,23,79,23.3,79,23.6L79.1,24z M79.3,35.7l0.1-0.7L79,34.5l-0.1,0.8L79.3,35.7z M79.8,30.2l0.1-1.6l-0.5-1
	l-0.1,1.6L79.8,30.2z M80.2,24.8v-0.2l-0.1-0.2L80.2,24.8z M65.1,66.1l-2,2.2l1.7-0.9c1-1,2-2.1,3-3.2l-2.1,1.2L65.1,66.1z
	 M62.2,67.6l-2,2.1l1.5-0.8c0.8-0.8,1.6-1.7,2.4-2.5L62.2,67.6z M59,69.5l-1.2,1.3c0.4-0.2,0.9-0.4,1.3-0.6l1.7-1.8L59,69.5z
	 M59.3,67.6c-0.8,0.8-1.5,1.6-2.1,2.3c0.5-0.3,1.1-0.6,1.6-0.9c0.9-0.9,1.8-1.9,2.7-3C60.7,66.6,60,67.1,59.3,67.6L59.3,67.6z
	 M60.6,64.5c-1.3,1.4-2.5,2.8-3.6,4c0.7-0.4,1.3-0.9,2-1.3c1.3-1.4,4.2-4.7,4.2-4.7C62.4,63.1,61.5,63.8,60.6,64.5L60.6,64.5z
	 M56.1,68c-0.7,0.8-2.3,2.5-2.3,2.5c0.5-0.3,1.1-0.6,1.7-1c1-1,2-2.2,3.1-3.4C57.7,66.8,56.9,67.4,56.1,68z M57.8,64.5
	c-1.5,1.8-2.9,3.4-4.2,4.8c0.7-0.5,1.4-1,2.1-1.6c1.6-1.8,3.3-3.8,5.2-6C60,62.5,57.8,64.5,57.8,64.5z M61.9,57.8
	c-2.7,3.3-5.3,6.4-7.5,9c1-0.8,2-1.7,3-2.6c1.2-1.4,5.9-7.1,6.9-8.4C63.7,56.3,62.8,57,61.9,57.8z M55.6,63.8
	c-2.3,2.7-4.3,5-5.7,6.5c0.7-0.5,1.4-1.1,2.2-1.7c2.1-2.4,4.7-5.4,7.4-8.7C58.3,61.1,55.6,63.8,55.6,63.8L55.6,63.8z M62.7,54.2
	c-0.9,0.8-1.9,1.7-3,2.8c-3.1,3.9-6,7.4-8.3,10.1c1.3-1.2,2.6-2.4,3.9-3.7c1.5-1.8,3.2-3.9,4.9-6C61,56.4,61.9,55.3,62.7,54.2
	L62.7,54.2z M65.1,49.9c-1.1,1.5-2.2,3-3.4,4.5c0.7-0.6,1.4-1.2,2.1-1.7l1.4-1.9C65.2,50.5,65.2,50.2,65.1,49.9L65.1,49.9z
	 M65.5,48.6l0.6-0.8h-0.2C65.7,48,65.5,48.2,65.5,48.6L65.5,48.6z M67.3,48c-0.2-0.1-0.5-0.1-0.7-0.2l-1.1,1.5
	c0,0.3,0.1,0.6,0.2,0.9C66.3,49.5,66.8,48.8,67.3,48z M68,47.1l-0.6-0.3l-0.4,0.6c0.2,0,0.5,0.1,0.7,0.2L68,47.1z M67.8,46.2
	l-0.2,0.2l0.6,0.3l0.1-0.2L67.8,46.2z M59.7,24c-0.9-1-1.7-2.1-2.4-3.3c0.7,2.1,1.6,4.2,2.6,6.2c1.6,3.1,3.1,5.2,3.1,5.8
	c0,0.1-0.1,0.2-0.2,0.3c0.5,0.4,1,0.7,1.5,1c-0.3-0.7-1.5-2.7-2.7-5C61,27.3,60.3,25.7,59.7,24z M61.8,25.6L61,24.1
	c-0.5-0.6-0.9-1.3-1.4-2c0.2,0.6,0.3,1.2,0.6,1.8l0.2,0.3C61,24.8,61.5,25.3,61.8,25.6L61.8,25.6z M62,21c0.7,1.5,1.3,2.8,1.9,4
	c-0.1-0.3-0.1-0.7-0.2-1C63.2,23.1,62.6,22.2,62,21z M62.9,24l-1.3-2.8c0,0.3,0.1,0.6,0.1,0.9C62.1,22.9,62.5,23.5,62.9,24L62.9,24z
	 M64.4,27.1l-0.3-0.6c-0.8-1-1.5-2-2.2-3c0.1,0.5,0.3,1.1,0.4,1.6l0.6,0.7c0.7,0.7,1.1,1.2,1.5,1.6L64.4,27.1z M66.8,28.8l-0.2-0.6
	c-0.8-1-1.6-2.1-2.3-3.2c0.1,0.5,0.2,1,0.3,1.5c0.3,0.4,0.6,0.7,0.9,1.1L66.8,28.8z M67.6,26.5l-0.8-1.6c0,0.2,0,0.5,0,0.7
	c0.8,1.3,1.5,2.4,2.2,3.2l-0.1-0.5l-1-2.2l0.1,0.3c0.1,0.1,0.1,0.3,0.2,0.5L68,27c-0.2,0-0.2,0-0.2,0l-0.2-0.3L67.6,26.5L67.6,26.5z
	 M68.3,29.3l0.9,1l-0.1-0.6c-0.8-1-1.5-2-2.2-3.1c0,0.2,0.1,0.5,0.1,0.7l0.5,1.1C67.7,28.7,68,29,68.3,29.3L68.3,29.3z M66.5,36.6
	L66,36.4c0.9,0.5,1.8,1.1,2.6,1.4c0.6,0.3,1.2,0.6,1.8,0.9c-0.5-1.6-1.1-3.1-1.9-4.6c-0.5-1.3-1-2.8-1.5-4.4
	c-0.4-0.3-0.9-0.9-1.8-1.8c0.1,0.1,0.1,0.3,0.1,0.4c0,0.1,0,0.2-0.1,0.2c0.4,1.3,0.9,2.5,1.4,3.6c1.1,2.5,2.2,4.3,2.2,5
	c0,0.2-0.1,0.3-0.2,0.4C67.9,37.4,67.1,37.1,66.5,36.6L66.5,36.6z M64.5,30.4c1.2,2.7,2.5,4.6,2.5,5.3c0,0.1-0.1,0.3-0.2,0.3
	c-0.2,0-0.3,0-0.5-0.1l0.4,0.2c0.6,0.3,1.1,0.7,1.8,0.9c-0.6-1.6-1.3-3.2-2.2-4.7c-0.5-1.2-1-2.6-1.5-4c-0.7-0.6-1.4-1.3-2-2.1
	C63.3,27.7,63.9,29.2,64.5,30.4L64.5,30.4z M62.2,28.7c1.4,2.9,2.8,4.9,2.8,5.5c0,0.1-0.1,0.2-0.2,0.3c-0.1,0-0.2,0-0.2,0
	c0.8,0.5,1.5,0.9,1.8,1c-0.2-0.7-1.3-2.6-2.4-4.9c-0.5-1.1-1-2.4-1.5-3.8c-0.7-0.5-1.4-1.1-1.9-1.9C61.1,26.3,61.6,27.6,62.2,28.7
	L62.2,28.7z M69.4,31.2c-0.3-0.3-0.8-0.8-1.4-1.4c0,0.1,0.1,0.2,0.1,0.2c0,0.1-0.1,0.3-0.2,0.3c0.3,1.3,0.7,2.5,1.1,3.8
	c1,2.3,1.9,4,1.9,4.8c0,0.2-0.1,0.4-0.3,0.5c-0.8-0.2-1.5-0.5-2.2-1c-1.1-0.5-2.6-1.5-3.6-2c-0.4-0.2-0.8-0.4-1.2-0.4
	c-0.4,0-0.7,0.2-0.8,0.7c0,0.1,0,0.2,0,0.3c0,1.2,1,3.1,1,3.7c0,0.1-0.1,0.3-0.2,0.3c-0.2,0-0.3,0-0.5-0.1c0.7,0.5,1.4,0.9,2.1,1.3
	c-0.4-1.1-0.7-2.2-0.8-3.3c0-0.2,0-0.4,0.1-0.5c0.1-0.6,0.7-1,1.3-1c0.5,0,1,0.2,1.4,0.4c1,0.5,2.5,1.3,3.6,1.8l0.7,0.4l0.6-1.1
	c-0.3-0.8-0.7-1.8-1.2-2.9C70.4,34.5,69.8,32.8,69.4,31.2L69.4,31.2z M69.8,26.7l-0.4-0.6c0,0.4-0.1,0.7-0.1,1.1
	c0.6,1.1,1.4,2.2,2.2,3.2c0-0.3,0-0.5,0-0.8v-0.3L71,28.7c-0.1,0.1-0.1,0.1-0.2,0.1c-0.2-0.1-0.2-0.1-0.2-0.1l-0.2-0.5
	C70.2,27.8,70,27.3,69.8,26.7L69.8,26.7z M70.5,26.9L70,25.5l0.2,0.9L70.5,26.9z M70,30.7l-0.2-0.3l0.1,0.5l0.3,0.3L70,30.7z
	 M71.6,28.3c0-0.2,0.1-0.4,0.2-0.6l-0.8-1L71.6,28.3z M71.6,31.3c-0.7-0.9-1.4-1.8-2-2.7c0.3,0.7,0.6,1.4,0.8,1.9l1.3,1.4L71.6,31.3
	z M73,37c-0.4-1.4-0.8-2.9-1.1-4.4c-0.3-0.3-0.6-0.6-1.1-1.1c0,0.1,0,0.4-0.2,0.4c-0.2,0-0.3-0.1-0.4-0.2c0.4,1.4,0.8,2.8,1.2,4
	c0.4,1,0.8,1.8,1,2.5C72.5,37.8,72.7,37.5,73,37L73,37z M72,31.1l0.3,0.4L72,30.6C72,30.8,72,31,72,31.1z M72.8,32.7
	c-0.2-0.2-0.4-0.5-0.6-0.7l0.1,0.4c0.2,0.2,0.4,0.4,0.6,0.5L72.8,32.7z M73.5,32.8l0.6,0.6V33c-0.4-0.5-0.9-1.1-1.3-1.8
	c0.2,0.5,0.3,0.8,0.4,1.2L73.5,32.8z M74.6,32.9l0.1-0.6l-0.2-0.4v0.2c0,0.2,0,0.5,0,0.7L74.6,32.9z M75,37.9l-0.2-1
	c-0.2,0.5-0.5,1.1-0.8,1.7l0.3,0.8C74.6,38.9,74.8,38.4,75,37.9L75,37.9z M75,34.9l-0.2-0.2l0.1,0.6L75,34.9z M74.7,34
	c0.1,0.1,0.3,0.2,0.4,0.4v-0.2l-0.4-0.4L74.7,34z M74.7,41c0.2-0.5,0.5-0.9,0.7-1.3l-0.1-0.3l-0.2-0.7c-0.2,0.4-0.4,0.9-0.7,1.4
	C74.6,40.4,74.7,40.7,74.7,41L74.7,41z M75,43c0.3-0.6,0.7-1.2,0.9-1.7l-0.3-0.9c-0.2,0.5-0.5,1-0.8,1.5c0,0.2-0.1,0.3-0.2,0.4
	l-0.2,0.4l0.2,0.1L75,43z M75.4,43.2c0.2,0.1,0.5,0.2,0.7,0.3l0.2-0.3c0-0.4-0.1-0.8-0.2-1.2C76,42.3,75.7,42.7,75.4,43.2L75.4,43.2
	z M76.5,45.4l0.2-0.3l-0.3-0.1L76,44.7l-0.2,0.4L76.5,45.4z M77.5,46.2l-0.8-0.3l-0.4,0.6c0.3,0,0.6,0,0.9,0.1L77.5,46.2z
	 M64.5,65.1l-1.1,1.2l2-1.2c1.2-1.3,2.5-2.7,3.8-4.1c-0.7,0.4-1.4,0.8-2.1,1.3C66.2,63.2,65.4,64.2,64.5,65.1L64.5,65.1z M63.2,64.9
	c-1,1.2-2.1,2.3-3,3.3l1.8-1.1l3.5-3.8L63.2,64.9z M65,61.1c0,0-3.5,4-4.3,5l2.2-1.5c0,0,3.2-3.6,4.4-5C66.6,60,65.8,60.5,65,61.1z
	 M67,56.9c-1.6,1.9-3.2,3.8-4.8,5.7c0.9-0.7,1.7-1.3,2.5-1.9c1.3-1.5,2.6-3.1,3.9-4.6C68,56.3,67.5,56.6,67,56.9z M63.1,59.8
	c-1.9,2.2-3.7,4.4-5.4,6.3l2.5-2c0.7-0.8,4.3-5,5.3-6.2C64.8,58.5,64,59.1,63.1,59.8z M65.7,54.8c-1.9,2.4-3.9,4.9-5.8,7.1
	c1-0.9,2-1.7,2.9-2.5c1.4-1.7,2.8-3.4,4.1-5.1C66.5,54.5,66.1,54.6,65.7,54.8L65.7,54.8z M68.5,48.4c-0.2-0.1-0.4-0.2-0.7-0.2
	c-0.7,0.9-1.3,1.8-2,2.7c0.1,0.3,0.1,0.6,0.1,0.9l0.7-0.9c0-0.5,0.2-1,0.7-1.2c0.1,0,0.1,0,0.2,0L68.5,48.4z M69,47.7l-0.6-0.3
	l-0.3,0.4c0.2,0.1,0.4,0.2,0.7,0.2L69,47.7z M68.2,45.7l0.5,0.5l0.2-0.2C68.6,45.9,68.4,45.8,68.2,45.7L68.2,45.7z M71.9,41.3
	L71.2,41l-0.2,0.2c0.3,0.1,0.5,0.2,0.7,0.3L71.9,41.3z M72.2,40.7c-0.2-0.1-0.4-0.2-0.7-0.3l0.6,0.4L72.2,40.7z M72.4,40.3
	c0-0.3-0.1-0.6-0.2-0.9L71.8,40C72,40.1,72.2,40.2,72.4,40.3L72.4,40.3z M72.9,41.8l-0.5-0.2l-0.3,0.1l0.7,0.3L72.9,41.8z
	 M73.4,38.5l-0.3-0.8l-0.6,1.1c0.1,0.3,0.2,0.6,0.3,0.9C73,39.3,73.2,38.9,73.4,38.5L73.4,38.5z M74.2,34.2
	c-0.2-0.2-0.5-0.5-0.8-0.9c0,0.2-0.1,0.3-0.3,0.3c-0.3-0.1-0.5-0.2-0.7-0.4c0.2,1.1,0.6,2.2,0.8,3.2C73.6,35.6,74,34.9,74.2,34.2
	L74.2,34.2z M73.2,41.4c0.3-0.5,0.5-0.9,0.8-1.4l-0.3-0.9c-0.3,0.6-0.7,1.3-1.1,1.9L73.2,41.4z M73.7,41.6c0.2,0.1,0.4,0.2,0.7,0.3
	l0.1-0.2c0-0.3-0.1-0.7-0.2-1L73.7,41.6z M74.7,43.6l0.2-0.3l-0.4-0.2L74.1,43L74,43.3L74.7,43.6z M75.7,46.6l0.6-1
	c-0.3-0.1-0.5-0.2-0.8-0.3c-0.6,1-1.4,2.1-2.2,3.2c0,0.2,0,0.5-0.3,0.6c-0.1,0-0.1,0-0.2,0l-0.4,0.5c0.3,0.1,0.5,0.2,0.7,0.3
	c0.5-0.7,1-1.4,1.5-2.1c0-0.2,0.1-0.4,0.2-0.6C75.1,47,75.4,46.8,75.7,46.6L75.7,46.6z M75.2,49.5c0.6-0.9,1.2-1.7,1.7-2.5
	C76.8,47,76.6,47,76.4,47c-0.1,0-0.3,0-0.4,0l-0.8,1.1c0,0.1,0,0.2,0,0.4C75.2,48.9,75.2,49.2,75.2,49.5L75.2,49.5z M68.6,58.6
	c-1.3,1.6-2.7,3.2-4.1,4.7c0.7-0.5,1.5-1,2.2-1.5c1.2-1.3,2.4-2.7,3.5-4C69.7,58.1,69.1,58.3,68.6,58.6L68.6,58.6z M71.3,56.5
	c0-0.3,0-0.7,0-1.1c-0.6,0.7-1.2,1.5-1.8,2.2c0.4-0.2,0.9-0.4,1.3-0.5L71.3,56.5L71.3,56.5z M69.3,55.9c-1,1.2-2,2.4-3,3.6
	c0.7-0.5,1.4-0.9,2-1.3c1-1.2,2.1-2.5,3-3.7c0.1-0.4,0.3-0.7,0.7-0.9l0.9-1.1l-0.8-0.3c-0.8,1-1.6,2-2.4,3c0,0.3-0.1,0.6-0.4,0.7
	L69.3,55.9z M69.3,54.1l-1.4,1.8c0.4-0.2,0.8-0.3,1.2-0.4l0.3-0.4C69.3,54.9,69.3,54.5,69.3,54.1L69.3,54.1z M68.7,50.1
	c-0.2,0-0.4-0.1-0.7-0.1L67.2,51c0,0.3,0,0.7,0.1,1L68.7,50.1z M69.6,48.9L69,48.6l-0.8,1c0.3,0,0.5,0.1,0.8,0.1L69.6,48.9z
	 M69.5,47.9l-0.2,0.3l0.7,0.3l0.2-0.3L69.5,47.9z M69.5,47.1l-0.6-0.3l-0.1,0.2l0.6,0.3L69.5,47.1z M69,45.5c0-0.3-0.1-0.6-0.2-0.8
	l-0.4,0.6C68.6,45.4,68.8,45.5,69,45.5z M69,43.5c0.4-0.7,0.9-1.3,1.3-2c-0.1,0-0.3,0-0.4,0c-0.4,0-0.8,0.2-0.9,0.7
	c-0.1,0.2-0.1,0.4-0.1,0.5C68.9,43,69,43.2,69,43.5L69,43.5z M69.4,45.1c0.7-1.1,1.4-2.1,2-3.1L71,41.7l-0.2-0.1
	c-0.5,0.8-1,1.6-1.6,2.5C69.3,44.5,69.4,44.8,69.4,45.1L69.4,45.1z M72.2,42.9l0.3-0.5l-0.7-0.3L71.3,43c0.2-0.1,0.5-0.2,0.8-0.2
	L72.2,42.9z M73,43.5c-0.2-0.1-0.4-0.1-0.6-0.2c-0.4,0.7-0.9,1.4-1.4,2.1c0.1,0.3,0.1,0.7,0.2,1c0.7-1,1.3-2,1.9-2.9L73,43.5z
	 M73.6,42.9L73,42.6L72.8,43c0.2,0,0.3,0.1,0.5,0.2l0.2,0.1L73.6,42.9z M73.2,42.2l0.7,0.3l0.1-0.2c-0.2-0.1-0.4-0.2-0.7-0.3
	L73.2,42.2z M71,44.6c0.4-0.4,0.7-0.8,1-1.3c-0.4,0-0.7,0.3-0.8,0.6C71.1,44.2,71.1,44.4,71,44.6L71,44.6z M71.8,48.6
	c0.2,0.1,0.5,0.2,0.8,0.2l0.2-0.3c0-0.3-0.1-0.7-0.1-1.1L71.8,48.6z M72,49.6l0.2-0.3c-0.2-0.1-0.5-0.2-0.7-0.3l-0.2,0.2L72,49.6z
	 M71,49.7l-0.5,0.7l0.7,0.3l0.6-0.6L71,49.7z M70.4,48.5l-0.2,0.2l0.7,0.3l0.2-0.2L70.4,48.5z M69.8,47.4l-0.1,0.2l0.6,0.3l0.2-0.3
	c-0.2-0.1-0.4-0.2-0.6-0.3L69.8,47.4z M70.7,46.1L70,47c0.2,0.1,0.5,0.2,0.7,0.2C70.8,46.8,70.8,46.4,70.7,46.1L70.7,46.1z
	 M70.5,45.4c0-0.2-0.1-0.5-0.1-0.8c0-0.2,0-0.3,0-0.5c-0.5,0.8-1,1.5-1.6,2.3l0.6,0.3L70.5,45.4z M69.8,50.6l-0.7-0.2l-1.8,2.4
	c0.1,0.3,0.1,0.7,0.1,1C68.3,52.7,69.1,51.6,69.8,50.6L69.8,50.6z M69.4,49.9c0.2,0.1,0.5,0.2,0.7,0.2l0.5-0.7L70,49.1L69.4,49.9z
	 M71.1,51.7c0.3,0,0.5,0.1,0.8,0.2l0.2-0.3l-0.7-0.3L71.1,51.7z M69.6,52.8l0.6-0.7c-0.3,0.1-0.5,0.4-0.4,0.7L69.6,52.8z M70.7,52.1
	l-1.2,1.5c0,0.3,0.1,0.7,0.1,1c0.7-0.8,1.3-1.6,1.9-2.4c-0.2,0-0.5-0.1-0.7-0.1L70.7,52.1z M72.4,51.1l0.4-0.6l-0.7-0.3l-0.4,0.6
	L72.4,51.1z M74.4,52.7c-0.2-0.2-0.4-0.4-0.7-0.4L74.4,52.7z M73.1,52.2l-0.6-0.5l-0.2,0.2L73.1,52.2z M73.1,54.2
	c-0.2,0-0.4,0-0.6,0c-0.1,0-0.3,0-0.4,0l-0.5,0.7c0,0.2-0.1,0.4-0.1,0.6c0,0.2,0,0.4,0,0.6c0.7-0.6,1.2-1.2,1.7-1.8L73.1,54.2z
	 M72.6,53.7c0.3,0,0.6,0,0.9,0.1l0.6-0.7l-0.8-0.3L72.6,53.7z M73.6,50.3c0.3,0.1,0.5,0.2,0.8,0.2l0.3-0.4c0-0.3-0.1-0.8-0.1-1.3
	c-0.2,0.5-0.5,1-0.9,1.4L73.6,50.3z M74.1,50.9c-0.3-0.1-0.5-0.1-0.8-0.2l-0.5,0.6l0.7,0.3L74.1,50.9z M74.9,45.3
	c-0.3-0.1-0.5-0.1-0.8-0.2c-0.3,0.5-0.7,1.1-1.1,1.6c0.1,0.4,0.2,0.8,0.3,1.2c0.6-1,1.2-1.8,1.8-2.7L74.9,45.3z M74,44.7l0.4-0.7
	l-0.7-0.3c-0.7,1.1-1.5,2.2-2.3,3.4c0,0.2-0.1,0.3-0.2,0.4l-0.4,0.5l0.7,0.3c0.4-0.6,0.8-1.2,1.2-1.7c0-0.4,0-0.7,0.2-1.1
	C73,45.1,73.5,44.8,74,44.7z M67,53.9c0-0.1,0-0.1,0-0.2c0-0.1,0-0.3,0-0.5l-0.6,0.8C66.6,54,66.8,54,67,53.9z M70.4,50.7
	c-1.8,2.4-3.7,4.9-5.7,7.3c0.7-0.6,1.4-1.1,2.1-1.5c0.9-1,1.7-2.1,2.5-3.1v-0.3c0-0.6,0.1-1.3,0.8-1.5c0.2-0.1,0.4-0.1,0.6-0.1
	L71,51L70.4,50.7z M75.1,43.8l0.7,0.3l0.2-0.3c-0.2-0.1-0.5-0.2-0.7-0.3L75.1,43.8z M75.6,44.5l-0.7-0.3l-0.3,0.5
	c0.3,0,0.5,0.1,0.8,0.2L75.6,44.5z M74.4,35.1c-0.3,0.7-0.6,1.3-0.9,2l0.1,0.3l0.2,0.5c0.3-0.7,0.6-1.3,0.9-1.8
	C74.5,35.8,74.4,35.4,74.4,35.1L74.4,35.1z M64.8,38.9c0,1.1,0.8,2.8,0.9,3.4c0,0.1-0.1,0.3-0.2,0.3c-0.4,0-0.8-0.2-1.2-0.4
	c0.9,0.6,1.8,1.2,2.8,1.6c-0.3-1-0.5-2-0.7-3.1c0-0.2,0-0.4,0.1-0.6c0.1-0.6,0.7-1,1.3-1c0.5,0,0.9,0.1,1.3,0.3
	c0.6,0.2,1.2,0.6,1.9,0.9l-0.6-0.5c-1.1-0.5-2.6-1.4-3.6-1.8c-0.4-0.2-0.8-0.3-1.2-0.3c-0.4,0-0.8,0.3-0.8,0.7
	C64.8,38.6,64.8,38.7,64.8,38.9z M59.8,46.9c0-0.6-1.1-2.9-1.1-4.4c-0.1-0.5,0.2-1,0.7-1.3c0.2-0.1,0.3-0.1,0.5-0.1
	c1.3,0,3.3,1.1,5.1,2.3c1.1,0.7,2.2,1.3,3,1.8l0.7-1c-0.1-0.5-0.2-0.9-0.2-1.4c0-0.2,0-0.5,0.1-0.7c0.1-0.6,0.7-1.1,1.4-1
	c0.2,0,0.4,0,0.7,0.1l0.2-0.3c-0.7-0.3-1.3-0.7-1.9-0.9c-0.3-0.2-0.7-0.3-1.1-0.3c-0.4,0-0.8,0.3-0.9,0.7c-0.1,0.2-0.1,0.3-0.1,0.5
	c0,1,0.7,2.5,0.7,3.1c0,0.2-0.1,0.3-0.2,0.4h-0.2c-0.8,0-2.4-1.2-4.3-2.5s-4-2.4-5.1-2.4c-0.1,0-0.2,0-0.3,0
	c-0.2,0.1-0.4,0.4-0.4,0.8c0,1.5,1.3,4.1,1.3,4.9c0,0.1-0.1,0.4-0.3,0.4c-0.8,0-3.9,3.8-7.2,8.5s-7.4,10.6-10.3,14.6
	c-0.9,1.3-1.9,2.6-3,3.8c0.1,0,0.1,0.1,0.1,0.2c0.4-0.1,0.6-0.2,0.8-0.2c2.5-2.5,4.7-5.1,6.7-8c3.4-4.5,7.3-9.9,10.3-13.5
	C57.4,48.6,58.8,47,59.8,46.9L59.8,46.9z M66.7,51.7c-1,1.4-2.1,2.8-3.2,4.1c0.6-0.5,1.2-0.9,1.8-1.3l1.5-1.9
	C66.8,52.3,66.7,52,66.7,51.7L66.7,51.7z M64.9,52.2c0.2-0.1,0.4-0.1,0.6-0.2c0-0.2,0-0.4,0-0.6L64.9,52.2z M65.5,52.5
	c-0.5,0.1-0.9,0.3-1.2,0.5c-2,2.5-4,5.1-5.9,7.4c1.2-1.1,2.2-2.1,3.3-3C62.9,55.8,64.2,54.2,65.5,52.5L65.5,52.5z M79.6,31l0.1,0.4
	L79.6,31z M74.8,27.6l0.2,0.5L74.8,27.6z M75,29.5c-0.5-0.5-0.8-0.9-1.1-1.2l1,1.2L75,29.5z M73.8,26.3l-0.2-0.5v1.2v0.4
	c0.4,0.3,0.7,0.6,1,1C74.3,27.8,74.1,27.1,73.8,26.3L73.8,26.3z M73.7,20.7c0,0.5,0,1,0,1.5c0,0.6,0,1.3,0,1.9
	c0.4,0.9,0.8,1.6,1.1,2.3c-0.2-1-0.9-5-1-5.4L73.7,20.7z M72,26.9c-0.5-0.6-1-1.1-1.5-1.6l1.6,2L72,26.9z M72.7,24.8l-0.5-2.6
	l-0.1-0.3C72.2,22.8,72.4,23.8,72.7,24.8L72.7,24.8z M72.7,21.9l0.5,1.2v-0.9c0-1.1,0-2.2-0.1-3.2l-0.9-1.9c-0.1,0.5-0.1,1-0.2,1.5
	l0.2,1.4L72.7,21.9z M71.8,16.2v0.3v0.3c0-0.1,0.1-0.2,0.1-0.4L71.8,16.2z M71.8,22.8l-0.1,1.9l0.1,0.2c0.4,0.9,0.8,1.6,1.1,2.2
	C72.4,25.6,72,24.1,71.8,22.8L71.8,22.8z M70.9,24.3c-0.6-1.2-1.4-2.9-2.2-4.8c0.4,1.8,0.9,3.6,1.6,5.3c0.3,0.1,0.6,0.2,0.8,0.4
	L70.9,24.3z M68.5,16.9v0.5c0,0.1,0,0.3,0,0.4l1.1,2.5C69.2,19.1,68.8,17.9,68.5,16.9z M67.6,22.9l1,1.4l-0.5-1
	C67.8,23,67.6,22.9,67.6,22.9L67.6,22.9z M69,25.6l-1.7-2.2l1,2.4l0.6,0.9c0-0.2,0-0.5,0-0.7C68.9,25.9,68.9,25.7,69,25.6z
	 M60.6,35.1c0,1.2,1.2,3.3,1.2,3.9c0,0.1-0.1,0.3-0.2,0.3h-0.2c0.6,0.4,1.2,0.8,1.8,1.2c-0.5-1.1-0.8-2.3-1-3.5c0-0.2,0-0.3,0.1-0.5
	c0.1-0.6,0.7-1.1,1.3-1.1c0.5,0,1,0.2,1.5,0.4l0.5,0.3c-1-0.5-2-1.2-2.8-1.7c-0.4-0.3-0.8-0.4-1.3-0.5c-0.4,0-0.7,0.2-0.8,0.7
	C60.6,34.8,60.6,35,60.6,35.1z M61.7,48.6c0-0.6-0.9-2.6-0.9-4c-0.1-0.5,0.2-1.1,0.7-1.3c0.2,0,0.4-0.1,0.5-0.1
	c1.4,0,3.7,1.3,5.6,2.4c-0.7-0.5-1.8-1.2-2.9-1.9c-1.8-1.1-3.8-2.2-4.9-2.2c-0.1,0-0.2,0-0.3,0c-0.2,0.1-0.4,0.4-0.4,0.8
	c0,1.4,1.1,3.7,1.1,4.5c0,0.1-0.1,0.4-0.3,0.4c-0.6,0-2.3,1.6-4.1,3.9s-4.4,5.5-6.8,8.8C45,65.4,41,70.9,38.8,72.7
	c0.3-0.2,0.6-0.3,0.9-0.3c0.1,0,0.2,0,0.2,0.1c2-1.4,6.3-6.7,10.5-11.9C55.2,54.7,59.7,48.9,61.7,48.6z M63.4,46.7
	c0,1.1,0.7,2.8,0.7,3.6c0,0.2-0.1,0.3-0.2,0.4l1.1-1.4c0-0.1,0-0.3,0-0.5c-0.1-0.6,0.2-1.1,0.7-1.4c0.2,0,0.4-0.1,0.6-0.1l0.6-0.7
	c-0.9-0.5-1.8-0.8-2.8-0.9c-0.1,0-0.3,0-0.4,0C63.5,45.9,63.4,46.2,63.4,46.7z M78.7,22.4c0.1-0.2,0.1-0.4,0.2-0.5l-0.3-0.6
	C78.6,21.7,78.7,22,78.7,22.4z M78.9,25.1l0.1,0.4L78.9,25.1z M77.9,20l0.2,0.9c0-0.2,0-0.5-0.1-0.7L77.9,20z M77.9,24.4l-0.1-0.3
	v1.5l0.3,0.8v-0.8C78,25.2,78,24.8,77.9,24.4z M76.9,37.1c-0.1,0.6-0.3,1.1-0.5,1.7c-0.1,0.3-0.3,0.7-0.4,1l0.3,0.9l0.1-0.2
	c0.3-0.7,0.5-1.5,0.7-2.2C77,37.8,76.9,37.4,76.9,37.1L76.9,37.1z M76.4,14.2v0.4V14.2z M76.6,23.8l-0.2-0.4l0.2,1L76.6,23.8z
	 M75.3,32.2l0.3,0.4c0-0.3,0.1-0.6,0.1-1l-0.2-0.4C75.4,31.5,75.3,31.8,75.3,32.2L75.3,32.2z M75.5,35.2c-0.1,0.3-0.2,0.6-0.4,1
	l0.2,1l0.2-0.4c0.2-0.5,0.3-1,0.4-1.5h-0.2L75.5,35.2z M75.1,19.1v0.3v-0.2V19.1z M75.1,33.2l0.2,0.4L75.1,33.2L75.1,33.2z
	 M71.3,9.7c0.3,1,0.7,2.1,1,3.3c-0.2-1.3-0.3-2.6-0.4-3.8C71.8,9.1,71.6,9.4,71.3,9.7z M72.5,15.5c-0.5-1.9-1-3.6-1.4-5l0.4,4.4
	l0.5,1C72.2,15.7,72.4,15.6,72.5,15.5z M70.3,13.6c-0.1-0.2-0.3-0.4-0.5-0.6h-0.2c-0.2,0-0.4,0.1-0.5,0.2c0.2,0.7,0.3,1.4,0.5,2.1
	l1.3,2.7v-0.2C70.6,16.5,70.4,15.1,70.3,13.6z M67.8,12.7c-0.4-0.9-0.9-1.7-1.5-2.5h-0.2c-0.2,0-0.3,0.1-0.5,0.2
	c0,0.6,0.1,1.1,0.2,1.7l2.2,4.8c0-0.8,0-1.3,0.1-1.8C68,14.3,67.9,13.5,67.8,12.7z M65,13.9c0,0.3,0,0.6,0,0.9v0.3
	c0,0.1,0,0.3,0,0.5c1.3,2.8,2.5,5.5,3.2,7l-0.2-0.5c-1.1-3-2-6.1-2.7-9.2l-0.1-0.7l-0.2-0.4C65,12.5,65,13.2,65,13.9z M61.4,18.1
	c-0.5-0.8-1-1.6-1.6-2.2c0.2,0.7,0.5,1.4,0.8,2l0.5,0.8C61.1,18.5,61.2,18.3,61.4,18.1L61.4,18.1z M57.2,33.8
	c0.3,0.6,0.6,1.2,0.8,1.9c0,0.1,0,0.2-0.1,0.2c0.6,0.5,1.1,0.8,1.4,1c-0.6-1.2-1.1-2.4-1.3-3.7c0-0.1,0-0.2,0-0.3
	c0.1-0.7,0.6-1.2,1.3-1.1c0.3,0,0.6,0.1,0.8,0.2c-0.6-0.4-1.1-0.8-1.6-1c-0.4-0.3-0.9-0.5-1.4-0.5c-0.4,0-0.7,0.1-0.8,0.8
	c0,0.1,0,0.1,0,0.2C56.5,32.2,56.8,33,57.2,33.8z M40.4,73.8l0.8-0.5c-0.1,0-0.2,0-0.2,0c-0.4,0.2-0.8,0.5-1.3,0.9L40.4,73.8z
	 M44.2,72.6c1.6-0.8,3-1.8,4.3-3c0.6-0.6,5.4-6.3,7.4-8.8l-1.6,1.7c-3.9,4.1-7.8,8.3-10.5,10C44,72.6,44.1,72.6,44.2,72.6L44.2,72.6
	z M46.7,71.7c-0.3,0.2-0.7,0.4-1,0.6H46C46.2,72.2,46.4,71.9,46.7,71.7L46.7,71.7z M86,70.2h1.1c-0.8,0.4-1.7,0.9-2.5,1.3
	C75.4,75.4,67.7,82,63.1,83.7c-1.5,0.6-3.4,1.4-5.9,2.5c-1.3,0.4-2.5,0.7-3.5,0.9c4.2-1.7,7.1-3,9.3-3.8c4.5-1.7,12.2-8.3,21.5-12.3
	C84.9,70.7,85.5,70.4,86,70.2z"/>
</svg>
