<svg xmlns="http://www.w3.org/2000/svg" viewBox="0 0 737.84 104.45"><defs><style>.cls-1{fill:#fff;}</style></defs><g id="Calque_2" data-name="Calque 2"><g id="Calque_1-2" data-name="Calque 1"><path class="cls-1" d="M681.77,11.43a16,16,0,0,0-6.06-7.12,17.42,17.42,0,0,0-9.37-2.47H640.79V64.35H653v-1c.09-7,.13-14.15.14-21.26H665.9c4.55,0,8.21-1.19,10.89-3.54a18.61,18.61,0,0,0,5.55-8.16,27.25,27.25,0,0,0,1.53-8.38A25.54,25.54,0,0,0,681.77,11.43ZM670.13,27.94c-1,1.83-3.22,2.76-6.75,2.76H653.17c0-5.49-.06-11-.13-16.44v-1h8.79c3.52,0,6.07.64,7.57,1.88s2.22,3.32,2.22,6.23A14.06,14.06,0,0,1,670.13,27.94Z"/><path class="cls-1" d="M723.69,28.46,714.25,25c-5.22-1.84-6.81-3.37-6.81-6.56,0-5.27,6.35-5.83,9.07-5.83,5.83,0,10.86,1.86,16.32,6l2,1.5,1.52-12.35L735,6.92a31.51,31.51,0,0,0-18.63-5.41c-12.68,0-20.94,6.89-20.94,17.14,0,11,7.34,15.19,14.53,17.82l8.45,3c5.13,2,7.41,3.46,7.41,7.24,0,5.57-6.33,6.4-10.11,6.4a28.29,28.29,0,0,1-17.82-6.49l-.86-.72-1.56,12.28,1,.78c4.81,3.35,12,5.36,19.28,5.36,13.47,0,22.18-7,22.18-17.8C737.84,37.61,733.47,32,723.69,28.46Z"/><path class="cls-1" d="M81.12,53.57c-9.87,0-16.29-9.08-16.29-21.3s6.42-21.05,16.29-21.05,16.49,8.84,16.49,21.05-6.51,21.3-16.49,21.3M81.12,0C63.71,0,51.6,13.54,51.6,32.27S63.71,64.54,81.12,64.54s29.63-13.64,29.63-32.27S98.53,0,81.12,0"/><path class="cls-1" d="M361.25,55.52l-.34-53.68H348.45V44.18a35.39,35.39,0,0,0-4.3-9L320.86,1.84h-11.6c-.24,3-.35,6.46-.41,9.52v53h12.32V20.13a29.2,29.2,0,0,0,3.27,7.2l26.24,37H361.3c.11-2.67-.07-6.62-.05-8.83"/><path class="cls-1" d="M174.08,55.52l-.34-53.68H161.28V44.18a35.39,35.39,0,0,0-4.3-9L133.69,1.84h-11.6c-.24,3-.35,6.46-.41,9.52v53H134V20.13a29.2,29.2,0,0,0,3.27,7.2l26.24,37h10.61c.11-2.67-.07-6.62,0-8.83"/><path class="cls-1" d="M468.45,37.05c0,10.69-4.68,16.48-12.93,16.48s-12.93-5.79-12.93-16.48V1.51H430.64V37.16c0,17.21,9.31,27.38,24.88,27.38s25.11-10.17,25.11-27.38V1.51H468.45Z"/><path class="cls-1" d="M295.05,1.84H253.51V64.35h40.07l1.47-11.46h-29.5c.34-4.8.5-9.77.56-14.53h20V27.69H266.06c-.12-6.86-.39-12.26-.51-14.45h28Z"/><path class="cls-1" d="M419.35,1.84H372.9l1.47,11.4H390l-.13,25.54c0,9.38.13,25.57.13,25.57H402.2s.12-16.19.12-25.57l-.13-25.54h15.69Z"/><path class="cls-1" d="M31.32,52.76c-10.87,0-18.49-7.88-18.53-19.82s7.66-19.83,18.53-19.83a27.29,27.29,0,0,1,9.88,1.75l5.52-9.57a31.06,31.06,0,0,0-15.4-3.77l-.62,0c-.22,0-.44,0-.67,0C11.6,1.51,0,14.4,0,32.84V33C0,34,.05,35,.14,36,1.49,52.82,13.77,64,30.62,64.33h0c.24,0,.46,0,.7,0a31.06,31.06,0,0,0,15.4-3.78L41.2,51A27.3,27.3,0,0,1,31.32,52.76Z"/><path class="cls-1" d="M231.65,1.84C231,3.32,228.52,9.31,225.44,17c0,0-4.86,12.5-5.4,13.92l-1.66,4.47-4.87,13.24h0l0,0v0s-.66-1.82-1.78-4.88l-1.06-2.89c-1-2.79-2.29-6.18-3.69-9.94-.54-1.42-5.43-13.92-5.43-13.92-2.95-7.33-5.44-13.2-6.29-15.19H183c.11.26,13.24,36.75,25.09,62.46v0h10.56c13-28.2,25.06-62.5,25.06-62.5Z"/><path class="cls-1" d="M628,1.84H581.5L583,13.24h15.64l-.13,25.54c0,9.38.13,25.57.13,25.57h12.18s.13-16.19.13-25.57l-.13-25.54h15.69Z"/><path class="cls-1" d="M523.65,33.13A282.63,282.63,0,0,0,506.4,1.84H495.89L492.25,64.3H504l1.58-40.51c6.38,10.11,11.67,19.51,18,29.61h0c6.38-10.1,11.67-19.5,18.05-29.61L543.3,64.3h11.76L551.43,1.84H540.91a282.52,282.52,0,0,0-17.24,31.29"/><path class="cls-1" d="M3.53,83.84h17V86.9H13.79v17.38H10.32V86.9H3.53Z"/><polygon class="cls-1" points="42.24 104.19 42.24 83.62 38.76 83.62 38.76 92.05 29.16 92.05 29.16 83.62 25.72 83.62 25.72 104.19 29.16 104.19 29.16 94.89 38.76 94.89 38.76 104.19 42.24 104.19"/><path class="cls-1" d="M130.05,90a6.28,6.28,0,0,0-1.71-4.43h0a6.74,6.74,0,0,0-5.15-1.9h-8.82v20.45h3.52V96.27h5.47C127.55,96.27,130.05,93.92,130.05,90Zm-12.16,3.56v-7h4.91c2.39,0,3.76,1.26,3.76,3.45s-1.42,3.51-3.81,3.51Z"/><path class="cls-1" d="M53.41,104.1H49.94V83.65h3.47Z"/><path class="cls-1" d="M64.87,95.86v8.29H61.4V83.7h7.9c4.23,0,7,2.13,7,6.13,0,3.43-2,5.39-5.22,5.89L77,104.15H73l-5.69-8.29Zm0-2.9h4.36c2.3,0,3.6-1.23,3.6-3.13s-1.3-3.13-3.6-3.13H64.87Z"/><path class="cls-1" d="M82.36,83.67h6.89c6,0,9.92,4,9.92,10.22s-3.89,10.23-9.92,10.23H82.36ZM89.11,101c4.3,0,6.6-2.76,6.6-7.13s-2.3-7.16-6.6-7.16H85.82V101Z"/><path class="cls-1" d="M143.23,83.67l7.86,20.45h-3.53l-2.09-5.66h-7.83l-2.1,5.66H132l7.86-20.45Zm-4.49,11.79h5.59l-2.79-7.56Z"/><path class="cls-1" d="M159.34,95.83v8.29h-3.46V83.67h7.89c4.23,0,7,2.13,7,6.13,0,3.42-2,5.39-5.23,5.89l5.93,8.43H167.5l-5.69-8.29Zm0-2.9h4.36c2.3,0,3.6-1.24,3.6-3.13s-1.3-3.13-3.6-3.13h-4.36Z"/><path class="cls-1" d="M175.35,83.67H192.4v3.07h-6.8v17.38h-3.46V86.74h-6.79Z"/><path class="cls-1" d="M210.3,83.67l-2.91,5.17c-.91,1.68-2.08,4.41-2.09,4.43l-.06.13h-.32l0-.13s-1.16-2.78-2.07-4.44l-2.88-5.16H196.1L203.27,96v8.1h3.49v-8l0,0L214,83.67Z"/><path class="cls-1" d="M229.45,99a10.31,10.31,0,0,0,6.49,2.36c2.33,0,4-.83,4-2.66,0-1.6-1-2.23-2.87-2.93l-3-1.07c-2.73-1-4.8-2.46-4.8-5.82,0-3.6,3.14-5.56,6.9-5.56a11,11,0,0,1,6,1.66v3.57a9.39,9.39,0,0,0-6-2.2c-2.06,0-3.59.8-3.59,2.46,0,1.5,1,2.1,2.66,2.7l3.3,1.2c3.2,1.16,4.66,3,4.66,5.92,0,3.74-3.16,5.8-7.33,5.8a11.65,11.65,0,0,1-6.49-1.8Z"/><path class="cls-1" d="M257.62,104.45c-5.54,0-9.43-4.46-9.43-10.56s3.89-10.55,9.43-10.55,9.45,4.43,9.45,10.55S263.14,104.45,257.62,104.45Zm0-18c-3.6,0-5.93,3.13-5.93,7.46s2.33,7.46,5.93,7.46,6-3.13,6-7.46S261.21,86.43,257.62,86.43Z"/><path class="cls-1" d="M273.88,83.67h3.47V101h9.82v3.1H273.88Z"/><path class="cls-1" d="M292.29,96V83.67h3.46V95.59c0,3.93,1.67,5.76,4.73,5.76s4.73-1.83,4.73-5.76V83.67h3.46V96c0,5.59-3.29,8.46-8.19,8.46S292.29,101.58,292.29,96Z"/><path class="cls-1" d="M313.67,83.67h17.05v3.06h-6.79v17.39h-3.47V86.73h-6.79Z"/><path class="cls-1" d="M339,104.12h-3.47V83.67H339Z"/><path class="cls-1" d="M354.51,104.45c-5.53,0-9.42-4.46-9.42-10.56s3.89-10.55,9.42-10.55S364,87.77,364,93.89,360,104.45,354.51,104.45Zm0-18c-3.59,0-5.92,3.13-5.92,7.46s2.33,7.46,5.92,7.46,6-3.13,6-7.46S358.11,86.43,354.51,86.43Z"/><path class="cls-1" d="M387.23,104.12h-2.67L374.11,89.23v14.89h-3.33V83.67H374l9.86,14.19V83.67h3.33Z"/><path class="cls-1" d="M392.9,99a10.31,10.31,0,0,0,6.49,2.36c2.33,0,4-.83,4-2.66,0-1.6-1-2.23-2.87-2.93l-3-1.07c-2.73-1-4.8-2.46-4.8-5.82,0-3.6,3.14-5.56,6.9-5.56a11,11,0,0,1,6,1.66v3.57a9.39,9.39,0,0,0-6-2.2c-2.06,0-3.59.8-3.59,2.46,0,1.5,1,2.1,2.66,2.7l3.3,1.2c3.2,1.16,4.66,3,4.66,5.92,0,3.74-3.16,5.8-7.33,5.8a11.65,11.65,0,0,1-6.49-1.8Z"/></g></g></svg>