<?xml version="1.0" encoding="utf-8"?>
<!-- Generator: Adobe Illustrator 23.0.0, SVG Export Plug-In . SVG Version: 6.00 Build 0)  -->
<svg version="1.1" xmlns="http://www.w3.org/2000/svg" xmlns:xlink="http://www.w3.org/1999/xlink" x="0px" y="0px"
	 viewBox="0 0 370.3 75.5" style="enable-background:new 0 0 370.3 75.5;" xml:space="preserve">
<g id="Layer_1">
	<title>logo_bdl-white</title>
	<g>
		<g id="XMLID_90_">
			<g id="XMLID_93_">
				<g id="XMLID_95_">
					<g>
						<path d="M56.3,54c0-8.2-5.1-15.1-12.2-17.5c5.5-2,9.9-7.8,9.9-15.9C54,7.2,44.3,0.3,28.7,0.3H0v75h31.1
							C46.8,75.3,56.3,67.8,56.3,54z M14.2,62.5V13c0,0,12.1,0,13.7,0c1.2,0,6.6-0.2,9.4,3.2c3.2,3.9,1.5,9,0.8,10.3
							c-3.3,6.7-12.9,10.2-12.9,10.2s16.1,5.3,16.1,15.7c0,0,0,5.7-4,8.4c0,0-2.9,1.9-7.6,1.9H14.2z"/>
					</g>
				</g>
				<g id="XMLID_94_">
					<polygon points="85.8,0.2 71.7,0.2 71.7,75.3 115.4,75.3 115.4,61.5 85.8,61.5 					"/>
				</g>
			</g>
			<g id="XMLID_92_">
				<rect x="129.9" y="0.2" width="14.1" height="75.1"/>
			</g>
		</g>
		<g id="XMLID_9_">
			<path id="XMLID_86_" d="M177.8,13.6c0,3.5-2.4,5.3-6.3,5.3h-7.1V0.3h6.5c3.9,0,6.3,1.7,6.3,5.1c0,2-1.1,3.5-2.4,3.9
				C176.5,9.9,177.8,11.6,177.8,13.6z M170.9,8.1c2.2,0,3.3-0.8,3.3-2.6c0-1.8-1.2-2.5-3.3-2.5h-3.4v5.1H170.9z M167.5,16.2h4
				c2.1,0,3.3-1.1,3.3-2.7c0-1.7-1.2-2.7-3.3-2.7h-4V16.2z"/>
			<path id="XMLID_83_" d="M192.7,0.3l7.2,18.6h-3.2l-1.9-5.2h-7.1l-1.9,5.2h-3.2l7.2-18.6H192.7z M188.6,11h5.1l-2.5-6.9L188.6,11z
				"/>
			<polygon id="XMLID_81_" points="220.9,18.9 218.5,18.9 208.9,5.4 208.9,18.9 205.9,18.9 205.9,0.3 208.9,0.3 217.9,13.2 
				217.9,0.3 220.9,0.3 			"/>
			<path id="XMLID_78_" d="M239.9,18.3c-1.2,0.6-2.5,0.9-3.9,0.9c-5,0-8.6-4.1-8.6-9.6c0-5.6,3.5-9.6,8.6-9.6c5,0,8.6,4,8.6,9.6
				c0,2.8-1,5.3-2.6,7l1.5,1.9l-2.2,1.6L239.9,18.3z M235.9,2.8c-3.3,0-5.4,2.8-5.4,6.8c0,3.9,2.1,6.8,5.4,6.8
				c0.8,0,1.5-0.1,2.1-0.4l-1.5-1.9l2.2-1.6l1.5,1.8c0.8-1.1,1.2-2.7,1.2-4.8C241.4,5.7,239.2,2.8,235.9,2.8z"/>
			<path id="XMLID_76_" d="M250.7,11.5V0.3h3.2v10.9c0,3.6,1.5,5.2,4.3,5.2c2.8,0,4.3-1.7,4.3-5.2V0.3h3.2v11.2c0,5.1-3,7.7-7.5,7.7
				C253.7,19.2,250.7,16.6,250.7,11.5z"/>
			<polygon id="XMLID_74_" points="285,0.3 285,3.1 275.9,3.1 275.9,8 284.1,8 284.1,10.8 275.9,10.8 275.9,16.1 285,16.1 285,18.9 
				272.8,18.9 272.8,0.3 			"/>
			<path id="XMLID_71_" d="M301.8,0.3h6.3c5.5,0,9,3.6,9,9.3c0,5.7-3.5,9.3-9,9.3h-6.3V0.3z M308,16.1c3.9,0,6-2.5,6-6.5
				c0-4-2.1-6.5-6-6.5h-3v13H308z"/>
			<polygon id="XMLID_69_" points="335.8,0.3 335.8,3.1 326.7,3.1 326.7,8 334.9,8 334.9,10.8 326.7,10.8 326.7,16.1 335.8,16.1 
				335.8,18.9 323.6,18.9 323.6,0.3 			"/>
			<polygon id="XMLID_67_" points="164.4,28.4 167.5,28.4 167.5,44.2 176.5,44.2 176.5,47 164.4,47 			"/>
			<path id="XMLID_65_" d="M182,39.6V28.4h3.2v10.9c0,3.6,1.5,5.2,4.3,5.2c2.8,0,4.3-1.7,4.3-5.2V28.4h3.2v11.2c0,5.1-3,7.7-7.5,7.7
				C185,47.3,182,44.7,182,39.6z"/>
			<polygon id="XMLID_63_" points="212.5,37.5 219.1,47 215.5,47 210.7,40 205.9,47 202.3,47 208.9,37.5 202.6,28.4 206.2,28.4 
				210.7,35 215.3,28.4 218.8,28.4 			"/>
			<polygon id="XMLID_61_" points="237,28.4 237,31.2 227.9,31.2 227.9,36.1 236.1,36.1 236.1,38.9 227.9,38.9 227.9,44.2 237,44.2 
				237,47 224.8,47 224.8,28.4 			"/>
			<polygon id="XMLID_59_" points="252.6,43 246.9,34 246.9,47 243.8,47 243.8,28.4 246.7,28.4 252.7,38.1 258.7,28.4 261.6,28.4 
				261.6,47 258.5,47 258.5,34 252.8,43 			"/>
			<path id="XMLID_55_" d="M282.5,41.7c0,3.5-2.4,5.3-6.3,5.3H269V28.4h6.5c3.9,0,6.3,1.7,6.3,5.1c0,2-1.1,3.5-2.4,3.9
				C281.2,38,282.5,39.7,282.5,41.7z M275.5,36.2c2.2,0,3.3-0.8,3.3-2.6c0-1.8-1.2-2.5-3.3-2.5h-3.4v5.1H275.5z M272.1,44.3h4
				c2.1,0,3.3-1.1,3.3-2.7c0-1.7-1.2-2.7-3.3-2.7h-4V44.3z"/>
			<path id="XMLID_52_" d="M296.7,47.3c-5,0-8.6-4.1-8.6-9.6c0-5.6,3.5-9.6,8.6-9.6c5,0,8.6,4,8.6,9.6
				C305.3,43.3,301.7,47.3,296.7,47.3z M296.7,30.9c-3.3,0-5.4,2.8-5.4,6.8c0,3.9,2.1,6.8,5.4,6.8c3.3,0,5.4-2.9,5.4-6.8
				C302.1,33.8,300,30.9,296.7,30.9z"/>
			<path id="XMLID_50_" d="M311.5,39.6V28.4h3.2v10.9c0,3.6,1.5,5.2,4.3,5.2c2.8,0,4.3-1.7,4.3-5.2V28.4h3.2v11.2
				c0,5.1-3,7.7-7.5,7.7C314.5,47.3,311.5,44.7,311.5,39.6z"/>
			<path id="XMLID_47_" d="M336.7,39.5V47h-3.2V28.4h7.2c3.9,0,6.3,1.9,6.3,5.6c0,3.1-1.8,4.9-4.8,5.4l5.4,7.7h-3.6l-5.2-7.5H336.7z
				 M336.7,36.8h4c2.1,0,3.3-1.1,3.3-2.8c0-1.7-1.2-2.9-3.3-2.9h-4V36.8z"/>
			<path id="XMLID_45_" d="M365.4,43.3v-3.6h-3.5v-2.6h6.4v7.5c-1.8,1.9-4.3,2.8-6.6,2.8c-5.5,0-8.9-3.9-8.9-9.6
				c0-5.7,4-9.6,9.3-9.6c2.2,0,4,0.6,5.3,1.6V33c-1.6-1.4-3.2-2.1-5.3-2.1c-3.6,0-6.1,2.8-6.1,6.8c0,4,2.2,6.8,5.8,6.8
				C363.2,44.5,364.4,44.1,365.4,43.3z"/>
			<polygon id="XMLID_43_" points="189.4,75.2 187,75.2 177.5,61.7 177.5,75.2 174.5,75.2 174.5,56.6 177.4,56.6 186.4,69.5 
				186.4,56.6 189.4,56.6 			"/>
			<polygon id="XMLID_41_" points="201.9,75.2 194.9,56.6 198.2,56.6 203.5,71.1 208.7,56.6 211.9,56.6 204.9,75.2 			"/>
			<polygon id="XMLID_39_" points="229.6,56.6 229.6,59.4 220.5,59.4 220.5,64.3 228.7,64.3 228.7,67.1 220.5,67.1 220.5,72.4 
				229.6,72.4 229.6,75.2 217.4,75.2 217.4,56.6 			"/>
			<path id="XMLID_37_" d="M235,70.6c1.7,1.4,3.7,2.2,5.9,2.2c2.1,0,3.6-0.8,3.6-2.4c0-1.5-0.9-2-2.6-2.7l-2.7-1
				c-2.5-0.9-4.4-2.2-4.4-5.3c0-3.3,2.9-5.1,6.3-5.1c2.1,0,4,0.5,5.5,1.5v3.2c-1.5-1.2-3.2-2-5.4-2c-1.9,0-3.3,0.7-3.3,2.2
				c0,1.4,0.9,1.9,2.4,2.5l3,1.1c2.9,1.1,4.2,2.7,4.2,5.4c0,3.4-2.9,5.3-6.7,5.3c-2.5,0-4.6-0.7-5.9-1.6V70.6z"/>
			<polygon id="XMLID_35_" points="252.1,56.6 267.7,56.6 267.7,59.4 261.5,59.4 261.5,75.2 258.3,75.2 258.3,59.4 252.1,59.4 			
				"/>
			<polygon id="XMLID_29_" points="282.3,71.2 276.5,62.2 276.5,75.2 273.4,75.2 273.4,56.6 276.3,56.6 282.4,66.3 288.4,56.6 
				291.2,56.6 291.2,75.2 288.1,75.2 288.1,62.2 282.4,71.2 			"/>
			<polygon id="XMLID_21_" points="310.3,56.6 310.3,59.4 301.2,59.4 301.2,64.3 309.4,64.3 309.4,67.1 301.2,67.1 301.2,72.4 
				310.3,72.4 310.3,75.2 298.1,75.2 298.1,56.6 			"/>
			<polygon id="XMLID_18_" points="331.4,75.2 329,75.2 319.5,61.7 319.5,75.2 316.5,75.2 316.5,56.6 319.4,56.6 328.4,69.5 
				328.4,56.6 331.4,56.6 			"/>
			<polygon id="XMLID_16_" points="337.2,56.6 352.7,56.6 352.7,59.4 346.5,59.4 346.5,75.2 343.4,75.2 343.4,59.4 337.2,59.4 			
				"/>
			<path id="XMLID_14_" d="M357.7,70.6c1.7,1.4,3.7,2.2,5.9,2.2c2.1,0,3.6-0.8,3.6-2.4c0-1.5-0.9-2-2.6-2.7l-2.7-1
				c-2.5-0.9-4.4-2.2-4.4-5.3c0-3.3,2.9-5.1,6.3-5.1c2.1,0,4,0.5,5.5,1.5v3.2c-1.5-1.2-3.2-2-5.4-2c-1.9,0-3.3,0.7-3.3,2.2
				c0,1.4,0.9,1.9,2.4,2.5l3,1.1c2.9,1.1,4.2,2.7,4.2,5.4c0,3.4-2.9,5.3-6.7,5.3c-2.5,0-4.6-0.7-5.9-1.6V70.6z"/>
		</g>
		<rect id="XMLID_7_" x="164.6" y="56.6" width="3.2" height="18.6"/>
	</g>
</g>
<g id="Layer_2">
</g>
</svg>
