<?xml version="1.0" encoding="utf-8"?>
<!-- Generator: Adobe Illustrator 23.0.0, SVG Export Plug-In . SVG Version: 6.00 Build 0)  -->
<svg version="1.1" id="Layer_1" xmlns="http://www.w3.org/2000/svg" xmlns:xlink="http://www.w3.org/1999/xlink" x="0px" y="0px"
	 viewBox="0 0 144 75.1" style="enable-background:new 0 0 144 75.1;" xml:space="preserve">
<style type="text/css">
	.st0{fill:#FFFFFF;}
</style>
<title>logo_bdl-white</title>
<g id="XMLID_90_">
	<g id="XMLID_93_">
		<path class="st0" d="M56.3,53.8c0-8.2-5.1-15.1-12.2-17.5c5.5-2,9.9-7.8,9.9-15.9C54,7,44.3,0.1,28.7,0.1H0v75h31.1
			C46.8,75.1,56.3,67.6,56.3,53.8z M14.2,62.3V12.8c0,0,12.1,0,13.7,0c1.2,0,6.6-0.2,9.4,3.2c3.2,3.9,1.5,9,0.8,10.3
			C34.8,33,25.2,36.5,25.2,36.5s16.1,5.3,16.1,15.7c0,0,0,5.7-4,8.4c0,0-2.9,1.9-7.6,1.9H14.2V62.3z"/>
		<polygon class="st0" points="85.8,0 71.7,0 71.7,75.1 115.4,75.1 115.4,61.3 85.8,61.3 		"/>
	</g>
	<rect x="129.9" class="st0" width="14.1" height="75.1"/>
</g>
</svg>
