<?xml version="1.0" encoding="utf-8"?>
<!-- Generator: Adobe Illustrator 23.0.1, SVG Export Plug-In . SVG Version: 6.00 Build 0)  -->
<svg version="1.1" id="Layer_1" xmlns="http://www.w3.org/2000/svg" xmlns:xlink="http://www.w3.org/1999/xlink" x="0px" y="0px"
	 viewBox="0 0 304.2 97" style="enable-background:new 0 0 304.2 97;" xml:space="preserve">
<style type="text/css">
	.st0{fill:#FFFFFF;}
</style>
<title>logo_bdl-white</title>
<g>
	<path class="st0" d="M89.4,91.4c0,3-2.1,4.6-5.4,4.6h-5.9V79.6h5.4c3.4,0,5.4,1.5,5.4,4.3c0,1.9-1.1,3.1-2.4,3.5
		C88.2,88,89.4,89.6,89.4,91.4z M83.5,86.8c2.2,0,3.4-0.9,3.4-2.7c0-1.8-1.2-2.6-3.4-2.6h-3.3v5.3H83.5z M80.1,94.2H84
		c2.2,0,3.4-1.1,3.4-2.8c0-1.7-1.2-2.8-3.4-2.8h-3.9V94.2z"/>
	<polygon class="st0" points="105.4,79.6 105.4,81.5 97,81.5 97,86.7 104.6,86.7 104.6,88.5 97,88.5 97,94.1 105.4,94.1 105.4,96 
		95,96 95,79.6 	"/>
	<polygon class="st0" points="111.2,79.6 113.3,79.6 113.3,94.1 121.7,94.1 121.7,96 111.2,96 	"/>
	<path class="st0" d="M136.8,93.1v-3.9h-3.6v-1.8h5.5v6.4c-1.6,1.7-3.7,2.3-5.8,2.3c-4.6,0-7.7-3.4-7.7-8.4c0-5.1,3.4-8.4,7.9-8.4
		c1.9,0,3.6,0.6,4.7,1.5v2.2c-1.4-1.3-2.9-1.8-4.7-1.8c-3.4,0-5.8,2.6-5.8,6.5c0,3.9,2.2,6.6,5.6,6.6
		C134.6,94.4,135.8,94,136.8,93.1z"/>
	<rect x="144.7" y="79.6" class="st0" width="2.1" height="16.4"/>
	<path class="st0" d="M163.3,95.3c-1.1,0.6-2.3,1-3.6,1c-4.3,0-7.4-3.5-7.4-8.4c0-5,3.1-8.4,7.4-8.4c4.3,0,7.4,3.5,7.4,8.4
		c0,2.6-0.9,4.9-2.4,6.3l1.4,1.7l-1.4,1.1L163.3,95.3z M159.6,81.3c-3.1,0-5.3,2.7-5.3,6.5c0,3.8,2.1,6.5,5.3,6.5
		c0.9,0,1.8-0.2,2.5-0.6l-1.4-1.8l1.4-1.1l1.3,1.7c0.9-1.1,1.5-2.7,1.5-4.9C164.9,84,162.8,81.3,159.6,81.3z"/>
	<path class="st0" d="M172.2,89.5v-9.9h2.1v9.6c0,3.5,1.7,5.1,4.3,5.1c2.6,0,4.3-1.6,4.3-5.1v-9.6h2.1v9.9c0,4.5-2.7,6.7-6.4,6.7
		C174.9,96.3,172.2,94,172.2,89.5z"/>
	<polygon class="st0" points="201.6,79.6 201.6,81.5 193.3,81.5 193.3,86.7 200.8,86.7 200.8,88.5 193.3,88.5 193.3,94.1 
		201.6,94.1 201.6,96 191.2,96 191.2,79.6 	"/>
	<rect x="206.4" y="87.1" class="st0" width="6.4" height="1.9"/>
	<path class="st0" d="M229.7,91.4c0,3-2.1,4.6-5.4,4.6h-5.9V79.6h5.4c3.4,0,5.4,1.5,5.4,4.3c0,1.9-1.1,3.1-2.4,3.5
		C228.5,88,229.7,89.6,229.7,91.4z M223.7,86.8c2.2,0,3.4-0.9,3.4-2.7c0-1.8-1.2-2.6-3.4-2.6h-3.3v5.3H223.7z M220.4,94.2h3.9
		c2.2,0,3.4-1.1,3.4-2.8c0-1.7-1.2-2.8-3.4-2.8h-3.9V94.2z"/>
	<polygon class="st0" points="245.7,79.6 245.7,81.5 237.3,81.5 237.3,86.7 244.9,86.7 244.9,88.5 237.3,88.5 237.3,94.1 
		245.7,94.1 245.7,96 235.2,96 235.2,79.6 	"/>
	<polygon class="st0" points="251.5,79.6 253.6,79.6 253.6,94.1 262,94.1 262,96 251.5,96 	"/>
	<path class="st0" d="M277.1,93.1v-3.9h-3.6v-1.8h5.5v6.4c-1.6,1.7-3.7,2.3-5.8,2.3c-4.6,0-7.7-3.4-7.7-8.4c0-5.1,3.4-8.4,7.9-8.4
		c1.9,0,3.6,0.6,4.7,1.5v2.2c-1.4-1.3-2.9-1.8-4.7-1.8c-3.4,0-5.8,2.6-5.8,6.5c0,3.9,2.2,6.6,5.6,6.6
		C274.9,94.4,276.1,94,277.1,93.1z"/>
	<path class="st0" d="M287.1,96H285V79.6h2.1V96z M296.7,75.5c0.7,0,1.2,0.5,1.2,1.2c0,0.7-0.6,1.2-1.2,1.2c-0.7,0-1.3-0.5-1.3-1.2
		C295.5,76.1,296,75.5,296.7,75.5z M300.4,75.5c0.7,0,1.3,0.5,1.3,1.2c0,0.7-0.6,1.2-1.3,1.2c-0.7,0-1.2-0.5-1.2-1.2
		C299.2,76.1,299.8,75.5,300.4,75.5z"/>
	<polygon class="st0" points="303.9,79.6 303.9,81.5 295.6,81.5 295.6,86.7 303.1,86.7 303.1,88.5 295.6,88.5 295.6,94.1 
		303.9,94.1 303.9,96 293.5,96 293.5,79.6 	"/>
</g>
<g>
	<path id="XMLID_237_" class="st0" d="M26.3,0H0v8.8h26.7c9.4,0,17,4.7,17,14.2c0,6.3-3.5,10.4-9.7,11.6v0.2
		c7.9,0.8,12.3,7.3,12.3,14.2c0,13.3-8.7,16.7-19.6,17.1H0v8.8h28.9c22.3,0,34.2-13,34.2-37.4C63.1,16,52.2,0,26.3,0z"/>
	<polygon id="XMLID_235_" class="st0" points="0,17.7 0,57 19.4,57 19.4,48 9.1,48 9.1,17.7 	"/>
	<g>
		<g id="XMLID_230_">
			<path id="XMLID_234_" class="st0" d="M193.4,9.3h-4.6v13.4c0,4-1.8,6.2-4.9,6.2c-3.1,0-4.9-2.2-4.9-6.2V9.3h-4.5v13.4
				c0,6.5,3.5,10.3,9.4,10.3c5.9,0,9.5-3.8,9.5-10.3V9.3z"/>
			<path id="XMLID_231_" class="st0" d="M224.8,62c-3.7,0-6.2-3.4-6.2-8c0-4.6,2.4-7.9,6.2-7.9c3.8,0,6.2,3.3,6.2,7.9
				C231,58.6,228.5,62,224.8,62z M224.8,41.8c-6.6,0-11.1,5.1-11.1,12.2c0,7,4.6,12.2,11.1,12.2c6.6,0,11.2-5.2,11.2-12.2
				C235.9,46.9,231.3,41.8,224.8,41.8z"/>
		</g>
		<polygon id="XMLID_229_" class="st0" points="82.5,42.3 78,42.3 78,66 93.1,66 93.1,61.6 82.5,61.6 		"/>
		<path id="XMLID_228_" class="st0" d="M144.3,29.6V9.3h-4.8v16c0,0-0.5-1.8-1.6-3.4l-8.8-12.6h-4.4c-0.1,1.1-0.1,2.4-0.2,3.6v20
			h4.7V16.2c0,0,0.4,1.4,1.2,2.7l9.9,14h4C144.4,31.9,144.3,30.4,144.3,29.6z"/>
		<path id="XMLID_225_" class="st0" d="M111.6,23.1h-3.1c-1,0-1.4,0.2-1.5,0.4c0.2-0.5,3.1-8.3,3.1-8.3l0,0l0,0c0,0,2.9,7.8,3.1,8.3
			C113.1,23.4,112.7,23.1,111.6,23.1z M121.6,32.9c0-0.1-0.1-0.2-0.1-0.3c-0.7-2-4.9-13.6-9.4-23.3l0,0h-4
			c-4.9,10.7-9.5,23.6-9.5,23.6h4.6c0.2-0.6,1.2-2.8,2.3-5.7h9c1.1,2.8,2.1,5,2.4,5.7H121.6z"/>
		<path id="XMLID_224_" class="st0" d="M109.2,55.8c0,4-1.8,6.2-4.9,6.2c-3.1,0-4.9-2.2-4.9-6.2V42.3h-4.5v13.5
			c0,6.5,3.5,10.3,9.4,10.3c5.9,0,9.5-3.8,9.5-10.3V42.3h-4.6V55.8z"/>
		<path id="XMLID_223_" class="st0" d="M253.8,55.8c0,4-1.8,6.2-4.9,6.2c-3.1,0-4.9-2.2-4.9-6.2V42.4h-4.5v13.5
			c0,6.5,3.5,10.3,9.4,10.3c5.9,0,9.5-3.8,9.5-10.3V42.4h-4.6V55.8z"/>
		<path id="XMLID_220_" class="st0" d="M159.5,28.9c-3.7,0-6.2-3.5-6.2-8.1c0-4.6,2.4-8,6.2-8c3.8,0,6.2,3.4,6.2,8
			c0,2.1-0.4,3.8-1.1,5c-1.1-1-3.1-2-6.4-1.2c0,0,1.6,1.4,2.8,4.1C160.5,28.9,160,28.9,159.5,28.9z M163.8,33.8c0.7,1,3.1,4,8.4,2.1
			c0,0-3-0.9-5.1-5.9c0.3-0.2,0.4-0.4,0.4-0.4c2-2.2,3.2-5.2,3.2-8.7c0-7.1-4.6-12.2-11.2-12.2c-6.6,0-11.1,5.1-11.1,12.2
			c0,7,4.6,12.2,11.1,12.2c1.2,0,2.4-0.2,3.5-0.6C163.4,33,163.7,33.5,163.8,33.8z"/>
		<path id="XMLID_219_" class="st0" d="M297.2,52l-2.3,4h5v4.5c-1,0.8-2.4,1.2-4,1.2c-4.2,0-6.8-3.2-6.8-7.8c0-4.7,3-7.7,7.2-7.7
			c1.4,0,2.7,0.2,3.8,0.7l2.1-3.7c-1.6-0.9-3.7-1.5-6-1.5c-7.1,0-12.1,4.9-12.1,12.2c0,7.1,4.5,12.1,11.6,12.1c3.1,0,6.2-1,8.5-3.3
			V52H297.2z"/>
		<path id="XMLID_218_" class="st0" d="M138.1,42.3h-5.4l-1.8,2.7c-1.4,2.2-3.1,5-3.3,5.7c-0.1-0.3-0.5-1.2-0.9-2
			c-0.2-0.4-3.7-5.6-4.2-6.4h-5.6l7.8,11.6l-8.2,12h5.4l2.3-3.5c1.4-2.1,3-4.7,3.2-5.4c0.4,1.2,5.5,8.9,5.5,8.9h5.5l-8.2-12.1
			L138.1,42.3z"/>
		<path id="XMLID_166_" class="st0" d="M281,49.8c0-4.8-3.3-7.5-8.3-7.5H263V66h4.5V46.5h4.9c2.5,0,3.7,1.3,3.7,3.3
			c0,2-1,3.6-3.5,3.6h-3.9l7.9,12.6h5.6l-6.3-9.3C279.3,55.6,281,53.3,281,49.8z"/>
		<path id="XMLID_7_" class="st0" d="M82.5,28.9V13.3h5.5c0.4,0,2.1-0.1,2.9,1c1,1.2,0.5,2.8,0.3,3.2c-1,2.1-4.1,3.2-4.1,3.2
			s5.1,1.7,5.1,4.9c0,0,0,1.8-1.3,2.6c0,0-0.9,0.6-2.4,0.6H82.5z M96.9,26.2c0-2.6-1.6-4.8-3.8-5.5c1.7-0.6,3.1-2.5,3.1-5
			c0-4.2-3-6.4-8-6.4H78v23.6H89C93.9,32.9,96.9,30.5,96.9,26.2z"/>
		<path id="XMLID_159_" class="st0" d="M214.1,28.6H203c0.1-1.8,0.2-3.7,0.2-5.5h7.6v-4h-7.6c0-2.6-0.1-4.6-0.2-5.5h10.6l0.6-4.3
			h-15.7v23.6h15.1L214.1,28.6z"/>
		<path id="XMLID_158_" class="st0" d="M265.5,28.6h-11.1c0.1-1.8,0.2-3.7,0.2-5.5h7.6v-4h-7.6c0-2.6-0.1-4.6-0.2-5.5H265l0.6-4.3
			h-15.7v23.6H265L265.5,28.6z"/>
		<path id="XMLID_6_" class="st0" d="M157.6,42.3h-15.7v23.6H157l0.6-4.3h-11.1c0.1-1.8,0.2-3.7,0.2-5.5h7.6v-4h-7.6
			c0-2.6-0.1-4.6-0.2-5.5H157L157.6,42.3z"/>
		<path id="XMLID_1_" class="st0" d="M205.2,61.4c0,0-0.9,0.6-2.4,0.6h-6V46.4h5.5c0.4,0,2.1-0.1,2.9,1c1,1.2,0.5,2.8,0.3,3.2
			c-1,2.1-4.1,3.2-4.1,3.2s5.1,1.7,5.1,4.9C206.4,58.7,206.4,60.5,205.2,61.4z M207.3,53.8c1.7-0.6,3.1-2.5,3.1-5c0-4.2-3-6.4-8-6.4
			h-10.2V66h10.9c4.9,0,7.9-2.3,7.9-6.7C211.2,56.7,209.6,54.5,207.3,53.8z"/>
		<path id="XMLID_21_" class="st0" d="M234,28.6h-3.2c0.4-5.9,0.1-12.9,0-14.9c0-0.1,0,0,0,0h3.2c4.5,0,7,2.8,7,7.4
			C240.9,25.7,238.5,28.6,234,28.6z M234.2,9.3h-8v23.6h8c7.1,0,11.6-4.6,11.6-11.8C245.8,13.9,241.3,9.3,234.2,9.3z"/>
		<path id="XMLID_3_" class="st0" d="M185,42.4h-3.7c0,0-3.3,4.8-6.6,11.8c-3.2-6.7-6.6-11.8-6.6-11.8h-3.7l-2.9,23.6h5.1
			c0,0,1.1-14.5,1.2-15l6.9,11l7-11c0,0.5,1.2,15,1.2,15h5.1L185,42.4z"/>
	</g>
</g>
</svg>
