<?xml version="1.0" encoding="utf-8"?>
<!-- Generator: Adobe Illustrator 22.1.0, SVG Export Plug-In . SVG Version: 6.00 Build 0)  -->
<svg version="1.1" id="Layer_1" xmlns="http://www.w3.org/2000/svg" xmlns:xlink="http://www.w3.org/1999/xlink" x="0px" y="0px"
	 viewBox="0 0 304.2 74.8" style="enable-background:new 0 0 304.2 74.8;" xml:space="preserve">
<title>logo_bdl-white</title>
<path d="M26.3,0H0v8.8h26.7c9.4,0,17,4.8,17,14.2c0,6.3-3.5,10.4-9.7,11.6v0.2c7.9,0.8,12.3,7.3,12.3,14.1
	c0,13.3-8.7,16.7-19.5,17.1H0v8.8h28.9c22.3,0,34.2-13,34.2-37.4C63.1,16,52.2,0,26.3,0z"/>
<polygon points="0,17.7 0,57 19.4,57 19.4,48 9.1,48 9.1,17.7 "/>
<path d="M193.4,9.3h-4.6v13.3c0,4-1.8,6.2-4.9,6.2s-4.9-2.2-4.9-6.2V9.3h-4.5v13.4c0,6.5,3.5,10.3,9.4,10.3s9.5-3.8,9.5-10.3
	L193.4,9.3z"/>
<path d="M224.8,62c-3.7,0-6.1-3.4-6.1-8s2.4-8,6.1-8s6.2,3.4,6.2,8S228.5,62,224.8,62z M224.8,41.8c-6.6,0-11.1,5.1-11.1,12.2
	s4.6,12.2,11.1,12.2S236,61,236,54S231.3,41.8,224.8,41.8L224.8,41.8z"/>
<polygon points="82.5,42.3 78,42.3 78,66 93.1,66 93.1,61.6 82.5,61.6 "/>
<path d="M144.3,29.6V9.3h-4.8v16c-0.4-1.2-0.9-2.3-1.6-3.4l-8.8-12.6h-4.4c-0.1,1.1-0.1,2.4-0.2,3.6v20h4.6V16.2
	c0.3,1,0.7,1.9,1.2,2.7l9.9,14h4C144.4,31.9,144.3,30.4,144.3,29.6z"/>
<path d="M111.7,23.1h-3.1c-1,0-1.4,0.2-1.5,0.4l3.1-8.3l0,0l3.1,8.3C113.1,23.4,112.7,23.1,111.7,23.1z M121.7,32.9l-0.1-0.3
	c-0.7-2-4.9-13.6-9.4-23.3l0,0h-4c-4.9,10.6-9.5,23.6-9.5,23.6h4.6c0.2-0.5,1.2-2.8,2.3-5.7h9c1.1,2.8,2,5,2.4,5.7L121.7,32.9z"/>
<path d="M109.2,55.8c0,4-1.8,6.2-4.9,6.2s-4.9-2.2-4.9-6.2V42.3h-4.5v13.5c0,6.5,3.5,10.3,9.4,10.3s9.5-3.8,9.5-10.3V42.3h-4.6V55.8
	z"/>
<path d="M253.8,55.8c0,4-1.8,6.2-4.9,6.2s-4.9-2.2-4.9-6.2V42.4h-4.5v13.5c0,6.5,3.5,10.3,9.4,10.3s9.5-3.8,9.5-10.3V42.4h-4.6
	L253.8,55.8z"/>
<path d="M159.5,28.9c-3.7,0-6.1-3.5-6.1-8.1s2.4-8,6.1-8s6.2,3.4,6.2,8c0.1,1.7-0.3,3.4-1.1,5c-1.1-1-3.1-2-6.4-1.2
	c1.2,1.1,2.1,2.5,2.8,4C160.6,28.8,160.1,28.9,159.5,28.9z M163.8,33.8c0.7,1,3.1,4,8.4,2.1c0,0-2.9-0.9-5.1-5.9l0.4-0.4
	c2.1-2.4,3.3-5.5,3.2-8.7c0-7.1-4.6-12.2-11.2-12.2s-11.1,5.1-11.1,12.2S153,33,159.5,33c1.2,0,2.4-0.2,3.5-0.6
	C163.4,33,163.7,33.5,163.8,33.8L163.8,33.8z"/>
<path d="M297.1,52l-2.3,4h5v4.5c-1.1,0.9-2.6,1.3-4,1.2c-4.2,0-6.8-3.2-6.8-7.8s3-7.7,7.2-7.7c1.3,0,2.6,0.2,3.8,0.7l2.1-3.7
	c-1.8-1-3.9-1.5-6-1.5c-7.1,0-12.1,4.9-12.1,12.2c0,7.2,4.5,12.1,11.6,12.1c3.2,0.1,6.2-1.1,8.5-3.3V52H297.1z"/>
<path d="M138.1,42.3h-5.4l-1.8,2.7c-1.2,1.8-2.3,3.7-3.3,5.7c-0.2-0.7-0.6-1.4-0.9-2l-4.2-6.4h-5.6l7.8,11.6l-8.2,12h5.4l2.3-3.5
	c1.2-1.7,2.2-3.5,3.2-5.4c0.4,1.3,5.6,9,5.6,9h5.5l-8.2-12.1L138.1,42.3z"/>
<path d="M281,49.8c0-4.8-3.3-7.5-8.3-7.5H263V66h4.5V46.5h4.9c2.5,0,3.7,1.3,3.7,3.3c0.2,1.8-1.1,3.4-2.9,3.6c-0.2,0-0.4,0-0.6,0
	h-3.9l7.9,12.6h5.6l-6.4-9.3C279.1,56,281.2,53.1,281,49.8z"/>
<path d="M82.5,28.9V13.3H88c1.1-0.1,2.1,0.3,2.9,1c0.7,0.9,0.8,2.2,0.3,3.2c-1,2.1-4.1,3.2-4.1,3.2s5.1,1.7,5.1,4.9
	c0,1-0.5,2-1.3,2.6c-0.7,0.4-1.6,0.6-2.4,0.6H82.5z M96.9,26.2c0-2.5-1.5-4.7-3.9-5.5c2-0.8,3.2-2.8,3.1-5c0-4.2-3-6.4-8-6.4H78
	v23.6h11C93.9,32.9,96.9,30.5,96.9,26.2z"/>
<path d="M214.1,28.6H203c0.1-1.8,0.2-3.7,0.2-5.5h7.6v-4h-7.6c-0.1-2.6-0.1-4.6-0.2-5.4h10.6l0.6-4.3h-15.7v23.6h15.1L214.1,28.6z"
	/>
<path d="M265.5,28.6h-11.1c0.1-1.8,0.2-3.7,0.2-5.5h7.6v-4h-7.6c-0.1-2.6-0.1-4.6-0.2-5.4H265l0.6-4.3h-15.7v23.6H265L265.5,28.6z"
	/>
<path d="M157.6,42.3h-15.7v23.6H157l0.6-4.3h-11.1c0.1-1.8,0.2-3.7,0.2-5.5h7.6v-4h-7.6c0-2.6-0.1-4.6-0.2-5.5H157L157.6,42.3z"/>
<path d="M205.2,61.4c-0.7,0.4-1.6,0.6-2.4,0.6h-6V46.4h5.5c1.1-0.1,2.2,0.3,2.9,1c0.7,0.9,0.8,2.2,0.3,3.2c-1,2.1-4.1,3.2-4.1,3.2
	s5.1,1.7,5.1,4.9C206.4,59.8,206,60.7,205.2,61.4z M207.3,53.8c2-0.8,3.3-2.8,3.1-5c0-4.2-3-6.4-8-6.4h-10.1V66h10.9
	c4.9,0,7.9-2.3,7.9-6.7C211.2,56.8,209.7,54.6,207.3,53.8z"/>
<path d="M234,28.6h-3.2c0.3-5,0.3-9.9,0-14.9l0,0h3.2c4.5,0,7,2.8,7,7.4S238.5,28.6,234,28.6z M234.2,9.3h-8v23.6h8
	c7.1,0,11.6-4.6,11.6-11.8S241.3,9.3,234.2,9.3L234.2,9.3z"/>
<path d="M185,42.4h-3.7c-2.5,3.8-4.7,7.7-6.6,11.8c-2-4.1-4.2-8-6.7-11.8h-3.6l-2.9,23.6h5.1l1.2-15l6.9,11l7-11
	c0,0.5,1.2,15,1.2,15h5.1L185,42.4z"/>
</svg>
