<?xml version="1.0" encoding="utf-8"?>
<!-- Generator: Adobe Illustrator 24.0.3, SVG Export Plug-In . SVG Version: 6.00 Build 0)  -->
<svg version="1.1" id="Layer_1" xmlns="http://www.w3.org/2000/svg" xmlns:xlink="http://www.w3.org/1999/xlink" x="0px" y="0px"
	 viewBox="0 0 304.2 97" style="enable-background:new 0 0 304.2 97;" xml:space="preserve">
<style type="text/css">
	.st0{fill:#1D1D1B;}
</style>
<title>logo_bdl-white</title>
<g>
	<g>
		<path class="st0" d="M89.4,91.4c0,3-2.1,4.6-5.4,4.6h-5.9V79.7h5.4c3.4,0,5.4,1.5,5.4,4.3c0,1.9-1.1,3.1-2.4,3.5
			C88.2,88,89.4,89.6,89.4,91.4z M83.5,86.8c2.2,0,3.4-0.9,3.4-2.7c0-1.8-1.2-2.6-3.4-2.6h-3.3v5.3C80.2,86.8,83.5,86.8,83.5,86.8z
			 M80.1,94.2H84c2.2,0,3.4-1.1,3.4-2.8c0-1.7-1.2-2.8-3.4-2.8h-3.9V94.2z"/>
		<path class="st0" d="M105.9,79.7v1.9h-8.3v5.2h7.6v1.9h-7.6v5.6h8.3V96H95.4V79.7H105.9z"/>
		<path class="st0" d="M112.3,79.7h2.1v14.5h8.3V96h-10.5L112.3,79.7L112.3,79.7z"/>
		<path class="st0" d="M135.9,93.1v-3.9h-3.6v-1.8h5.5v6.4c-1.6,1.7-3.7,2.3-5.8,2.3c-4.6,0-7.7-3.4-7.7-8.4c0-5.1,3.4-8.4,7.9-8.4
			c1.9,0,3.6,0.6,4.7,1.5V83c-1.4-1.3-2.9-1.8-4.7-1.8c-3.4,0-5.8,2.6-5.8,6.5s2.2,6.6,5.6,6.6C133.6,94.4,134.8,94,135.9,93.1z"/>
		<path class="st0" d="M146.8,96h-2.1V79.7h2.1V96z"/>
		<path class="st0" d="M153.7,89.5v-9.9h2.1v9.6c0,3.5,1.7,5.1,4.3,5.1s4.3-1.6,4.3-5.1v-9.6h2.1v9.9c0,4.5-2.7,6.7-6.4,6.7
			C156.4,96.3,153.7,94,153.7,89.5z"/>
	</g>
	<g>
		<g id="XMLID_38_">
			<path id="XMLID_39_" class="st0" d="M26.3,0H0v8.8h26.7c9.4,0,17,4.7,17,14.2c0,6.3-3.5,10.4-9.7,11.6v0.2
				c7.9,0.8,12.3,7.3,12.3,14.2c0,13.3-8.7,16.7-19.6,17.1h-0.1H0v8.8h28.9c22.3,0,34.2-13,34.2-37.4C63.1,16,52.2,0,26.3,0"/>
		</g>
		<polygon id="XMLID_37_" class="st0" points="0,17.7 0,57 19.4,57 19.4,48 9.1,48 9.1,17.7 		"/>
		<g>
			<g id="XMLID_32_">
				<path id="XMLID_36_" class="st0" d="M193.4,9.3h-4.6v13.4c0,4-1.8,6.2-4.9,6.2c-3.1,0-4.9-2.2-4.9-6.2V9.3h-4.5v13.4
					c0,6.5,3.5,10.3,9.4,10.3s9.5-3.8,9.5-10.3V9.3z"/>
				<path id="XMLID_33_" class="st0" d="M224.8,62c-3.7,0-6.2-3.4-6.2-8s2.4-7.9,6.2-7.9s6.2,3.3,6.2,7.9S228.5,62,224.8,62
					 M224.8,41.8c-6.6,0-11.1,5.1-11.1,12.2c0,7,4.6,12.2,11.1,12.2c6.6,0,11.2-5.2,11.2-12.2C235.9,46.9,231.3,41.8,224.8,41.8"/>
			</g>
			<polygon id="XMLID_31_" class="st0" points="82.5,42.3 78,42.3 78,66 93.1,66 93.1,61.6 82.5,61.6 			"/>
			<path id="XMLID_30_" class="st0" d="M144.3,29.6l-0.1-20.3h-4.7v16c0,0-0.5-1.8-1.6-3.4l-8.8-12.6h-4.4c-0.1,1.1-0.1,2.4-0.2,3.6
				v20h4.7V16.2c0,0,0.4,1.4,1.2,2.7l9.9,14h4C144.4,31.9,144.3,30.4,144.3,29.6"/>
			<path id="XMLID_27_" class="st0" d="M111.6,23.1L111.6,23.1h-2.9h-0.1c-1,0-1.4,0.2-1.5,0.4c0.2-0.5,0.4-1.1,0.6-1.6
				c0.2-0.6,0.4-1.2,0.6-1.7l1.8-5l0,0l0,0l0,0c0,0,0.2,0.7,0.7,1.8l0.4,1.1c0.4,1.1,0.9,2.3,1.4,3.8c0.2,0.5,0.4,1.1,0.6,1.6
				C113.1,23.4,112.7,23.1,111.6,23.1 M121.6,32.9c0-0.1-0.1-0.2-0.1-0.3c-0.7-2-4.9-13.6-9.4-23.3l0,0h-4
				c-4.9,10.7-9.5,23.6-9.5,23.6h4.6c0.2-0.6,1.2-2.8,2.3-5.7h2.8h3.5h2.8c1.1,2.8,2.1,5,2.4,5.7H121.6z"/>
			<path id="XMLID_26_" class="st0" d="M109.2,55.8c0,4-1.8,6.2-4.9,6.2s-4.9-2.2-4.9-6.2V42.3h-4.5v13.5c0,6.5,3.5,10.3,9.4,10.3
				s9.5-3.8,9.5-10.3V42.3h-4.6V55.8z"/>
			<path id="XMLID_25_" class="st0" d="M253.8,55.8c0,4-1.8,6.2-4.9,6.2c-3.1,0-4.9-2.2-4.9-6.2V42.4h-4.5v13.5
				c0,6.5,3.5,10.3,9.4,10.3s9.5-3.8,9.5-10.3V42.4h-4.6L253.8,55.8L253.8,55.8z"/>
			<path id="XMLID_22_" class="st0" d="M159.5,28.9c-3.7,0-6.2-3.5-6.2-8.1s2.4-8,6.2-8s6.2,3.4,6.2,8c0,2.1-0.4,3.8-1.1,5
				c-1.1-1-3.1-2-6.4-1.2c0,0,1.6,1.4,2.8,4.1C160.5,28.9,160,28.9,159.5,28.9 M163.8,33.8c0.7,1,3.1,4,8.4,2.1c0,0-3-0.9-5.1-5.9
				c0.3-0.2,0.4-0.4,0.4-0.4c2-2.2,3.2-5.2,3.2-8.7c0-7.1-4.6-12.2-11.2-12.2c-6.6,0-11.1,5.1-11.1,12.2c0,7,4.6,12.2,11.1,12.2
				c1.2,0,2.4-0.2,3.5-0.6C163.4,33,163.7,33.5,163.8,33.8"/>
			<path id="XMLID_20_" class="st0" d="M297.2,52l-2.3,4h5v4.5c-1,0.8-2.4,1.2-4,1.2c-4.2,0-6.8-3.2-6.8-7.8c0-4.7,3-7.7,7.2-7.7
				c1.4,0,2.7,0.2,3.8,0.7l2.1-3.7c-1.6-0.9-3.7-1.5-6-1.5c-7.1,0-12.1,4.9-12.1,12.2c0,7.1,4.5,12.1,11.6,12.1c3.1,0,6.2-1,8.5-3.3
				V52H297.2z"/>
			<path id="XMLID_19_" class="st0" d="M138.1,42.3h-5.4l-1.8,2.7c-1.4,2.2-3.1,5-3.3,5.7c-0.1-0.3-0.5-1.2-0.9-2
				c-0.2-0.4-3.7-5.6-4.2-6.4h-5.6l7.8,11.6l-8.2,12h5.4l2.3-3.5c1.4-2.1,3-4.7,3.2-5.4c0.4,1.2,5.5,8.9,5.5,8.9h5.5l-8.2-12.1
				L138.1,42.3z"/>
			<path id="XMLID_18_" class="st0" d="M281,49.8c0-4.8-3.3-7.5-8.3-7.5H263V66h4.5V46.5h4.9c2.5,0,3.7,1.3,3.7,3.3s-1,3.6-3.5,3.6
				h-3.9l7.9,12.6h5.6l-6.3-9.3C279.3,55.6,281,53.3,281,49.8"/>
			<path id="XMLID_15_" class="st0" d="M82.5,28.9V13.3H88c0.4,0,2.1-0.1,2.9,1c1,1.2,0.5,2.8,0.3,3.2c-1,2.1-4.1,3.2-4.1,3.2
				s5.1,1.7,5.1,4.9c0,0,0,1.8-1.3,2.6c0,0-0.9,0.6-2.4,0.6L82.5,28.9L82.5,28.9z M96.9,26.2c0-2.6-1.6-4.8-3.8-5.5
				c1.7-0.6,3.1-2.5,3.1-5c0-4.2-3-6.4-8-6.4h-9.9H78v23.6h11C93.9,32.9,96.9,30.5,96.9,26.2"/>
			<path id="XMLID_14_" class="st0" d="M214.1,28.6H203c0.1-1.8,0.2-3.7,0.2-5.5h7.6v-4h-7.6c0-2.6-0.1-4.6-0.2-5.5h10.6l0.6-4.3
				h-15.7v23.6h15.1L214.1,28.6z"/>
			<path id="XMLID_13_" class="st0" d="M265.5,28.6h-11.1c0.1-1.8,0.2-3.7,0.2-5.5h7.6v-4h-7.6c0-2.6-0.1-4.6-0.2-5.5H265l0.6-4.3
				h-15.7v23.6H265L265.5,28.6z"/>
			<path id="XMLID_12_" class="st0" d="M157.6,42.3h-15.7v23.6H157l0.6-4.3h-11.1c0.1-1.8,0.2-3.7,0.2-5.5h7.6v-4h-7.6
				c0-2.6-0.1-4.6-0.2-5.5H157L157.6,42.3z"/>
			<path id="XMLID_9_" class="st0" d="M205.2,61.4c0,0-0.9,0.6-2.4,0.6h-6V46.4h5.5c0.4,0,2.1-0.1,2.9,1c1,1.2,0.5,2.8,0.3,3.2
				c-1,2.1-4.1,3.2-4.1,3.2s5.1,1.7,5.1,4.9C206.4,58.7,206.4,60.5,205.2,61.4 M207.3,53.8c1.7-0.6,3.1-2.5,3.1-5c0-4.2-3-6.4-8-6.4
				h-9.9h-0.3V66h10.9c4.9,0,7.9-2.3,7.9-6.7C211.2,56.7,209.6,54.5,207.3,53.8"/>
			<path id="XMLID_4_" class="st0" d="M234,28.6h-3.2l0,0c0.4-5.9,0.1-12.9,0-14.9c0-0.1,0,0,0,0h3.2c4.5,0,7,2.8,7,7.4
				C240.9,25.7,238.5,28.6,234,28.6 M234.2,9.3h-8v23.6h8c7.1,0,11.6-4.6,11.6-11.8S241.3,9.3,234.2,9.3"/>
			<path id="XMLID_2_" class="st0" d="M185,42.4h-3.7l0,0c0,0-3.3,4.8-6.6,11.8c-3.2-6.7-6.6-11.8-6.6-11.8l0,0h-3.6L161.6,66h5.1
				c0,0,0.9-10.6,0.9-11.3c0.1-1.3,0.2-3.1,0.2-3.6l6.9,11l7-11c0,0.5,0.1,1.6,0.2,3c0,0.6,1,12.1,1,12.1h5.1L185,42.4z"/>
		</g>
	</g>
	<g>
		<path class="st0" d="M173.5,79.7h2.5l3.1,8.7c0.4,1.1,0.8,2.3,1.2,3.4h0.1c0.4-1.1,0.7-2.3,1.1-3.4l3.1-8.7h2.5V96h-1.9v-9
			c0-1.4,0.2-3.4,0.3-4.8h-0.1l-1.3,3.7l-3.1,8.5h-1.4l-3.1-8.5l-1.3-3.7h-0.1c0.1,1.4,0.3,3.4,0.3,4.8v9h-1.9L173.5,79.7
			L173.5,79.7z"/>
	</g>
</g>
</svg>
