<svg xmlns="http://www.w3.org/2000/svg" viewBox="0 0 304.25 74.82"><title>logo_bdl-white</title><path d="M26.3,0H0V8.79H26.74c9.42,0,17,4.75,17,14.23,0,6.28-3.47,10.38-9.74,11.58v.16c7.88.81,12.31,7.32,12.31,14.15,0,13.31-8.74,16.72-19.55,17.13H0v8.79H28.93c22.31,0,34.2-13,34.2-37.41C63.13,16,52.19,0,26.3,0Z" transform="translate(0 0)" style="fill:#fff"/><polygon points="0 17.7 0 57.01 19.43 57.01 19.43 48.02 9.05 48.02 9.05 17.7 0 17.7" style="fill:#fff"/><path d="M193.41,9.3h-4.6V22.65c0,4-1.77,6.22-4.88,6.22s-4.88-2.18-4.88-6.22V9.3h-4.52V22.69c0,6.5,3.52,10.34,9.4,10.34s9.48-3.84,9.48-10.34Z" transform="translate(0 0)" style="fill:#fff"/><path d="M224.76,62c-3.73,0-6.15-3.43-6.15-8s2.42-8,6.15-8S231,49.38,231,54,228.53,62,224.76,62Zm0-20.23c-6.57,0-11.15,5.11-11.15,12.19s4.58,12.18,11.15,12.18S236,61,236,54,231.33,41.8,224.76,41.8Z" transform="translate(0 0)" style="fill:#fff"/><polygon points="82.47 42.32 78.02 42.32 78.02 65.96 93.09 65.96 93.09 61.62 82.47 61.62 82.47 42.32" style="fill:#fff"/><path d="M144.29,29.56V9.29h-4.77v16a13.32,13.32,0,0,0-1.63-3.4L129.1,9.29h-4.38c-.09,1.12-.13,2.44-.15,3.6v20h4.65V16.2a11.08,11.08,0,0,0,1.23,2.72l9.91,14h4C144.41,31.89,144.28,30.4,144.29,29.56Z" transform="translate(0 0)" style="fill:#fff"/><path d="M111.65,23.15h-3.07c-1,0-1.41.22-1.54.35l3.08-8.29v0l3.08,8.3C113.07,23.38,112.7,23.15,111.65,23.15Zm10,9.74-.12-.29c-.7-2-4.88-13.58-9.36-23.29v0h-4c-4.91,10.65-9.46,23.6-9.46,23.6h4.56c.24-.55,1.19-2.81,2.35-5.73h9c1.11,2.77,2,5,2.37,5.73Z" transform="translate(0 0)" style="fill:#fff"/><path d="M109.19,55.76c0,4-1.77,6.22-4.89,6.22s-4.88-2.18-4.88-6.22V42.34H94.91V55.8c0,6.5,3.51,10.34,9.39,10.34s9.48-3.84,9.48-10.34V42.34h-4.59Z" transform="translate(0 0)" style="fill:#fff"/><path d="M253.78,55.78c0,4-1.76,6.22-4.88,6.22S244,59.81,244,55.78V42.36h-4.51V55.82c0,6.5,3.51,10.34,9.39,10.34s9.48-3.84,9.48-10.34V42.36h-4.6Z" transform="translate(0 0)" style="fill:#fff"/><path d="M159.54,28.94c-3.73,0-6.15-3.48-6.15-8.09s2.42-8,6.15-8,6.23,3.37,6.23,8a10.29,10.29,0,0,1-1.07,5c-1.08-1-3.08-2-6.38-1.24a12.14,12.14,0,0,1,2.75,4.05A4.94,4.94,0,0,1,159.54,28.94Zm4.31,4.87c.69,1,3.05,4,8.35,2.06,0,0-2.95-.94-5.1-5.94l.44-.4a12.67,12.67,0,0,0,3.19-8.68c0-7.08-4.61-12.19-11.19-12.19s-11.15,5.11-11.15,12.19S153,33,159.54,33a11,11,0,0,0,3.51-.57C163.36,33,163.67,33.54,163.85,33.81Z" transform="translate(0 0)" style="fill:#fff"/><path d="M297.15,52l-2.32,4h5v4.52a6.14,6.14,0,0,1-4,1.23c-4.19,0-6.81-3.19-6.81-7.76s3-7.73,7.19-7.73a10.54,10.54,0,0,1,3.83.68l2.14-3.71a12,12,0,0,0-6-1.47c-7.07,0-12.15,4.92-12.15,12.23,0,7.15,4.5,12.14,11.65,12.14a11.78,11.78,0,0,0,8.52-3.32V52Z" transform="translate(0 0)" style="fill:#fff"/><path d="M138.09,42.35h-5.38L130.87,45a47.4,47.4,0,0,0-3.29,5.66,11.48,11.48,0,0,0-.94-2l-4.21-6.39h-5.55l7.8,11.57-8.19,12h5.42l2.33-3.48a47.86,47.86,0,0,0,3.18-5.39C127.82,58.3,133,66,133,66h5.53l-8.19-12.1Z" transform="translate(0 0)" style="fill:#fff"/><path d="M281,49.82c0-4.84-3.3-7.49-8.26-7.49H263V66h4.53V46.52h4.89c2.46,0,3.73,1.31,3.73,3.3a3.23,3.23,0,0,1-3.5,3.56h-3.87L276.66,66h5.59l-6.35-9.31A6.53,6.53,0,0,0,281,49.82Z" transform="translate(0 0)" style="fill:#fff"/><path d="M82.49,28.87V13.28H88a3.85,3.85,0,0,1,2.94,1,3.11,3.11,0,0,1,.26,3.24c-1,2.12-4.08,3.21-4.08,3.21s5.06,1.66,5.06,4.93a3.38,3.38,0,0,1-1.27,2.63,4.78,4.78,0,0,1-2.4.58ZM96.87,26.2A5.73,5.73,0,0,0,93,20.7a5.09,5.09,0,0,0,3.11-5c0-4.23-3-6.42-8-6.42H78v23.6H89C93.87,32.88,96.87,30.54,96.87,26.2Z" transform="translate(0 0)" style="fill:#fff"/><path d="M214.09,28.57H203c.12-1.81.18-3.69.2-5.49h7.57v-4h-7.58c-.05-2.58-.15-4.63-.2-5.45h10.59l.55-4.31H198.41V32.9h15.13Z" transform="translate(0 0)" style="fill:#fff"/><path d="M265.51,28.57H254.37c.13-1.81.19-3.69.21-5.49h7.56v-4h-7.58c-.05-2.58-.15-4.63-.19-5.45H265l.56-4.31H249.82V32.9H265Z" transform="translate(0 0)" style="fill:#fff"/><path d="M157.59,42.34H141.9v23.6H157l.56-4.33H146.45c.13-1.81.19-3.69.21-5.48h7.56v-4h-7.58c0-2.59-.15-4.63-.19-5.46H157Z" transform="translate(0 0)" style="fill:#fff"/><path d="M205.16,61.36a4.72,4.72,0,0,1-2.4.59h-6V46.36h5.46a3.85,3.85,0,0,1,2.95,1,3.11,3.11,0,0,1,.26,3.24c-1,2.12-4.08,3.21-4.08,3.21s5.06,1.66,5.06,4.93A3.37,3.37,0,0,1,205.16,61.36Zm2.16-7.59a5.08,5.08,0,0,0,3.12-5c0-4.23-3-6.42-8-6.42H192.3V66h10.95c4.92,0,7.92-2.35,7.92-6.69A5.74,5.74,0,0,0,207.32,53.77Z" transform="translate(0 0)" style="fill:#fff"/><path d="M234,28.57h-3.23a139.64,139.64,0,0,0,0-14.9v0H234c4.5,0,7,2.83,7,7.45S238.47,28.57,234,28.57Zm.19-19.27h-8V32.9h8c7.15,0,11.65-4.61,11.65-11.8S241.31,9.3,234.16,9.3Z" transform="translate(0 0)" style="fill:#fff"/><path d="M185,42.36h-3.73a98.14,98.14,0,0,0-6.59,11.84A104.56,104.56,0,0,0,168,42.36h-3.65l-2.92,23.58h5.05l1.18-15,6.95,11,7-11c0,.46,1.16,15,1.16,15h5.07Z" transform="translate(0 0)" style="fill:#fff"/></svg>